<svg width="356" height="354" viewBox="0 0 356 354" fill="none" xmlns="http://www.w3.org/2000/svg">
<path d="M305.907 61.531C365.326 122.616 371.326 219.797 316.673 288.013C261.54 356.845 164.131 371.894 91.3057 325.788" stroke="#DBD7E9" stroke-miterlimit="10"/>
<path d="M204.144 166.425L225.436 203.549C229.276 199.504 233.013 195.459 236.648 191.483C240.282 187.472 243.162 184.216 245.288 181.645C246.557 180.034 247.997 178.354 249.54 176.606C251.082 174.858 252.557 173.006 253.928 171.087C255.3 169.167 256.465 167.248 257.357 165.328C258.248 163.408 258.728 161.592 258.728 159.878C258.728 157.547 257.7 155.558 255.677 153.947L269.597 142.909C271.414 145.035 271.792 147.811 270.729 151.239C269.974 153.81 268.089 157.204 265.037 161.42C261.986 165.636 258.351 170.23 254.065 175.2C249.78 180.171 245.219 185.278 240.385 190.557C235.516 195.836 230.922 200.841 226.533 205.537L256.157 256.75C257.323 258.67 258.42 260.624 259.448 262.578C260.477 264.566 261.677 266.348 263.049 267.925C264.42 269.536 266.031 270.839 267.849 271.833C269.666 272.861 271.86 273.341 274.397 273.341V275.432H239.493V273.341C241.962 273.341 243.711 272.93 244.774 272.142C245.837 271.353 246.385 270.222 246.385 268.782C246.385 267.342 245.974 265.594 245.185 263.503C244.397 261.412 243.231 259.15 241.756 256.716L217.756 214.93C216.144 216.644 214.224 218.735 211.995 221.237C209.767 223.739 207.367 226.482 204.864 229.396C202.361 232.344 199.892 235.36 197.492 238.514C195.092 241.667 192.898 244.718 190.943 247.701C188.955 250.683 187.378 253.494 186.212 256.099C185.046 258.704 184.463 260.967 184.463 262.886C184.463 265.868 185.492 268.131 187.515 269.605L172.771 281.294C170.646 278.312 170.646 274.37 172.771 269.433C173.731 267.411 175.377 264.6 177.743 261.035C180.074 257.47 182.852 253.528 186.075 249.175C189.263 244.855 192.795 240.331 196.635 235.634C200.475 230.938 204.315 226.413 208.155 222.026C209.115 220.86 210.315 219.489 211.755 217.946C213.195 216.404 214.807 214.724 216.624 212.907L195.744 176.126" fill="#DBD7E9"/>
<path d="M153.056 218.152H85.8542V216.061C88.6315 216.061 90.7573 215.752 92.2659 215.101C93.7745 214.45 94.8374 213.456 95.5574 212.05C96.2432 210.679 96.6546 208.931 96.7574 206.84C96.8603 204.749 96.9289 202.281 96.9289 199.401V109.145C96.9289 106.265 96.8603 103.797 96.7574 101.706C96.6546 99.615 96.2432 97.901 95.5574 96.4956C94.8717 95.1244 93.7745 94.0961 92.2659 93.4448C90.7573 92.7935 88.6315 92.4849 85.8542 92.4849V90.3939H172.771V111.03H170.68C170.68 107.396 170.2 104.483 169.24 102.22C168.28 99.9578 166.908 98.2095 165.16 96.9412C163.411 95.6729 161.285 94.7816 158.851 94.3017C156.382 93.8218 153.742 93.5819 150.862 93.5819H109.718V149.594H137.422C140.302 149.594 142.77 149.525 144.862 149.422C146.953 149.32 148.668 148.908 150.073 148.223C151.445 147.537 152.474 146.44 153.125 144.932C153.776 143.424 154.085 141.298 154.085 138.522H156.176V163.82H154.085C154.085 161.043 153.776 158.918 153.125 157.41C152.474 155.901 151.479 154.839 150.073 154.119C148.702 153.433 146.953 153.022 144.862 152.919C142.77 152.816 140.302 152.748 137.422 152.748H109.718V198.202C109.718 201.081 109.786 203.549 109.889 205.64C109.992 207.731 110.404 209.445 111.089 210.851C111.775 212.222 112.872 213.25 114.381 213.901C115.889 214.553 118.015 214.861 120.793 214.861H150.896C153.776 214.861 153.674 214.793 156.108 214.313" fill="#DBD7E9"/>
<path d="M280.329 39.3181C206.407 -19.8476 98.5402 -7.91851 39.3269 65.9872C-19.8521 139.859 -7.92031 247.735 65.9678 306.901" stroke="#DBD7E9" stroke-miterlimit="10"/>
<path d="M76.5967 316.979L293.084 50.8701" stroke="#DBD7E9" stroke-miterlimit="10"/>
</svg>
