<svg width="77" height="77" viewBox="0 0 77 77" fill="none" xmlns="http://www.w3.org/2000/svg">
<path fill-rule="evenodd" clip-rule="evenodd" d="M38.5 77C59.763 77 77 59.763 77 38.5C77 17.237 59.763 0 38.5 0C17.237 0 0 17.237 0 38.5C0 59.763 17.237 77 38.5 77ZM29.4525 16.21C27.1467 16.21 25.4756 16.5163 23.9605 17.2029C22.5295 17.8513 21.3204 18.8094 19.952 19.8937L19.952 19.8937L19.8586 19.9677C19.4995 20.2522 19.29 20.6853 19.29 21.1435V52.36C19.29 52.9241 19.6066 53.4406 20.1094 53.6966C20.6121 53.9526 21.216 53.9049 21.6723 53.5731C24.365 51.6148 26.9505 50.71 29.4525 50.71C31.4918 50.71 32.7248 50.9564 33.75 51.3823C34.8191 51.8264 35.7556 52.498 37.2323 53.5728C37.7583 53.9556 38.4712 53.9557 38.9973 53.5731C41.69 51.6148 44.2755 50.71 46.7775 50.71C48.8167 50.71 50.0498 50.9564 51.075 51.3823C52.1441 51.8264 53.0806 52.498 54.5573 53.5728C55.0136 53.9048 55.6176 53.9527 56.1205 53.6968C56.6234 53.4408 56.94 52.9242 56.94 52.36V21.1435C56.94 20.6854 56.7308 20.2525 56.3719 19.968C53.2935 17.5277 50.0873 16.21 46.7775 16.21C44.4717 16.21 42.8006 16.5163 41.2855 17.2029C40.1448 17.7198 39.145 18.4335 38.0932 19.251C35.308 17.2707 32.422 16.21 29.4525 16.21ZM29.4525 19.21C31.744 19.21 34.125 20.0491 36.615 21.8843V49.4999C36.0634 49.1615 35.5016 48.8614 34.901 48.6119C33.3993 47.988 31.7446 47.71 29.4525 47.71C27.0155 47.71 24.6247 48.3726 22.29 49.6365V21.8702C23.4546 20.9554 24.2783 20.3525 25.1987 19.9354C26.2103 19.477 27.4271 19.21 29.4525 19.21ZM46.7775 47.71C44.3405 47.71 41.9497 48.3726 39.615 49.6365V21.8702C40.7796 20.9554 41.6033 20.3525 42.5238 19.9354C43.5353 19.477 44.7521 19.21 46.7775 19.21C49.069 19.21 51.45 20.0491 53.94 21.8843V49.4999C53.3884 49.1615 52.8266 48.8614 52.226 48.6119C50.7243 47.988 49.0696 47.71 46.7775 47.71Z" fill="#DBD7E9"/>
</svg>
