<svg width="60" height="57" viewBox="0 0 60 57" fill="none" xmlns="http://www.w3.org/2000/svg">
<path d="M28.9624 1.5C14.0507 1.5 1.9624 13.5883 1.9624 28.5C1.9624 43.4117 14.0507 55.5 28.9624 55.5H31.4498C46.3615 55.5 58.4498 43.4117 58.4498 28.5C58.4498 13.5883 46.3615 1.5 31.4498 1.5H28.9624Z" fill="#F4F3F0"/>
<path d="M28.9624 1.5C14.0507 1.5 1.9624 13.5883 1.9624 28.5C1.9624 43.4117 14.0507 55.5 28.9624 55.5H31.4498C46.3615 55.5 58.4498 43.4117 58.4498 28.5C58.4498 13.5883 46.3615 1.5 31.4498 1.5H28.9624Z" stroke="#755CCE" stroke-width="3"/>
<path d="M18.625 20.0964C20.0631 19.5034 22.1253 18.864 24.1305 18.6653C26.2918 18.4505 28.1248 18.7662 29.1875 19.8704V35.489C27.6681 34.6396 25.7425 34.5227 23.9664 34.6989C22.0489 34.8912 20.1151 35.4377 18.625 35.9986V20.0964ZM30.8125 19.8704C31.8752 18.7662 33.7083 18.4505 35.8695 18.6653C37.8748 18.864 39.9369 19.5034 41.375 20.0964V35.9986C39.8833 35.4377 37.9511 34.8896 36.0336 34.7005C34.2559 34.5227 32.3319 34.638 30.8125 35.489V19.8704ZM30 18.4217C28.3994 17.0643 26.0789 16.8624 23.9664 17.0707C21.5061 17.3159 19.0231 18.1476 17.4761 18.8416C17.3342 18.9052 17.2138 19.0078 17.1294 19.1371C17.045 19.2664 17 19.4169 17 19.5707V37.1989C17 37.333 17.0342 37.4649 17.0993 37.5826C17.1644 37.7003 17.2585 37.8 17.3728 37.8725C17.4871 37.9451 17.6181 37.9882 17.7536 37.9979C17.8892 38.0076 18.0251 37.9836 18.1489 37.9281C19.5821 37.2871 21.8913 36.5162 24.1289 36.2935C26.4185 36.0659 28.3376 36.4329 29.3663 37.6989C29.4424 37.7925 29.5389 37.8681 29.6485 37.92C29.7582 37.9719 29.8783 37.9988 30 37.9988C30.1217 37.9988 30.2418 37.9719 30.3515 37.92C30.4611 37.8681 30.5576 37.7925 30.6338 37.6989C31.6624 36.4329 33.5815 36.0659 35.8695 36.2935C38.1088 36.5162 40.4195 37.2871 41.8511 37.9281C41.9749 37.9836 42.1108 38.0076 42.2464 37.9979C42.3819 37.9882 42.5129 37.9451 42.6272 37.8725C42.7415 37.8 42.8356 37.7003 42.9007 37.5826C42.9658 37.4649 43 37.333 43 37.1989V19.5707C43 19.4169 42.955 19.2664 42.8706 19.1371C42.7862 19.0078 42.6658 18.9052 42.5239 18.8416C40.9769 18.1476 38.4939 17.3159 36.0336 17.0707C33.9211 16.8608 31.6006 17.0643 30 18.4217Z" fill="#755CCE"/>
</svg>
