<svg width="61" height="57" viewBox="0 0 61 57" fill="none" xmlns="http://www.w3.org/2000/svg">
<path d="M29.4746 1.5C14.5629 1.5 2.47461 13.5883 2.47461 28.5C2.47461 43.4117 14.5629 55.5 29.4746 55.5H31.962C46.8737 55.5 58.962 43.4117 58.962 28.5C58.962 13.5883 46.8737 1.5 31.962 1.5H29.4746Z" fill="#F4F3F0"/>
<path d="M29.4746 1.5C14.5629 1.5 2.47461 13.5883 2.47461 28.5C2.47461 43.4117 14.5629 55.5 29.4746 55.5H31.962C46.8737 55.5 58.962 43.4117 58.962 28.5C58.962 13.5883 46.8737 1.5 31.962 1.5H29.4746Z" stroke="#755CCE" stroke-width="3"/>
<path d="M25.3405 30.3505C29.0269 26.5619 37.3784 19.163 40.9119 19.0036C43.0964 18.8189 38.7428 25.6762 28.4252 33.1807M30.0726 26.4352L32.7669 28.8421M19.9746 37.8476C20.8222 35.2011 20.2874 36.5017 20.5763 33.4541C20.7314 33.0023 21.0406 31.6025 22.9757 30.9047C25.1746 30.1109 26.7874 31.3101 27.204 31.8738C28.4324 33.0508 28.5744 34.5129 27.204 36.1829C25.8336 37.8529 21.77 38.2677 19.9746 37.8476Z" stroke="#755CCE" stroke-width="1.5" stroke-linecap="round" stroke-linejoin="round"/>
</svg>
