<svg width="77" height="77" viewBox="0 0 77 77" fill="none" xmlns="http://www.w3.org/2000/svg">
<path fill-rule="evenodd" clip-rule="evenodd" d="M38.5 77C59.763 77 77 59.763 77 38.5C77 17.237 59.763 0 38.5 0C17.237 0 0 17.237 0 38.5C0 59.763 17.237 77 38.5 77ZM49.8839 21.3555C51.4823 20.3076 52.7866 19.66 53.7561 19.3776C53.3709 20.5006 52.4227 22.2562 50.821 24.5187C48.8589 27.2903 46.011 30.6909 42.2972 34.4143L38.7075 30.7878C40.1329 29.3959 41.611 28.0102 43.0851 26.7039C45.469 24.5914 47.8119 22.7137 49.8839 21.3555ZM36.5824 32.9053L40.15 36.5095C38.4403 38.134 36.5758 39.8063 34.5579 41.5031C34.294 41.0651 33.9817 40.6489 33.628 40.2558C33.204 39.6526 32.4605 38.9317 31.4679 38.3709C32.9021 36.7495 34.6606 34.8585 36.5824 32.9053ZM53.2695 26.2521C49.8051 31.1458 43.8424 37.741 35.5146 44.6104L30.9998 41.7685C30.7242 41.4686 30.2232 41.0474 29.5358 40.7588C29.4269 40.7131 29.3135 40.6707 29.1955 40.6328L25.0631 38.0315C26.2134 37.562 27.3006 37.4012 28.2924 37.4474L28.3059 37.4315C31.3157 33.9331 36.2158 28.7829 41.0955 24.4586C43.5338 22.2979 45.9977 20.3159 48.2391 18.8465C50.3976 17.4316 52.5914 16.3256 54.4461 16.2202C54.8535 16.1862 55.3468 16.2287 55.8167 16.4889C56.33 16.7731 56.6465 17.2235 56.8038 17.6932C57.0765 18.5073 56.8916 19.417 56.6629 20.1414C56.1693 21.7046 54.9944 23.8156 53.2695 26.2521ZM29.1944 40.6324L25.0625 38.0318C21.4791 39.4934 20.6639 42.421 20.3808 43.4381C20.3595 43.5146 20.3412 43.5803 20.3249 43.6337C20.2942 43.7349 20.2743 43.839 20.2654 43.9444C20.0791 46.1677 20.0982 47.2252 20.1098 47.8671C20.1131 48.0452 20.1157 48.1914 20.1132 48.3215C20.1041 48.7976 20.0418 49.2189 19.3468 51.6733C19.2371 52.0604 19.2876 52.4753 19.4868 52.8248C19.6861 53.1743 20.0173 53.4292 20.4062 53.5321C22.1467 53.9927 24.7573 53.9669 27.1818 53.462C29.5632 52.966 32.2203 51.9138 33.6619 49.9271C34.8996 48.2215 35.5568 46.4792 35.5191 44.7472C35.5181 44.7014 35.5166 44.6559 35.5146 44.6104L31.0003 41.7691C31.0001 41.7689 31 41.7687 30.9998 41.7685L29.1955 40.6328C29.1951 40.6326 29.1948 40.6325 29.1944 40.6324ZM29.1944 40.6324L31.0003 41.7691C31.0871 41.8636 31.1515 41.946 31.1923 42.0083C31.2378 42.078 31.2891 42.1438 31.3455 42.205C32.1386 43.0644 32.5006 43.9309 32.5198 44.8124C32.5394 45.7116 32.2061 46.8252 31.2338 48.1652C30.4655 49.224 28.7413 50.0728 26.5701 50.525C25.1824 50.814 23.801 50.9015 22.6875 50.8427C22.997 49.662 23.0998 49.0539 23.1127 48.3788C23.1165 48.1789 23.1132 47.9885 23.1096 47.7743L23.1096 47.7741C23.0986 47.1355 23.0841 46.2858 23.2425 44.3453L23.2617 44.2785C23.5313 43.3358 23.9976 41.7059 26.1959 40.8094L26.1965 40.8092C27.3889 40.3224 28.3944 40.3753 29.1944 40.6324Z" fill="#DBD7E9"/>
</svg>
