<svg width="77" height="77" viewBox="0 0 77 77" fill="none" xmlns="http://www.w3.org/2000/svg">
<path fill-rule="evenodd" clip-rule="evenodd" d="M38.5 77C59.763 77 77 59.763 77 38.5C77 17.237 59.763 0 38.5 0C17.237 0 0 17.237 0 38.5C0 59.763 17.237 77 38.5 77ZM19.6321 53.6484C20.9883 55.2161 22.6243 56 24.5399 56C25.8808 56 27.126 55.599 28.2754 54.7969C29.4247 53.9948 30.2868 52.901 30.8614 51.5156L32.2024 48.3438C32.362 47.9792 32.6015 47.7057 32.9207 47.5234C33.24 47.3411 33.5752 47.25 33.9264 47.25H43.0256C43.3781 47.25 43.714 47.3411 44.0332 47.5234C44.3525 47.7057 44.592 47.9792 44.7516 48.3438L46.0925 51.5156C46.6672 52.901 47.5292 53.9948 48.6786 54.7969C49.828 55.599 51.0731 56 52.4141 56C54.3591 56.0015 56.0263 55.2271 57.4158 53.6769C58.8052 52.1267 59.5 50.2396 59.5 48.0156C59.5012 47.689 59.4776 47.3521 59.4291 47.005C59.3805 46.6579 59.3244 46.3203 59.2605 45.9922L55.2377 27.6172C54.7907 25.6499 53.8808 24.0552 52.5079 22.8331C51.1351 21.611 49.5707 21 47.8147 21H29.1374C27.3814 21.0015 25.817 21.6125 24.4441 22.8331C23.0713 24.0537 22.1613 25.6484 21.7144 27.6172L17.6916 45.9922C17.6277 46.3203 17.5798 46.6484 17.5479 46.9766C17.516 47.3047 17.5 47.6328 17.5 47.9609C17.5651 50.1849 18.2758 52.0807 19.6321 53.6484ZM26.3368 51.0781C25.8412 51.4427 25.2902 51.625 24.6836 51.625C23.759 51.625 22.9691 51.2786 22.314 50.5859C21.6588 49.8932 21.3312 49.0365 21.3312 48.0156C21.3312 47.5781 21.3632 47.25 21.427 47.0312L25.4498 28.7109C25.6427 27.7266 26.082 26.9245 26.7678 26.3047C27.4536 25.6849 28.2434 25.375 29.1374 25.375H47.8147C48.7086 25.375 49.4908 25.6849 50.1613 26.3047C50.8318 26.9245 51.2788 27.7266 51.5022 28.7109L55.525 47.0312C55.5889 47.7604 55.6208 48.1068 55.6208 48.0703C55.5889 49.0926 55.2537 49.9406 54.6151 50.6144C53.9766 51.2881 53.2103 51.625 52.3164 51.625C51.711 51.625 51.1606 51.4427 50.6651 51.0781C50.1696 50.7135 49.7941 50.2214 49.5387 49.6016L48.1978 46.4844C47.687 45.3906 46.9686 44.5156 46.0427 43.8594C45.1168 43.2031 44.1111 42.875 43.0256 42.875H33.9264C32.8409 42.8735 31.8352 43.1922 30.9093 43.8309C29.9835 44.4697 29.2811 45.3542 28.8022 46.4844L27.4612 49.6016C27.2071 50.2214 26.8323 50.7135 26.3368 51.0781ZM42.7153 35.6847C42.3475 36.1032 41.8922 36.3125 41.3495 36.3125C40.8093 36.3183 40.3546 36.1091 39.9855 35.6847C39.6165 35.2603 39.4326 34.7404 39.4338 34.125C39.4351 33.5096 39.619 32.9904 39.9855 32.5675C40.3521 32.1446 40.8067 31.9346 41.3495 31.9375C41.8922 31.9404 42.3469 32.1504 42.7134 32.5675C43.0799 32.9846 43.2638 33.5037 43.2651 34.125C43.2664 34.7463 43.0831 35.2661 42.7153 35.6847ZM46.5465 31.3075C46.1787 31.7275 45.7235 31.9375 45.1807 31.9375C44.6405 31.9404 44.1859 31.7311 43.8168 31.3097C43.4477 30.8882 43.2638 30.3683 43.2651 29.75C43.2664 29.1317 43.4503 28.6125 43.8168 28.1925C44.1833 27.7725 44.6379 27.5625 45.1807 27.5625C45.7235 27.5625 46.1781 27.7725 46.5446 28.1925C46.9111 28.6125 47.095 29.1317 47.0963 29.75C47.0976 30.3683 46.9143 30.8875 46.5465 31.3075ZM46.5465 40.0575C46.1787 40.4775 45.7235 40.6875 45.1807 40.6875C44.6405 40.6904 44.1859 40.4811 43.8168 40.0597C43.4477 39.6382 43.2638 39.1183 43.2651 38.5C43.2664 37.8817 43.4503 37.3625 43.8168 36.9425C44.1833 36.5225 44.6379 36.3125 45.1807 36.3125C45.7235 36.3125 46.1781 36.5225 46.5446 36.9425C46.9111 37.3625 47.095 37.8817 47.0963 38.5C47.0976 39.1183 46.9143 39.6375 46.5465 40.0575ZM50.3778 35.6825C50.01 36.1025 49.5547 36.3125 49.0119 36.3125C48.4717 36.3154 48.0171 36.1061 47.648 35.6847C47.2789 35.2632 47.095 34.7433 47.0963 34.125C47.0976 33.5067 47.2815 32.9875 47.648 32.5675C48.0145 32.1475 48.4692 31.9375 49.0119 31.9375C49.5547 31.9375 50.0093 32.1475 50.3759 32.5675C50.7424 32.9875 50.9263 33.5067 50.9276 34.125C50.9288 34.7433 50.7456 35.2625 50.3778 35.6825ZM32.802 39.1278C32.5299 39.4384 32.1864 39.5938 31.7714 39.5938C31.3576 39.5952 31.0147 39.4406 30.7427 39.13C30.4707 38.8194 30.3346 38.4271 30.3346 37.9531V35.7656H28.419C28.0065 35.7685 27.6636 35.614 27.3903 35.3019C27.117 34.9898 26.981 34.5975 26.9823 34.125C26.9836 33.6525 27.1196 33.2609 27.3903 32.9503C27.6611 32.6397 28.004 32.4844 28.419 32.4844H30.3346V30.2969C30.3346 29.8258 30.4707 29.4343 30.7427 29.1222C31.0147 28.8101 31.3576 28.6548 31.7714 28.6562C32.1851 28.6577 32.528 28.813 32.8 29.1222C33.0721 29.4314 33.2081 29.8229 33.2081 30.2969V32.4844H35.1237C35.5387 32.4844 35.8816 32.6397 36.1524 32.9503C36.4231 33.2609 36.5591 33.6525 36.5604 34.125C36.5617 34.5975 36.4263 34.9891 36.1543 35.2997C35.8823 35.6103 35.5387 35.7656 35.1237 35.7656H33.2081V37.9531C33.2094 38.4256 33.074 38.8172 32.802 39.1278Z" fill="#DBD7E9"/>
</svg>
