<svg width="77" height="77" viewBox="0 0 77 77" fill="none" xmlns="http://www.w3.org/2000/svg">
<path fill-rule="evenodd" clip-rule="evenodd" d="M38.5 77C59.763 77 77 59.763 77 38.5C77 17.237 59.763 0 38.5 0C17.237 0 0 17.237 0 38.5C0 59.763 17.237 77 38.5 77ZM27.208 41.6514C27.5608 40.611 27.9498 39.5808 28.3745 38.5624C32.3323 28.9868 38.9235 23.0548 49.69 21.5527C48.7025 23.5329 47.7689 24.9103 46.9411 25.6535L45.0161 27.3895L42.2961 29.841L45.0989 32.3618C42.9236 35.974 38.6251 38.8482 33.7876 39.3922C31.2524 39.6764 29.056 40.4439 27.208 41.6514ZM49.665 31.57L47.74 29.8375L49.6708 28.0998C51.5919 26.3661 53.515 22.9029 55.44 17.71C27.1638 17.71 22.8854 40.9695 20.9124 51.6958C20.8707 51.9229 20.8299 52.1444 20.79 52.36H24.6362C25.9182 46.585 29.1278 43.4087 34.265 42.8312C41.965 41.965 47.74 36.7675 49.665 31.57Z" fill="#DBD7E9"/>
</svg>
