<svg width="77" height="77" viewBox="0 0 77 77" fill="none" xmlns="http://www.w3.org/2000/svg">
<path fill-rule="evenodd" clip-rule="evenodd" d="M38.5 77C59.763 77 77 59.763 77 38.5C77 17.237 59.763 0 38.5 0C17.237 0 0 17.237 0 38.5C0 59.763 17.237 77 38.5 77ZM31.6116 54.2848C33.7194 55.1949 35.9572 55.65 38.325 55.65C40.7205 55.65 42.9652 55.1955 45.0592 54.2865C47.1532 53.3775 48.9868 52.1359 50.5599 50.5616C52.133 48.9874 53.3746 47.1463 54.2848 45.0384C55.1949 42.9306 55.65 40.6927 55.65 38.325C55.6511 35.9295 55.1961 33.6848 54.2848 31.5908C53.3735 29.4968 52.1319 27.6632 50.5599 26.0901C48.988 24.517 47.155 23.2754 45.061 22.3652C42.9669 21.4551 40.7216 21 38.325 21C35.9572 21.0012 33.7194 21.4562 31.6116 22.3652C29.5037 23.2742 27.6632 24.5158 26.0901 26.0901C24.517 27.6644 23.2754 29.4979 22.3652 31.5908C21.4551 33.6836 21 35.9284 21 38.325C21 40.6927 21.4551 42.9306 22.3652 45.0384C23.2754 47.1463 24.517 48.9868 26.0901 50.5599C27.6632 52.133 29.5037 53.3746 31.6116 54.2848ZM40.2741 48.8499C39.7254 49.9761 39.0757 51.0589 38.325 52.0984C37.5742 51.0589 36.9246 49.9761 36.3759 48.8499C35.8273 47.7238 35.3797 46.5255 35.0332 45.255H41.6167C41.2702 46.5255 40.8227 47.7238 40.2741 48.8499ZM32.457 48.4376C32.8463 49.4632 33.3007 50.4525 33.8205 51.4054C32.2047 50.8856 30.7684 50.0916 29.5118 49.0232C28.2551 47.9548 27.2081 46.6987 26.3707 45.255H31.4816C31.7427 46.3511 32.0678 47.412 32.457 48.4376ZM47.14 49.0232C45.8833 50.0916 44.4465 50.8856 42.8295 51.4054C43.3504 50.4537 43.8055 49.465 44.1947 48.4393C44.5839 47.4137 44.9085 46.3522 45.1684 45.255H50.2792C49.443 46.6987 48.3966 47.9548 47.14 49.0232ZM30.7886 41.79H24.8981C24.7561 41.2148 24.6481 40.6448 24.5741 40.08C24.5002 39.5152 24.4638 38.9302 24.465 38.325C24.4662 37.7198 24.5025 37.1353 24.5741 36.5717C24.6458 36.0081 24.7537 35.4375 24.8981 34.86H30.7886C30.7043 35.4398 30.6396 36.0104 30.5946 36.5717C30.5495 37.133 30.5276 37.7175 30.5287 38.325C30.5299 38.9325 30.5518 39.5175 30.5946 40.08C30.6373 40.6425 30.702 41.2125 30.7886 41.79ZM42.3964 41.79H34.2536C34.1693 41.2148 34.1046 40.6448 34.0596 40.08C34.0145 39.5152 33.9926 38.9302 33.9937 38.325C33.9949 37.7198 34.0168 37.1353 34.0596 36.5717C34.1023 36.0081 34.167 35.4375 34.2536 34.86H42.3964C42.483 35.4398 42.5477 36.0104 42.5904 36.5717C42.6331 37.133 42.6551 37.7175 42.6562 38.325C42.6574 38.9325 42.636 39.5175 42.5921 40.08C42.5483 40.6425 42.483 41.2125 42.3964 41.79ZM51.7519 41.79H45.8614C45.948 41.2148 46.0127 40.6448 46.0554 40.08C46.0981 39.5152 46.1201 38.9302 46.1212 38.325C46.1224 37.7198 46.101 37.1353 46.0571 36.5717C46.0133 36.0081 45.948 35.4375 45.8614 34.86H51.7519C51.8986 35.4398 52.0071 36.0104 52.0776 36.5717C52.148 37.133 52.1838 37.7175 52.185 38.325C52.1861 38.9325 52.1503 39.5175 52.0776 40.08C52.0048 40.6425 51.8962 41.2125 51.7519 41.79ZM50.2792 31.395H45.1684C44.9096 30.2989 44.5851 29.238 44.1947 28.2124C43.8043 27.1868 43.3492 26.1975 42.8295 25.2446C44.4477 25.7644 45.8845 26.5584 47.14 27.6268C48.3954 28.6952 49.4419 29.9513 50.2792 31.395ZM40.2741 27.8001C40.8227 28.9262 41.2702 30.1245 41.6167 31.395H35.0332C35.3797 30.1245 35.8273 28.9262 36.3759 27.8001C36.9246 26.6739 37.5742 25.5911 38.325 24.5516C39.0757 25.5911 39.7254 26.6739 40.2741 27.8001ZM31.4816 31.395H26.3707C27.207 29.9513 28.2534 28.6952 29.51 27.6268C30.7667 26.5584 32.2035 25.7644 33.8205 25.2446C33.3019 26.1963 32.8474 27.185 32.457 28.2107C32.0666 29.2363 31.7415 30.2977 31.4816 31.395Z" fill="#DBD7E9"/>
</svg>
