<svg width="74" height="74" viewBox="0 0 74 74" fill="none" xmlns="http://www.w3.org/2000/svg">
<path fill-rule="evenodd" clip-rule="evenodd" d="M37 74C57.4345 74 74 57.4345 74 37C74 16.5655 57.4345 0 37 0C16.5655 0 0 16.5655 0 37C0 57.4345 16.5655 74 37 74ZM43.8248 20.1818H29.8388C27.2776 20.1818 24.8213 21.1992 23.0103 23.0103C21.1992 24.8213 20.1818 27.2776 20.1818 29.8388V43.8248C20.1818 49.1528 24.5108 53.4818 29.8388 53.4818H43.8248C46.386 53.4818 48.8423 52.4644 50.6533 50.6533C52.4644 48.8423 53.4818 46.386 53.4818 43.8248V29.8388C53.4818 24.5108 49.1528 20.1818 43.8248 20.1818ZM25.2674 25.2674C26.3915 24.1433 27.9161 23.5118 29.5058 23.5118H44.1578C47.4712 23.5118 50.1518 26.1925 50.1518 29.5058V44.1578C50.1518 45.7475 49.5203 47.2721 48.3962 48.3962C47.2721 49.5203 45.7475 50.1518 44.1578 50.1518H29.5058C26.1925 50.1518 23.5118 47.4712 23.5118 44.1578V29.5058C23.5118 27.9161 24.1433 26.3915 25.2674 25.2674ZM47.0447 26.6189C46.6544 26.2286 46.125 26.0093 45.5731 26.0093C45.0211 26.0093 44.4917 26.2286 44.1014 26.6189C43.7111 27.0092 43.4918 27.5386 43.4918 28.0906C43.4918 28.6425 43.7111 29.1719 44.1014 29.5622C44.4917 29.9525 45.0211 30.1718 45.5731 30.1718C46.125 30.1718 46.6544 29.9525 47.0447 29.5622C47.435 29.1719 47.6543 28.6425 47.6543 28.0906C47.6543 27.5386 47.435 27.0092 47.0447 26.6189ZM42.7185 30.9452C41.1572 29.3839 39.0397 28.5068 36.8318 28.5068C34.6239 28.5068 32.5064 29.3839 30.9452 30.9452C29.3839 32.5064 28.5068 34.6239 28.5068 36.8318C28.5068 39.0397 29.3839 41.1572 30.9452 42.7185C32.5064 44.2797 34.6239 45.1568 36.8318 45.1568C39.0397 45.1568 41.1572 44.2797 42.7185 42.7185C44.2797 41.1572 45.1568 39.0397 45.1568 36.8318C45.1568 34.6239 44.2797 32.5064 42.7185 30.9452ZM33.2998 33.2998C34.2366 32.3631 35.5071 31.8368 36.8318 31.8368C38.1566 31.8368 39.4271 32.3631 40.3638 33.2998C41.3006 34.2366 41.8268 35.5071 41.8268 36.8318C41.8268 38.1566 41.3006 39.4271 40.3638 40.3638C39.4271 41.3006 38.1566 41.8268 36.8318 41.8268C35.5071 41.8268 34.2366 41.3006 33.2998 40.3638C32.3631 39.4271 31.8368 38.1566 31.8368 36.8318C31.8368 35.5071 32.3631 34.2366 33.2998 33.2998Z" fill="#161719"/>
</svg>
