<svg width="341" height="251" viewBox="0 0 341 251" fill="none" xmlns="http://www.w3.org/2000/svg">
<path d="M1.56 24C1.56 21.312 1.56 18.592 1.56 15.84C1.56 13.088 1.56 10.368 1.56 7.68C2.264 7.68 2.968 7.68 3.672 7.68C4.376 7.68 5.072 7.68 5.76 7.68C5.76 8.72 5.76 9.776 5.76 10.848C5.76 11.904 5.76 12.952 5.76 13.992C6.576 12.952 7.392 11.904 8.208 10.848C9.04 9.776 9.864 8.72 10.68 7.68C11.464 7.68 12.256 7.68 13.056 7.68C13.856 7.68 14.648 7.68 15.432 7.68C14.424 8.96 13.4 10.256 12.36 11.568C11.336 12.864 10.32 14.152 9.312 15.432C10.368 16.84 11.432 18.264 12.504 19.704C13.592 21.144 14.664 22.576 15.72 24C14.888 24 14.048 24 13.2 24C12.368 24 11.536 24 10.704 24C9.888 22.864 9.064 21.728 8.232 20.592C7.4 19.44 6.576 18.304 5.76 17.184C5.76 18.304 5.76 19.44 5.76 20.592C5.76 21.728 5.76 22.864 5.76 24C5.072 24 4.376 24 3.672 24C2.968 24 2.264 24 1.56 24ZM23.5742 24.384C22.4062 24.384 21.3262 24.176 20.3342 23.76C19.3422 23.328 18.4862 22.728 17.7662 21.96C17.0462 21.192 16.4862 20.288 16.0862 19.248C15.6862 18.192 15.4862 17.048 15.4862 15.816C15.4862 14.584 15.6862 13.448 16.0862 12.408C16.4862 11.368 17.0462 10.472 17.7662 9.72C18.4862 8.952 19.3422 8.36 20.3342 7.944C21.3262 7.512 22.4062 7.296 23.5742 7.296C24.7422 7.296 25.8142 7.512 26.7902 7.944C27.7822 8.36 28.6382 8.952 29.3582 9.72C30.0942 10.472 30.6622 11.368 31.0622 12.408C31.4622 13.448 31.6622 14.584 31.6622 15.816C31.6622 17.048 31.4622 18.192 31.0622 19.248C30.6622 20.288 30.0942 21.192 29.3582 21.96C28.6382 22.728 27.7822 23.328 26.7902 23.76C25.8142 24.176 24.7422 24.384 23.5742 24.384ZM23.5742 20.496C24.3582 20.496 25.0302 20.304 25.5902 19.92C26.1502 19.52 26.5822 18.968 26.8862 18.264C27.2062 17.56 27.3662 16.744 27.3662 15.816C27.3662 14.888 27.2062 14.08 26.8862 13.392C26.5822 12.704 26.1502 12.168 25.5902 11.784C25.0302 11.384 24.3582 11.184 23.5742 11.184C22.8062 11.184 22.1342 11.376 21.5582 11.76C20.9982 12.144 20.5582 12.688 20.2382 13.392C19.9342 14.08 19.7822 14.888 19.7822 15.816C19.7822 16.744 19.9342 17.56 20.2382 18.264C20.5582 18.968 20.9982 19.52 21.5582 19.92C22.1342 20.304 22.8062 20.496 23.5742 20.496ZM33.9741 24C33.9741 21.312 33.9741 18.592 33.9741 15.84C33.9741 13.088 33.9741 10.368 33.9741 7.68C34.9661 7.68 35.9661 7.68 36.9741 7.68C37.9821 7.68 38.9821 7.68 39.9741 7.68C40.4381 9.312 40.8941 10.968 41.3421 12.648C41.8061 14.312 42.2621 15.96 42.7101 17.592C43.1581 15.96 43.6061 14.312 44.0541 12.648C44.5181 10.968 44.9741 9.312 45.4221 7.68C46.4141 7.68 47.4061 7.68 48.3981 7.68C49.3901 7.68 50.3741 7.68 51.3501 7.68C51.3661 10.368 51.3821 13.088 51.3981 15.84C51.4141 18.592 51.4301 21.312 51.4461 24C50.7741 24 50.0941 24 49.4061 24C48.7341 24 48.0621 24 47.3901 24C47.3901 22.176 47.3901 20.336 47.3901 18.48C47.3901 16.608 47.3901 14.76 47.3901 12.936C46.9101 14.76 46.4221 16.608 45.9261 18.48C45.4301 20.336 44.9421 22.176 44.4621 24C43.8701 24 43.2621 24 42.6381 24C42.0301 24 41.4221 24 40.8141 24C40.3341 22.208 39.8541 20.4 39.3741 18.576C38.8941 16.736 38.4141 14.92 37.9341 13.128C37.9341 14.92 37.9341 16.736 37.9341 18.576C37.9341 20.4 37.9341 22.208 37.9341 24C37.2941 24 36.6381 24 35.9661 24C35.2941 24 34.6301 24 33.9741 24ZM54.5756 24C54.5756 21.312 54.5756 18.592 54.5756 15.84C54.5756 13.088 54.5756 10.368 54.5756 7.68C55.5676 7.68 56.5596 7.68 57.5516 7.68C58.5596 7.68 59.5516 7.68 60.5276 7.68C61.7596 7.68 62.8316 7.92 63.7436 8.4C64.6556 8.864 65.3676 9.52 65.8796 10.368C66.3916 11.216 66.6476 12.208 66.6476 13.344C66.6476 14.464 66.3916 15.448 65.8796 16.296C65.3836 17.144 64.6956 17.8 63.8156 18.264C62.9516 18.728 61.9676 18.96 60.8636 18.96C60.5116 18.96 60.1596 18.96 59.8076 18.96C59.4716 18.96 59.1276 18.96 58.7756 18.96C58.7756 19.792 58.7756 20.632 58.7756 21.48C58.7756 22.328 58.7756 23.168 58.7756 24C58.0876 24 57.3916 24 56.6876 24C55.9836 24 55.2796 24 54.5756 24ZM60.5276 11.448C60.2396 11.448 59.9436 11.448 59.6396 11.448C59.3516 11.448 59.0636 11.448 58.7756 11.448C58.7756 12.088 58.7756 12.736 58.7756 13.392C58.7756 14.032 58.7756 14.672 58.7756 15.312C59.0956 15.312 59.4236 15.312 59.7596 15.312C60.1116 15.312 60.4476 15.312 60.7676 15.312C61.2636 15.312 61.6636 15.128 61.9676 14.76C62.2876 14.392 62.4476 13.936 62.4476 13.392C62.4476 12.832 62.2796 12.368 61.9436 12C61.6076 11.632 61.1356 11.448 60.5276 11.448ZM68.8022 24C68.8022 21.312 68.8022 18.592 68.8022 15.84C68.8022 13.088 68.8022 10.368 68.8022 7.68C70.4182 7.68 72.0502 7.68 73.6982 7.68C75.3462 7.68 76.9782 7.68 78.5942 7.68C78.5942 8.288 78.5942 8.912 78.5942 9.552C78.5942 10.192 78.5942 10.816 78.5942 11.424C77.6662 11.424 76.7302 11.424 75.7862 11.424C74.8582 11.424 73.9302 11.424 73.0022 11.424C73.0022 11.824 73.0022 12.224 73.0022 12.624C73.0022 13.008 73.0022 13.4 73.0022 13.8C73.8502 13.8 74.7062 13.8 75.5702 13.8C76.4342 13.8 77.2822 13.8 78.1142 13.8C78.1142 14.392 78.1142 14.992 78.1142 15.6C78.1142 16.208 78.1142 16.816 78.1142 17.424C77.2822 17.424 76.4342 17.424 75.5702 17.424C74.7062 17.424 73.8502 17.424 73.0022 17.424C73.0022 17.888 73.0022 18.36 73.0022 18.84C73.0022 19.32 73.0022 19.792 73.0022 20.256C73.9302 20.256 74.8582 20.256 75.7862 20.256C76.7302 20.256 77.6662 20.256 78.5942 20.256C78.5942 20.864 78.5942 21.488 78.5942 22.128C78.5942 22.768 78.5942 23.392 78.5942 24C76.9782 24 75.3462 24 73.6982 24C72.0502 24 70.4182 24 68.8022 24ZM84.3379 24C84.3379 21.936 84.3379 19.856 84.3379 17.76C84.3379 15.648 84.3379 13.56 84.3379 11.496C83.7299 11.496 83.1139 11.496 82.4899 11.496C81.8659 11.496 81.2499 11.496 80.6419 11.496C80.6419 10.872 80.6419 10.24 80.6419 9.6C80.6419 8.944 80.6419 8.304 80.6419 7.68C82.5459 7.68 84.4739 7.68 86.4259 7.68C88.3779 7.68 90.3059 7.68 92.2099 7.68C92.2099 8.304 92.2099 8.944 92.2099 9.6C92.2099 10.24 92.2099 10.872 92.2099 11.496C91.6179 11.496 91.0099 11.496 90.3859 11.496C89.7619 11.496 89.1459 11.496 88.5379 11.496C88.5379 13.56 88.5379 15.648 88.5379 17.76C88.5379 19.856 88.5379 21.936 88.5379 24C87.8499 24 87.1539 24 86.4499 24C85.7459 24 85.0419 24 84.3379 24ZM94.4897 24C94.4897 21.312 94.4897 18.592 94.4897 15.84C94.4897 13.088 94.4897 10.368 94.4897 7.68C96.1057 7.68 97.7377 7.68 99.3857 7.68C101.034 7.68 102.666 7.68 104.282 7.68C104.282 8.288 104.282 8.912 104.282 9.552C104.282 10.192 104.282 10.816 104.282 11.424C103.354 11.424 102.418 11.424 101.474 11.424C100.546 11.424 99.6177 11.424 98.6897 11.424C98.6897 11.824 98.6897 12.224 98.6897 12.624C98.6897 13.008 98.6897 13.4 98.6897 13.8C99.5377 13.8 100.394 13.8 101.258 13.8C102.122 13.8 102.97 13.8 103.802 13.8C103.802 14.392 103.802 14.992 103.802 15.6C103.802 16.208 103.802 16.816 103.802 17.424C102.97 17.424 102.122 17.424 101.258 17.424C100.394 17.424 99.5377 17.424 98.6897 17.424C98.6897 17.888 98.6897 18.36 98.6897 18.84C98.6897 19.32 98.6897 19.792 98.6897 20.256C99.6177 20.256 100.546 20.256 101.474 20.256C102.418 20.256 103.354 20.256 104.282 20.256C104.282 20.864 104.282 21.488 104.282 22.128C104.282 22.768 104.282 23.392 104.282 24C102.666 24 101.034 24 99.3857 24C97.7377 24 96.1057 24 94.4897 24ZM107.169 24C107.169 21.312 107.169 18.592 107.169 15.84C107.169 13.088 107.169 10.368 107.169 7.68C107.873 7.68 108.577 7.68 109.281 7.68C110.001 7.68 110.705 7.68 111.393 7.68C112.241 9.2 113.097 10.736 113.961 12.288C114.841 13.84 115.705 15.376 116.553 16.896C116.553 15.376 116.553 13.84 116.553 12.288C116.553 10.736 116.553 9.2 116.553 7.68C117.241 7.68 117.929 7.68 118.617 7.68C119.305 7.68 119.993 7.68 120.681 7.68C120.681 10.368 120.681 13.088 120.681 15.84C120.681 18.592 120.681 21.312 120.681 24C119.993 24 119.289 24 118.569 24C117.865 24 117.161 24 116.457 24C115.609 22.48 114.745 20.944 113.865 19.392C113.001 17.84 112.145 16.304 111.297 14.784C111.297 16.304 111.297 17.84 111.297 19.392C111.297 20.944 111.297 22.48 111.297 24C110.609 24 109.921 24 109.233 24C108.545 24 107.857 24 107.169 24ZM122.994 15.84C122.994 14.608 123.186 13.488 123.57 12.48C123.97 11.456 124.53 10.568 125.25 9.816C125.97 9.064 126.834 8.48 127.842 8.064C128.85 7.648 129.962 7.424 131.178 7.392C132.41 7.36 133.722 7.552 135.114 7.968C135.114 8.64 135.114 9.32 135.114 10.008C135.114 10.68 135.114 11.352 135.114 12.024C134.17 11.576 133.234 11.32 132.306 11.256C131.378 11.192 130.538 11.32 129.786 11.64C129.034 11.96 128.434 12.472 127.986 13.176C127.538 13.864 127.314 14.752 127.314 15.84C127.314 16.928 127.538 17.824 127.986 18.528C128.434 19.216 129.034 19.72 129.786 20.04C130.538 20.36 131.378 20.488 132.306 20.424C133.234 20.36 134.17 20.104 135.114 19.656C135.114 20.328 135.114 21.008 135.114 21.696C135.114 22.368 135.114 23.04 135.114 23.712C133.722 24.128 132.41 24.32 131.178 24.288C129.962 24.256 128.85 24.032 127.842 23.616C126.834 23.2 125.97 22.616 125.25 21.864C124.53 21.112 123.97 20.232 123.57 19.224C123.186 18.2 122.994 17.072 122.994 15.84ZM137.873 24C137.873 21.312 137.873 18.592 137.873 15.84C137.873 13.088 137.873 10.368 137.873 7.68C139.489 7.68 141.121 7.68 142.769 7.68C144.417 7.68 146.049 7.68 147.665 7.68C147.665 8.288 147.665 8.912 147.665 9.552C147.665 10.192 147.665 10.816 147.665 11.424C146.737 11.424 145.801 11.424 144.857 11.424C143.929 11.424 143.001 11.424 142.073 11.424C142.073 11.824 142.073 12.224 142.073 12.624C142.073 13.008 142.073 13.4 142.073 13.8C142.921 13.8 143.777 13.8 144.641 13.8C145.505 13.8 146.353 13.8 147.185 13.8C147.185 14.392 147.185 14.992 147.185 15.6C147.185 16.208 147.185 16.816 147.185 17.424C146.353 17.424 145.505 17.424 144.641 17.424C143.777 17.424 142.921 17.424 142.073 17.424C142.073 17.888 142.073 18.36 142.073 18.84C142.073 19.32 142.073 19.792 142.073 20.256C143.001 20.256 143.929 20.256 144.857 20.256C145.801 20.256 146.737 20.256 147.665 20.256C147.665 20.864 147.665 21.488 147.665 22.128C147.665 22.768 147.665 23.392 147.665 24C146.049 24 144.417 24 142.769 24C141.121 24 139.489 24 137.873 24ZM150.552 24C150.552 21.312 150.552 18.592 150.552 15.84C150.552 13.088 150.552 10.368 150.552 7.68C151.512 7.68 152.472 7.68 153.432 7.68C154.408 7.68 155.376 7.68 156.336 7.68C157.552 7.68 158.616 7.912 159.528 8.376C160.44 8.824 161.144 9.464 161.64 10.296C162.152 11.112 162.408 12.072 162.408 13.176C162.408 14.12 162.216 14.96 161.832 15.696C161.448 16.432 160.928 17.032 160.272 17.496C160.912 18.568 161.552 19.656 162.192 20.76C162.848 21.848 163.496 22.928 164.136 24C163.352 24 162.568 24 161.784 24C161 24 160.216 24 159.432 24C158.936 23.104 158.432 22.192 157.92 21.264C157.424 20.336 156.92 19.424 156.408 18.528C156.136 18.528 155.856 18.528 155.568 18.528C155.296 18.528 155.024 18.528 154.752 18.528C154.752 19.424 154.752 20.336 154.752 21.264C154.752 22.192 154.752 23.104 154.752 24C154.064 24 153.368 24 152.664 24C151.96 24 151.256 24 150.552 24ZM156.336 11.472C156.08 11.472 155.816 11.472 155.544 11.472C155.288 11.472 155.024 11.472 154.752 11.472C154.752 12.064 154.752 12.656 154.752 13.248C154.752 13.84 154.752 14.432 154.752 15.024C155.056 15.024 155.36 15.024 155.664 15.024C155.968 15.024 156.272 15.024 156.576 15.024C157.056 15.024 157.448 14.856 157.752 14.52C158.056 14.168 158.208 13.744 158.208 13.248C158.208 12.736 158.04 12.312 157.704 11.976C157.384 11.64 156.928 11.472 156.336 11.472Z" fill="#161719"/>
<path d="M14 38C21.732 38 28 44.268 28 52C28 59.732 21.732 66 14 66C6.26801 66 0 59.732 0 52C0 44.268 6.26801 38 14 38ZM10.9619 43C10.1787 43.0221 9.43537 43.3306 8.88965 43.8594C8.34391 44.3882 8.03809 45.0961 8.03809 45.833C8.03811 46.5699 8.34394 47.2778 8.88965 47.8066C9.43536 48.3354 10.1787 48.6439 10.9619 48.666C10.1718 48.6789 9.41817 48.9827 8.86426 49.5127C8.31033 50.0427 8 50.7568 8 51.5C8.00012 52.243 8.31044 52.9564 8.86426 53.4863C9.41818 54.0163 10.1718 54.3201 10.9619 54.333C10.1757 54.3511 9.42721 54.6581 8.87793 55.1875C8.32885 55.7168 8.02148 56.4275 8.02148 57.167C8.02157 57.9065 8.32873 58.6172 8.87793 59.1465C9.42721 59.6759 10.1757 59.9819 10.9619 60C11.7608 59.9994 12.527 59.7003 13.0918 59.1689C13.6565 58.6376 13.9743 57.9173 13.9746 57.166V48.666H16.9873C17.7705 48.6439 18.5139 48.3355 19.0596 47.8066C19.6052 47.2778 19.9101 46.5699 19.9102 45.833C19.9102 45.0962 19.6052 44.3882 19.0596 43.8594C18.5139 43.3306 17.7705 43.0222 16.9873 43H10.9619ZM16.9873 48.666C15.3235 48.666 13.9748 49.9344 13.9746 51.499C13.9746 53.0638 15.3234 54.333 16.9873 54.333C18.6512 54.3329 20 53.0638 20 51.499C19.9998 49.9344 18.651 48.6661 16.9873 48.666Z" fill="#B44E9E"/>
<g clip-path="url(#clip0_9_682)">
<path d="M38 39H280V66H38V39Z" fill="#B44E9E"/>
</g>
<rect x="38.5" y="39" width="133" height="26" stroke="#B44E9E"/>
<path d="M189.536 46.848V48.032H184.688V51.792H188.624V52.976H184.688V58H183.232V46.848H189.536ZM192.047 47.808C191.769 47.808 191.535 47.712 191.343 47.52C191.151 47.328 191.055 47.0933 191.055 46.816C191.055 46.5387 191.151 46.304 191.343 46.112C191.535 45.92 191.769 45.824 192.047 45.824C192.313 45.824 192.537 45.92 192.719 46.112C192.911 46.304 193.007 46.5387 193.007 46.816C193.007 47.0933 192.911 47.328 192.719 47.52C192.537 47.712 192.313 47.808 192.047 47.808ZM192.751 49.232V58H191.295V49.232H192.751ZM198.848 49.088C199.605 49.088 200.267 49.2533 200.832 49.584C201.408 49.9147 201.835 50.3307 202.112 50.832V49.232H203.584V58.192C203.584 58.992 203.413 59.7013 203.072 60.32C202.731 60.9493 202.24 61.44 201.6 61.792C200.971 62.144 200.235 62.32 199.392 62.32C198.24 62.32 197.28 62.048 196.512 61.504C195.744 60.96 195.291 60.2187 195.152 59.28H196.592C196.752 59.8133 197.083 60.24 197.584 60.56C198.085 60.8907 198.688 61.056 199.392 61.056C200.192 61.056 200.843 60.8053 201.344 60.304C201.856 59.8027 202.112 59.0987 202.112 58.192V56.352C201.824 56.864 201.397 57.2907 200.832 57.632C200.267 57.9733 199.605 58.144 198.848 58.144C198.069 58.144 197.36 57.952 196.72 57.568C196.091 57.184 195.595 56.6453 195.232 55.952C194.869 55.2587 194.688 54.4693 194.688 53.584C194.688 52.688 194.869 51.904 195.232 51.232C195.595 50.5493 196.091 50.0213 196.72 49.648C197.36 49.2747 198.069 49.088 198.848 49.088ZM202.112 53.6C202.112 52.9387 201.979 52.3627 201.712 51.872C201.445 51.3813 201.083 51.008 200.624 50.752C200.176 50.4853 199.68 50.352 199.136 50.352C198.592 50.352 198.096 50.48 197.648 50.736C197.2 50.992 196.843 51.3653 196.576 51.856C196.309 52.3467 196.176 52.9227 196.176 53.584C196.176 54.256 196.309 54.8427 196.576 55.344C196.843 55.8347 197.2 56.2133 197.648 56.48C198.096 56.736 198.592 56.864 199.136 56.864C199.68 56.864 200.176 56.736 200.624 56.48C201.083 56.2133 201.445 55.8347 201.712 55.344C201.979 54.8427 202.112 54.2613 202.112 53.6ZM216.589 49.072C217.271 49.072 217.879 49.216 218.413 49.504C218.946 49.7813 219.367 50.2027 219.677 50.768C219.986 51.3333 220.141 52.0213 220.141 52.832V58H218.701V53.04C218.701 52.1653 218.482 51.4987 218.045 51.04C217.618 50.5707 217.037 50.336 216.301 50.336C215.543 50.336 214.941 50.5813 214.493 51.072C214.045 51.552 213.821 52.2507 213.821 53.168V58H212.381V53.04C212.381 52.1653 212.162 51.4987 211.725 51.04C211.298 50.5707 210.717 50.336 209.981 50.336C209.223 50.336 208.621 50.5813 208.173 51.072C207.725 51.552 207.501 52.2507 207.501 53.168V58H206.045V49.232H207.501V50.496C207.789 50.0373 208.173 49.6853 208.653 49.44C209.143 49.1947 209.682 49.072 210.269 49.072C211.005 49.072 211.655 49.2373 212.221 49.568C212.786 49.8987 213.207 50.384 213.485 51.024C213.73 50.4053 214.135 49.9253 214.701 49.584C215.266 49.2427 215.895 49.072 216.589 49.072ZM221.985 53.584C221.985 52.688 222.166 51.904 222.529 51.232C222.892 50.5493 223.388 50.0213 224.017 49.648C224.657 49.2747 225.366 49.088 226.145 49.088C226.913 49.088 227.58 49.2533 228.145 49.584C228.71 49.9147 229.132 50.3307 229.409 50.832V49.232H230.881V58H229.409V56.368C229.121 56.88 228.689 57.3067 228.113 57.648C227.548 57.9787 226.886 58.144 226.129 58.144C225.35 58.144 224.646 57.952 224.017 57.568C223.388 57.184 222.892 56.6453 222.529 55.952C222.166 55.2587 221.985 54.4693 221.985 53.584ZM229.409 53.6C229.409 52.9387 229.276 52.3627 229.009 51.872C228.742 51.3813 228.38 51.008 227.921 50.752C227.473 50.4853 226.977 50.352 226.433 50.352C225.889 50.352 225.393 50.48 224.945 50.736C224.497 50.992 224.14 51.3653 223.873 51.856C223.606 52.3467 223.473 52.9227 223.473 53.584C223.473 54.256 223.606 54.8427 223.873 55.344C224.14 55.8347 224.497 56.2133 224.945 56.48C225.393 56.736 225.889 56.864 226.433 56.864C226.977 56.864 227.473 56.736 227.921 56.48C228.38 56.2133 228.742 55.8347 229.009 55.344C229.276 54.8427 229.409 54.2613 229.409 53.6Z" fill="#1E1E1E"/>
<path d="M14 75C21.732 75 28 81.268 28 89C28 96.732 21.732 103 14 103C6.26801 103 0 96.732 0 89C0 81.268 6.26801 75 14 75ZM10.7002 79.9121L6.66895 91H8.20508L9.10059 88.5195H13.9648L14.8604 91H16.3965L12.3809 79.9121H10.7002ZM18.1543 82.2324V91H19.6104V82.2324H18.1543ZM13.5488 87.3359H9.5166L11.5322 81.7041L13.5488 87.3359ZM18.9062 78.8242C18.6289 78.8242 18.3941 78.9203 18.2021 79.1123C18.0102 79.3043 17.9141 79.5391 17.9141 79.8164C17.9142 80.0935 18.0103 80.3276 18.2021 80.5195C18.3941 80.7115 18.6289 80.8076 18.9062 80.8076C19.1728 80.8075 19.3969 80.7114 19.5781 80.5195C19.7698 80.3277 19.8661 80.0934 19.8662 79.8164C19.8662 79.5392 19.7699 79.3043 19.5781 79.1123C19.3969 78.9204 19.1728 78.8243 18.9062 78.8242Z" fill="#B44E9E"/>
<g clip-path="url(#clip1_9_682)">
<rect x="38" y="76" width="105" height="27" fill="#B44E9E"/>
</g>
<rect x="38.5" y="76" width="133" height="26" stroke="#B44E9E"/>
<path d="M184.688 83.848V95H183.232V83.848H184.688ZM188.626 83.16V95H187.17V83.16H188.626ZM192.563 83.16V95H191.107V83.16H192.563ZM202.821 86.232V95H201.365V93.704C201.087 94.152 200.698 94.504 200.197 94.76C199.706 95.0053 199.162 95.128 198.565 95.128C197.882 95.128 197.269 94.9893 196.725 94.712C196.181 94.424 195.749 93.9973 195.429 93.432C195.119 92.8667 194.965 92.1787 194.965 91.368V86.232H196.405V91.176C196.405 92.04 196.623 92.7067 197.061 93.176C197.498 93.6347 198.095 93.864 198.853 93.864C199.631 93.864 200.245 93.624 200.693 93.144C201.141 92.664 201.365 91.9653 201.365 91.048V86.232H202.821ZM208.383 95.144C207.711 95.144 207.108 95.032 206.575 94.808C206.042 94.5733 205.62 94.2533 205.311 93.848C205.002 93.432 204.831 92.9573 204.799 92.424H206.303C206.346 92.8613 206.548 93.2187 206.911 93.496C207.284 93.7733 207.77 93.912 208.367 93.912C208.922 93.912 209.359 93.7893 209.679 93.544C209.999 93.2987 210.159 92.9893 210.159 92.616C210.159 92.232 209.988 91.9493 209.647 91.768C209.306 91.576 208.778 91.3893 208.063 91.208C207.412 91.0373 206.879 90.8667 206.463 90.696C206.058 90.5147 205.706 90.2533 205.407 89.912C205.119 89.56 204.975 89.1013 204.975 88.536C204.975 88.088 205.108 87.6773 205.375 87.304C205.642 86.9307 206.02 86.6373 206.511 86.424C207.002 86.2 207.562 86.088 208.191 86.088C209.162 86.088 209.946 86.3333 210.543 86.824C211.14 87.3147 211.46 87.9867 211.503 88.84H210.047C210.015 88.3813 209.828 88.0133 209.487 87.736C209.156 87.4587 208.708 87.32 208.143 87.32C207.62 87.32 207.204 87.432 206.895 87.656C206.586 87.88 206.431 88.1733 206.431 88.536C206.431 88.824 206.522 89.064 206.703 89.256C206.895 89.4373 207.13 89.5867 207.407 89.704C207.695 89.8107 208.09 89.9333 208.591 90.072C209.22 90.2427 209.732 90.4133 210.127 90.584C210.522 90.744 210.858 90.9893 211.135 91.32C211.423 91.6507 211.572 92.0827 211.583 92.616C211.583 93.096 211.45 93.528 211.183 93.912C210.916 94.296 210.538 94.6 210.047 94.824C209.567 95.0373 209.012 95.144 208.383 95.144ZM215.414 87.432V92.6C215.414 93.0267 215.505 93.3307 215.686 93.512C215.868 93.6827 216.182 93.768 216.63 93.768H217.702V95H216.39C215.58 95 214.972 94.8133 214.566 94.44C214.161 94.0667 213.958 93.4533 213.958 92.6V87.432H212.822V86.232H213.958V84.024H215.414V86.232H217.702V87.432H215.414ZM220.922 87.656C221.178 87.1547 221.541 86.7653 222.01 86.488C222.49 86.2107 223.072 86.072 223.754 86.072V87.576H223.37C221.738 87.576 220.922 88.4613 220.922 90.232V95H219.466V86.232H220.922V87.656ZM224.891 90.584C224.891 89.688 225.072 88.904 225.435 88.232C225.798 87.5493 226.294 87.0213 226.923 86.648C227.563 86.2747 228.272 86.088 229.051 86.088C229.819 86.088 230.486 86.2533 231.051 86.584C231.616 86.9147 232.038 87.3307 232.315 87.832V86.232H233.787V95H232.315V93.368C232.027 93.88 231.595 94.3067 231.019 94.648C230.454 94.9787 229.792 95.144 229.035 95.144C228.256 95.144 227.552 94.952 226.923 94.568C226.294 94.184 225.798 93.6453 225.435 92.952C225.072 92.2587 224.891 91.4693 224.891 90.584ZM232.315 90.6C232.315 89.9387 232.182 89.3627 231.915 88.872C231.648 88.3813 231.286 88.008 230.827 87.752C230.379 87.4853 229.883 87.352 229.339 87.352C228.795 87.352 228.299 87.48 227.851 87.736C227.403 87.992 227.046 88.3653 226.779 88.856C226.512 89.3467 226.379 89.9227 226.379 90.584C226.379 91.256 226.512 91.8427 226.779 92.344C227.046 92.8347 227.403 93.2133 227.851 93.48C228.299 93.736 228.795 93.864 229.339 93.864C229.883 93.864 230.379 93.736 230.827 93.48C231.286 93.2133 231.648 92.8347 231.915 92.344C232.182 91.8427 232.315 91.2613 232.315 90.6ZM238.024 87.432V92.6C238.024 93.0267 238.114 93.3307 238.296 93.512C238.477 93.6827 238.792 93.768 239.24 93.768H240.312V95H239C238.189 95 237.581 94.8133 237.176 94.44C236.77 94.0667 236.568 93.4533 236.568 92.6V87.432H235.432V86.232H236.568V84.024H238.024V86.232H240.312V87.432H238.024ZM245.9 95.144C245.078 95.144 244.332 94.9573 243.66 94.584C242.998 94.2107 242.476 93.6827 242.092 93C241.718 92.3067 241.532 91.5067 241.532 90.6C241.532 89.704 241.724 88.9147 242.108 88.232C242.502 87.5387 243.036 87.0107 243.708 86.648C244.38 86.2747 245.132 86.088 245.964 86.088C246.796 86.088 247.548 86.2747 248.22 86.648C248.892 87.0107 249.42 87.5333 249.804 88.216C250.198 88.8987 250.396 89.6933 250.396 90.6C250.396 91.5067 250.193 92.3067 249.788 93C249.393 93.6827 248.854 94.2107 248.172 94.584C247.489 94.9573 246.732 95.144 245.9 95.144ZM245.9 93.864C246.422 93.864 246.913 93.7413 247.372 93.496C247.83 93.2507 248.198 92.8827 248.476 92.392C248.764 91.9013 248.908 91.304 248.908 90.6C248.908 89.896 248.769 89.2987 248.492 88.808C248.214 88.3173 247.852 87.9547 247.404 87.72C246.956 87.4747 246.47 87.352 245.948 87.352C245.414 87.352 244.924 87.4747 244.476 87.72C244.038 87.9547 243.686 88.3173 243.42 88.808C243.153 89.2987 243.02 89.896 243.02 90.6C243.02 91.3147 243.148 91.9173 243.404 92.408C243.67 92.8987 244.022 93.2667 244.46 93.512C244.897 93.7467 245.377 93.864 245.9 93.864ZM253.766 87.656C254.022 87.1547 254.385 86.7653 254.854 86.488C255.334 86.2107 255.915 86.072 256.598 86.072V87.576H256.214C254.582 87.576 253.766 88.4613 253.766 90.232V95H252.31V86.232H253.766V87.656Z" fill="#1E1E1E"/>
<path d="M14 112C21.732 112 28 118.268 28 126C28 133.732 21.732 140 14 140C6.26801 140 0 133.732 0 126C0 118.268 6.26801 112 14 112ZM18.5967 120.088C17.9675 120.088 17.4075 120.2 16.917 120.424C16.4265 120.637 16.0479 120.931 15.7812 121.304C15.5146 121.677 15.3809 122.088 15.3809 122.536C15.3809 123.101 15.5255 123.56 15.8135 123.912C16.1121 124.253 16.4639 124.515 16.8691 124.696C17.285 124.867 17.8183 125.037 18.4688 125.208C19.1831 125.389 19.7114 125.576 20.0527 125.768C20.3941 125.949 20.5654 126.232 20.5654 126.616C20.5654 126.989 20.4049 127.299 20.085 127.544C19.765 127.789 19.3279 127.912 18.7734 127.912C18.1762 127.912 17.6907 127.773 17.3174 127.496C16.9547 127.219 16.7517 126.861 16.709 126.424H15.2051C15.2371 126.957 15.4076 127.432 15.7168 127.848C16.0261 128.253 16.4481 128.573 16.9814 128.808C17.5147 129.032 18.1171 129.144 18.7891 129.144C19.4184 129.144 19.9731 129.038 20.4531 128.824C20.9437 128.6 21.3222 128.296 21.5889 127.912C21.8555 127.528 21.9892 127.096 21.9893 126.616C21.9786 126.083 21.8289 125.651 21.541 125.32C21.2637 124.99 20.9278 124.744 20.5332 124.584C20.1385 124.413 19.6264 124.243 18.9971 124.072C18.4959 123.934 18.1014 123.811 17.8135 123.704C17.5362 123.587 17.3014 123.437 17.1094 123.256C16.9281 123.064 16.8369 122.824 16.8369 122.536C16.8369 122.174 16.9917 121.88 17.3008 121.656C17.6101 121.432 18.0263 121.32 18.5488 121.32C19.1142 121.32 19.5629 121.459 19.8936 121.736C20.2346 122.014 20.4211 122.381 20.4531 122.84H21.9092C21.8665 121.987 21.5464 121.315 20.9492 120.824C20.3519 120.334 19.5673 120.088 18.5967 120.088ZM6.41992 117.848V129H7.87598V124.344H10.0195C11.3208 124.344 12.2857 124.04 12.915 123.432C13.555 122.813 13.8759 122.04 13.876 121.112C13.876 120.152 13.5451 119.368 12.8838 118.76C12.2331 118.152 11.2782 117.848 10.0195 117.848H6.41992ZM10.0195 119.048C11.5982 119.048 12.3877 119.736 12.3877 121.112C12.3876 121.763 12.1955 122.264 11.8115 122.616C11.4275 122.968 10.8301 123.144 10.0195 123.144H7.87598V119.048H10.0195Z" fill="#B44E9E"/>
<g clip-path="url(#clip2_9_682)">
<rect x="38" y="113" width="111" height="27" fill="#B44E9E"/>
</g>
<rect x="38.5" y="113" width="133" height="26" stroke="#B44E9E"/>
<path d="M190.688 124.112C190.688 125.04 190.368 125.813 189.728 126.432C189.099 127.04 188.133 127.344 186.832 127.344H184.688V132H183.232V120.848H186.832C188.091 120.848 189.045 121.152 189.696 121.76C190.357 122.368 190.688 123.152 190.688 124.112ZM186.832 126.144C187.643 126.144 188.24 125.968 188.624 125.616C189.008 125.264 189.2 124.763 189.2 124.112C189.2 122.736 188.411 122.048 186.832 122.048H184.688V126.144H186.832ZM196.85 123.072C197.511 123.072 198.108 123.216 198.642 123.504C199.175 123.781 199.591 124.203 199.89 124.768C200.199 125.333 200.354 126.021 200.354 126.832V132H198.914V127.04C198.914 126.165 198.695 125.499 198.258 125.04C197.82 124.571 197.223 124.336 196.466 124.336C195.698 124.336 195.084 124.576 194.626 125.056C194.178 125.536 193.954 126.235 193.954 127.152V132H192.498V120.16H193.954V124.48C194.242 124.032 194.636 123.685 195.138 123.44C195.65 123.195 196.22 123.072 196.85 123.072ZM206.556 132.144C205.735 132.144 204.988 131.957 204.316 131.584C203.655 131.211 203.132 130.683 202.748 130C202.375 129.307 202.188 128.507 202.188 127.6C202.188 126.704 202.38 125.915 202.764 125.232C203.159 124.539 203.692 124.011 204.364 123.648C205.036 123.275 205.788 123.088 206.62 123.088C207.452 123.088 208.204 123.275 208.876 123.648C209.548 124.011 210.076 124.533 210.46 125.216C210.855 125.899 211.052 126.693 211.052 127.6C211.052 128.507 210.849 129.307 210.444 130C210.049 130.683 209.511 131.211 208.828 131.584C208.145 131.957 207.388 132.144 206.556 132.144ZM206.556 130.864C207.079 130.864 207.569 130.741 208.028 130.496C208.487 130.251 208.855 129.883 209.132 129.392C209.42 128.901 209.564 128.304 209.564 127.6C209.564 126.896 209.425 126.299 209.148 125.808C208.871 125.317 208.508 124.955 208.06 124.72C207.612 124.475 207.127 124.352 206.604 124.352C206.071 124.352 205.58 124.475 205.132 124.72C204.695 124.955 204.343 125.317 204.076 125.808C203.809 126.299 203.676 126.896 203.676 127.6C203.676 128.315 203.804 128.917 204.06 129.408C204.327 129.899 204.679 130.267 205.116 130.512C205.553 130.747 206.033 130.864 206.556 130.864ZM214.742 124.432V129.6C214.742 130.027 214.833 130.331 215.014 130.512C215.196 130.683 215.51 130.768 215.958 130.768H217.03V132H215.718C214.908 132 214.3 131.813 213.894 131.44C213.489 131.067 213.286 130.453 213.286 129.6V124.432H212.15V123.232H213.286V121.024H214.742V123.232H217.03V124.432H214.742ZM222.619 132.144C221.797 132.144 221.051 131.957 220.379 131.584C219.717 131.211 219.195 130.683 218.811 130C218.437 129.307 218.251 128.507 218.251 127.6C218.251 126.704 218.443 125.915 218.827 125.232C219.221 124.539 219.755 124.011 220.427 123.648C221.099 123.275 221.851 123.088 222.683 123.088C223.515 123.088 224.267 123.275 224.939 123.648C225.611 124.011 226.139 124.533 226.523 125.216C226.917 125.899 227.115 126.693 227.115 127.6C227.115 128.507 226.912 129.307 226.507 130C226.112 130.683 225.573 131.211 224.891 131.584C224.208 131.957 223.451 132.144 222.619 132.144ZM222.619 130.864C223.141 130.864 223.632 130.741 224.091 130.496C224.549 130.251 224.917 129.883 225.195 129.392C225.483 128.901 225.627 128.304 225.627 127.6C225.627 126.896 225.488 126.299 225.211 125.808C224.933 125.317 224.571 124.955 224.123 124.72C223.675 124.475 223.189 124.352 222.667 124.352C222.133 124.352 221.643 124.475 221.195 124.72C220.757 124.955 220.405 125.317 220.139 125.808C219.872 126.299 219.739 126.896 219.739 127.6C219.739 128.315 219.867 128.917 220.123 129.408C220.389 129.899 220.741 130.267 221.179 130.512C221.616 130.747 222.096 130.864 222.619 130.864ZM232.133 132.144C231.461 132.144 230.858 132.032 230.325 131.808C229.792 131.573 229.37 131.253 229.061 130.848C228.752 130.432 228.581 129.957 228.549 129.424H230.053C230.096 129.861 230.298 130.219 230.661 130.496C231.034 130.773 231.52 130.912 232.117 130.912C232.672 130.912 233.109 130.789 233.429 130.544C233.749 130.299 233.909 129.989 233.909 129.616C233.909 129.232 233.738 128.949 233.397 128.768C233.056 128.576 232.528 128.389 231.813 128.208C231.162 128.037 230.629 127.867 230.213 127.696C229.808 127.515 229.456 127.253 229.157 126.912C228.869 126.56 228.725 126.101 228.725 125.536C228.725 125.088 228.858 124.677 229.125 124.304C229.392 123.931 229.77 123.637 230.261 123.424C230.752 123.2 231.312 123.088 231.941 123.088C232.912 123.088 233.696 123.333 234.293 123.824C234.89 124.315 235.21 124.987 235.253 125.84H233.797C233.765 125.381 233.578 125.013 233.237 124.736C232.906 124.459 232.458 124.32 231.893 124.32C231.37 124.32 230.954 124.432 230.645 124.656C230.336 124.88 230.181 125.173 230.181 125.536C230.181 125.824 230.272 126.064 230.453 126.256C230.645 126.437 230.88 126.587 231.157 126.704C231.445 126.811 231.84 126.933 232.341 127.072C232.97 127.243 233.482 127.413 233.877 127.584C234.272 127.744 234.608 127.989 234.885 128.32C235.173 128.651 235.322 129.083 235.333 129.616C235.333 130.096 235.2 130.528 234.933 130.912C234.666 131.296 234.288 131.6 233.797 131.824C233.317 132.037 232.762 132.144 232.133 132.144ZM241.74 123.072C242.402 123.072 242.999 123.216 243.532 123.504C244.066 123.781 244.482 124.203 244.78 124.768C245.09 125.333 245.244 126.021 245.244 126.832V132H243.804V127.04C243.804 126.165 243.586 125.499 243.148 125.04C242.711 124.571 242.114 124.336 241.356 124.336C240.588 124.336 239.975 124.576 239.516 125.056C239.068 125.536 238.844 126.235 238.844 127.152V132H237.388V120.16H238.844V124.48C239.132 124.032 239.527 123.685 240.028 123.44C240.54 123.195 241.111 123.072 241.74 123.072ZM251.447 132.144C250.625 132.144 249.879 131.957 249.207 131.584C248.545 131.211 248.023 130.683 247.639 130C247.265 129.307 247.079 128.507 247.079 127.6C247.079 126.704 247.271 125.915 247.655 125.232C248.049 124.539 248.583 124.011 249.255 123.648C249.927 123.275 250.679 123.088 251.511 123.088C252.343 123.088 253.095 123.275 253.767 123.648C254.439 124.011 254.967 124.533 255.351 125.216C255.745 125.899 255.943 126.693 255.943 127.6C255.943 128.507 255.74 129.307 255.335 130C254.94 130.683 254.401 131.211 253.719 131.584C253.036 131.957 252.279 132.144 251.447 132.144ZM251.447 130.864C251.969 130.864 252.46 130.741 252.919 130.496C253.377 130.251 253.745 129.883 254.023 129.392C254.311 128.901 254.455 128.304 254.455 127.6C254.455 126.896 254.316 126.299 254.039 125.808C253.761 125.317 253.399 124.955 252.951 124.72C252.503 124.475 252.017 124.352 251.495 124.352C250.961 124.352 250.471 124.475 250.023 124.72C249.585 124.955 249.233 125.317 248.967 125.808C248.7 126.299 248.567 126.896 248.567 127.6C248.567 128.315 248.695 128.917 248.951 129.408C249.217 129.899 249.569 130.267 250.007 130.512C250.444 130.747 250.924 130.864 251.447 130.864ZM259.313 124.848C259.601 124.347 260.028 123.931 260.593 123.6C261.169 123.259 261.836 123.088 262.593 123.088C263.372 123.088 264.076 123.275 264.705 123.648C265.345 124.021 265.846 124.549 266.209 125.232C266.572 125.904 266.753 126.688 266.753 127.584C266.753 128.469 266.572 129.259 266.209 129.952C265.846 130.645 265.345 131.184 264.705 131.568C264.076 131.952 263.372 132.144 262.593 132.144C261.846 132.144 261.185 131.979 260.609 131.648C260.044 131.307 259.612 130.885 259.313 130.384V136.16H257.857V123.232H259.313V124.848ZM265.265 127.584C265.265 126.923 265.132 126.347 264.865 125.856C264.598 125.365 264.236 124.992 263.777 124.736C263.329 124.48 262.833 124.352 262.289 124.352C261.756 124.352 261.26 124.485 260.801 124.752C260.353 125.008 259.99 125.387 259.713 125.888C259.446 126.379 259.313 126.949 259.313 127.6C259.313 128.261 259.446 128.843 259.713 129.344C259.99 129.835 260.353 130.213 260.801 130.48C261.26 130.736 261.756 130.864 262.289 130.864C262.833 130.864 263.329 130.736 263.777 130.48C264.236 130.213 264.598 129.835 264.865 129.344C265.132 128.843 265.265 128.256 265.265 127.584Z" fill="#1E1E1E"/>
<path d="M14 149C21.732 149 28 155.268 28 163C28 170.732 21.732 177 14 177C6.26801 177 0 170.732 0 163C0 155.268 6.26801 149 14 149ZM7.61523 153.848V165H9.07129V160.344H11.2148C12.5161 160.344 13.481 160.04 14.1104 159.432C14.7503 158.813 15.0712 158.04 15.0713 157.112C15.0713 156.152 14.7404 155.368 14.0791 154.76C13.4284 154.152 12.4735 153.848 11.2148 153.848H7.61523ZM21.168 156.072C20.4856 156.072 19.9047 156.211 19.4248 156.488C18.9555 156.766 18.5929 157.155 18.3369 157.656V156.232H16.8809V165H18.3369V160.232C18.3369 158.462 19.1524 157.576 20.7842 157.576H21.168V156.072ZM11.2148 155.048C12.7935 155.048 13.583 155.736 13.583 157.112C13.5829 157.763 13.3908 158.264 13.0068 158.616C12.6228 158.968 12.0254 159.144 11.2148 159.144H9.07129V155.048H11.2148Z" fill="#B44E9E"/>
<g clip-path="url(#clip3_9_682)">
<rect x="38" y="150" width="121" height="27" fill="#B44E9E"/>
</g>
<rect x="38.5" y="150" width="132" height="26" stroke="#B44E9E"/>
<path d="M189.688 161.112C189.688 162.04 189.368 162.813 188.728 163.432C188.099 164.04 187.133 164.344 185.832 164.344H183.688V169H182.232V157.848H185.832C187.091 157.848 188.045 158.152 188.696 158.76C189.357 159.368 189.688 160.152 189.688 161.112ZM185.832 163.144C186.643 163.144 187.24 162.968 187.624 162.616C188.008 162.264 188.2 161.763 188.2 161.112C188.2 159.736 187.411 159.048 185.832 159.048H183.688V163.144H185.832ZM192.954 161.656C193.21 161.155 193.572 160.765 194.042 160.488C194.522 160.211 195.103 160.072 195.786 160.072V161.576H195.402C193.77 161.576 192.954 162.461 192.954 164.232V169H191.498V160.232H192.954V161.656ZM205.466 164.28C205.466 164.557 205.45 164.851 205.418 165.16H198.41C198.464 166.024 198.757 166.701 199.29 167.192C199.834 167.672 200.49 167.912 201.258 167.912C201.888 167.912 202.41 167.768 202.826 167.48C203.253 167.181 203.552 166.787 203.722 166.296H205.29C205.056 167.139 204.586 167.827 203.882 168.36C203.178 168.883 202.304 169.144 201.258 169.144C200.426 169.144 199.68 168.957 199.018 168.584C198.368 168.211 197.856 167.683 197.482 167C197.109 166.307 196.922 165.507 196.922 164.6C196.922 163.693 197.104 162.899 197.466 162.216C197.829 161.533 198.336 161.011 198.986 160.648C199.648 160.275 200.405 160.088 201.258 160.088C202.09 160.088 202.826 160.269 203.466 160.632C204.106 160.995 204.597 161.496 204.938 162.136C205.29 162.765 205.466 163.48 205.466 164.28ZM203.962 163.976C203.962 163.421 203.84 162.947 203.594 162.552C203.349 162.147 203.013 161.843 202.586 161.64C202.17 161.427 201.706 161.32 201.194 161.32C200.458 161.32 199.829 161.555 199.306 162.024C198.794 162.493 198.501 163.144 198.426 163.976H203.962ZM217.932 160.072C218.615 160.072 219.223 160.216 219.756 160.504C220.29 160.781 220.711 161.203 221.02 161.768C221.33 162.333 221.484 163.021 221.484 163.832V169H220.044V164.04C220.044 163.165 219.826 162.499 219.388 162.04C218.962 161.571 218.38 161.336 217.644 161.336C216.887 161.336 216.284 161.581 215.836 162.072C215.388 162.552 215.164 163.251 215.164 164.168V169H213.724V164.04C213.724 163.165 213.506 162.499 213.068 162.04C212.642 161.571 212.06 161.336 211.324 161.336C210.567 161.336 209.964 161.581 209.516 162.072C209.068 162.552 208.844 163.251 208.844 164.168V169H207.388V160.232H208.844V161.496C209.132 161.037 209.516 160.685 209.996 160.44C210.487 160.195 211.026 160.072 211.612 160.072C212.348 160.072 212.999 160.237 213.564 160.568C214.13 160.899 214.551 161.384 214.828 162.024C215.074 161.405 215.479 160.925 216.044 160.584C216.61 160.243 217.239 160.072 217.932 160.072ZM224.625 158.808C224.347 158.808 224.113 158.712 223.921 158.52C223.729 158.328 223.633 158.093 223.633 157.816C223.633 157.539 223.729 157.304 223.921 157.112C224.113 156.92 224.347 156.824 224.625 156.824C224.891 156.824 225.115 156.92 225.297 157.112C225.489 157.304 225.585 157.539 225.585 157.816C225.585 158.093 225.489 158.328 225.297 158.52C225.115 158.712 224.891 158.808 224.625 158.808ZM225.329 160.232V169H223.873V160.232H225.329ZM235.81 164.28C235.81 164.557 235.794 164.851 235.762 165.16H228.754C228.807 166.024 229.101 166.701 229.634 167.192C230.178 167.672 230.834 167.912 231.602 167.912C232.231 167.912 232.754 167.768 233.17 167.48C233.597 167.181 233.895 166.787 234.066 166.296H235.634C235.399 167.139 234.93 167.827 234.226 168.36C233.522 168.883 232.647 169.144 231.602 169.144C230.77 169.144 230.023 168.957 229.362 168.584C228.711 168.211 228.199 167.683 227.826 167C227.453 166.307 227.266 165.507 227.266 164.6C227.266 163.693 227.447 162.899 227.81 162.216C228.173 161.533 228.679 161.011 229.33 160.648C229.991 160.275 230.749 160.088 231.602 160.088C232.434 160.088 233.17 160.269 233.81 160.632C234.45 160.995 234.941 161.496 235.282 162.136C235.634 162.765 235.81 163.48 235.81 164.28ZM234.306 163.976C234.306 163.421 234.183 162.947 233.938 162.552C233.693 162.147 233.357 161.843 232.93 161.64C232.514 161.427 232.05 161.32 231.538 161.32C230.802 161.32 230.173 161.555 229.65 162.024C229.138 162.493 228.845 163.144 228.77 163.976H234.306ZM239.188 161.656C239.444 161.155 239.807 160.765 240.276 160.488C240.756 160.211 241.337 160.072 242.02 160.072V161.576H241.636C240.004 161.576 239.188 162.461 239.188 164.232V169H237.732V160.232H239.188V161.656ZM251.701 164.28C251.701 164.557 251.685 164.851 251.653 165.16H244.645C244.698 166.024 244.991 166.701 245.525 167.192C246.069 167.672 246.725 167.912 247.493 167.912C248.122 167.912 248.645 167.768 249.061 167.48C249.487 167.181 249.786 166.787 249.957 166.296H251.525C251.29 167.139 250.821 167.827 250.117 168.36C249.413 168.883 248.538 169.144 247.493 169.144C246.661 169.144 245.914 168.957 245.253 168.584C244.602 168.211 244.09 167.683 243.717 167C243.343 166.307 243.157 165.507 243.157 164.6C243.157 163.693 243.338 162.899 243.701 162.216C244.063 161.533 244.57 161.011 245.221 160.648C245.882 160.275 246.639 160.088 247.493 160.088C248.325 160.088 249.061 160.269 249.701 160.632C250.341 160.995 250.831 161.496 251.173 162.136C251.525 162.765 251.701 163.48 251.701 164.28ZM250.197 163.976C250.197 163.421 250.074 162.947 249.829 162.552C249.583 162.147 249.247 161.843 248.821 161.64C248.405 161.427 247.941 161.32 247.429 161.32C246.693 161.32 246.063 161.555 245.541 162.024C245.029 162.493 244.735 163.144 244.661 163.976H250.197ZM265.344 161.112C265.344 162.04 265.024 162.813 264.384 163.432C263.755 164.04 262.79 164.344 261.488 164.344H259.344V169H257.888V157.848H261.488C262.747 157.848 263.702 158.152 264.352 158.76C265.014 159.368 265.344 160.152 265.344 161.112ZM261.488 163.144C262.299 163.144 262.896 162.968 263.28 162.616C263.664 162.264 263.856 161.763 263.856 161.112C263.856 159.736 263.067 159.048 261.488 159.048H259.344V163.144H261.488ZM268.61 161.656C268.866 161.155 269.229 160.765 269.698 160.488C270.178 160.211 270.759 160.072 271.442 160.072V161.576H271.058C269.426 161.576 268.61 162.461 268.61 164.232V169H267.154V160.232H268.61V161.656ZM276.947 169.144C276.125 169.144 275.379 168.957 274.707 168.584C274.045 168.211 273.523 167.683 273.139 167C272.765 166.307 272.579 165.507 272.579 164.6C272.579 163.704 272.771 162.915 273.155 162.232C273.549 161.539 274.083 161.011 274.755 160.648C275.427 160.275 276.179 160.088 277.011 160.088C277.843 160.088 278.595 160.275 279.267 160.648C279.939 161.011 280.467 161.533 280.851 162.216C281.245 162.899 281.443 163.693 281.443 164.6C281.443 165.507 281.24 166.307 280.835 167C280.44 167.683 279.901 168.211 279.219 168.584C278.536 168.957 277.779 169.144 276.947 169.144ZM276.947 167.864C277.469 167.864 277.96 167.741 278.419 167.496C278.877 167.251 279.245 166.883 279.523 166.392C279.811 165.901 279.955 165.304 279.955 164.6C279.955 163.896 279.816 163.299 279.539 162.808C279.261 162.317 278.899 161.955 278.451 161.72C278.003 161.475 277.517 161.352 276.995 161.352C276.461 161.352 275.971 161.475 275.523 161.72C275.085 161.955 274.733 162.317 274.467 162.808C274.2 163.299 274.067 163.896 274.067 164.6C274.067 165.315 274.195 165.917 274.451 166.408C274.717 166.899 275.069 167.267 275.507 167.512C275.944 167.747 276.424 167.864 276.947 167.864Z" fill="#1E1E1E"/>
<path d="M14 186C21.732 186 28 192.268 28 200C28 207.732 21.732 214 14 214C6.26801 214 0 207.732 0 200C0 192.268 6.26801 186 14 186ZM17.4521 203.174L13.6836 200.299L17.4521 197.424V203.174ZM20.5996 196.045C20.5996 195.741 20.4266 195.463 20.1543 195.331L17.5596 194.077C17.413 194.007 17.2481 193.984 17.0879 194.012C16.9276 194.039 16.7799 194.115 16.665 194.23L11.6982 198.783L9.53516 197.134C9.43776 197.059 9.31672 197.021 9.19434 197.026C9.0721 197.032 8.95572 197.081 8.86523 197.163L8.1709 197.798C8.11712 197.847 8.07433 197.908 8.04492 197.975C8.0155 198.042 8.00004 198.114 8 198.188C8 198.261 8.01555 198.333 8.04492 198.4C8.07437 198.468 8.11698 198.528 8.1709 198.578L10.0469 200.299L8.1709 202.02C8.11712 202.069 8.07434 202.129 8.04492 202.196C8.01551 202.263 8.00005 202.336 8 202.409C8 202.483 8.01546 202.556 8.04492 202.623C8.07436 202.69 8.11712 202.75 8.1709 202.8L8.86523 203.435C8.95565 203.517 9.07204 203.566 9.19434 203.571C9.31672 203.577 9.43765 203.539 9.53516 203.465L11.6982 201.813L16.665 206.368C16.7793 206.484 16.9267 206.561 17.0869 206.589C17.2473 206.617 17.413 206.593 17.5596 206.522L20.1543 205.267C20.4264 205.135 20.5995 204.858 20.5996 204.554V196.045Z" fill="#B44E9E"/>
<g clip-path="url(#clip4_9_682)">
<rect x="38" y="187" width="128" height="27" fill="#B44E9E"/>
</g>
<rect x="38.5" y="187" width="133" height="26" stroke="#B44E9E"/>
<path d="M192.448 194.848L188.24 206H186.56L182.352 194.848H183.904L187.408 204.464L190.912 194.848H192.448ZM197.581 206.112C196.845 206.112 196.183 205.984 195.597 205.728C195.021 205.461 194.567 205.099 194.237 204.64C193.906 204.171 193.735 203.632 193.725 203.024H195.277C195.33 203.547 195.543 203.989 195.917 204.352C196.301 204.704 196.855 204.88 197.581 204.88C198.274 204.88 198.818 204.709 199.213 204.368C199.618 204.016 199.821 203.568 199.821 203.024C199.821 202.597 199.703 202.251 199.469 201.984C199.234 201.717 198.941 201.515 198.589 201.376C198.237 201.237 197.762 201.088 197.165 200.928C196.429 200.736 195.837 200.544 195.389 200.352C194.951 200.16 194.573 199.861 194.253 199.456C193.943 199.04 193.789 198.485 193.789 197.792C193.789 197.184 193.943 196.645 194.253 196.176C194.562 195.707 194.994 195.344 195.549 195.088C196.114 194.832 196.759 194.704 197.485 194.704C198.53 194.704 199.383 194.965 200.045 195.488C200.717 196.011 201.095 196.704 201.181 197.568H199.581C199.527 197.141 199.303 196.768 198.909 196.448C198.514 196.117 197.991 195.952 197.341 195.952C196.733 195.952 196.237 196.112 195.853 196.432C195.469 196.741 195.277 197.179 195.277 197.744C195.277 198.149 195.389 198.48 195.613 198.736C195.847 198.992 196.13 199.189 196.461 199.328C196.802 199.456 197.277 199.605 197.885 199.776C198.621 199.979 199.213 200.181 199.661 200.384C200.109 200.576 200.493 200.88 200.812 201.296C201.133 201.701 201.293 202.256 201.293 202.96C201.293 203.504 201.149 204.016 200.861 204.496C200.573 204.976 200.146 205.365 199.581 205.664C199.015 205.963 198.349 206.112 197.581 206.112ZM202.891 200.416C202.891 199.328 203.136 198.352 203.627 197.488C204.118 196.613 204.784 195.931 205.627 195.44C206.48 194.949 207.424 194.704 208.459 194.704C209.675 194.704 210.736 194.997 211.643 195.584C212.55 196.171 213.211 197.003 213.627 198.08H211.883C211.574 197.408 211.126 196.891 210.539 196.528C209.963 196.165 209.27 195.984 208.459 195.984C207.68 195.984 206.982 196.165 206.363 196.528C205.744 196.891 205.259 197.408 204.907 198.08C204.555 198.741 204.379 199.52 204.379 200.416C204.379 201.301 204.555 202.08 204.907 202.752C205.259 203.413 205.744 203.925 206.363 204.288C206.982 204.651 207.68 204.832 208.459 204.832C209.27 204.832 209.963 204.656 210.539 204.304C211.126 203.941 211.574 203.424 211.883 202.752H213.627C213.211 203.819 212.55 204.645 211.643 205.232C210.736 205.808 209.675 206.096 208.459 206.096C207.424 206.096 206.48 205.856 205.627 205.376C204.784 204.885 204.118 204.208 203.627 203.344C203.136 202.48 202.891 201.504 202.891 200.416ZM219.619 206.144C218.797 206.144 218.051 205.957 217.379 205.584C216.717 205.211 216.195 204.683 215.811 204C215.437 203.307 215.251 202.507 215.251 201.6C215.251 200.704 215.443 199.915 215.827 199.232C216.221 198.539 216.755 198.011 217.427 197.648C218.099 197.275 218.851 197.088 219.683 197.088C220.515 197.088 221.267 197.275 221.939 197.648C222.611 198.011 223.139 198.533 223.523 199.216C223.917 199.899 224.115 200.693 224.115 201.6C224.115 202.507 223.912 203.307 223.507 204C223.112 204.683 222.573 205.211 221.891 205.584C221.208 205.957 220.451 206.144 219.619 206.144ZM219.619 204.864C220.141 204.864 220.632 204.741 221.091 204.496C221.549 204.251 221.917 203.883 222.195 203.392C222.483 202.901 222.627 202.304 222.627 201.6C222.627 200.896 222.488 200.299 222.211 199.808C221.933 199.317 221.571 198.955 221.123 198.72C220.675 198.475 220.189 198.352 219.667 198.352C219.133 198.352 218.643 198.475 218.195 198.72C217.757 198.955 217.405 199.317 217.139 199.808C216.872 200.299 216.739 200.896 216.739 201.6C216.739 202.315 216.867 202.917 217.123 203.408C217.389 203.899 217.741 204.267 218.179 204.512C218.616 204.747 219.096 204.864 219.619 204.864ZM225.485 201.584C225.485 200.688 225.666 199.904 226.029 199.232C226.392 198.549 226.888 198.021 227.517 197.648C228.157 197.275 228.872 197.088 229.661 197.088C230.344 197.088 230.978 197.248 231.565 197.568C232.152 197.877 232.6 198.288 232.909 198.8V194.16H234.381V206H232.909V204.352C232.621 204.875 232.194 205.307 231.629 205.648C231.064 205.979 230.402 206.144 229.645 206.144C228.866 206.144 228.157 205.952 227.517 205.568C226.888 205.184 226.392 204.645 226.029 203.952C225.666 203.259 225.485 202.469 225.485 201.584ZM232.909 201.6C232.909 200.939 232.776 200.363 232.509 199.872C232.242 199.381 231.88 199.008 231.421 198.752C230.973 198.485 230.477 198.352 229.933 198.352C229.389 198.352 228.893 198.48 228.445 198.736C227.997 198.992 227.64 199.365 227.373 199.856C227.106 200.347 226.973 200.923 226.973 201.584C226.973 202.256 227.106 202.843 227.373 203.344C227.64 203.835 227.997 204.213 228.445 204.48C228.893 204.736 229.389 204.864 229.933 204.864C230.477 204.864 230.973 204.736 231.421 204.48C231.88 204.213 232.242 203.835 232.509 203.344C232.776 202.843 232.909 202.261 232.909 201.6ZM244.841 201.28C244.841 201.557 244.825 201.851 244.793 202.16H237.785C237.839 203.024 238.132 203.701 238.665 204.192C239.209 204.672 239.865 204.912 240.633 204.912C241.263 204.912 241.785 204.768 242.201 204.48C242.628 204.181 242.927 203.787 243.097 203.296H244.665C244.431 204.139 243.961 204.827 243.257 205.36C242.553 205.883 241.679 206.144 240.633 206.144C239.801 206.144 239.055 205.957 238.393 205.584C237.743 205.211 237.231 204.683 236.857 204C236.484 203.307 236.297 202.507 236.297 201.6C236.297 200.693 236.479 199.899 236.841 199.216C237.204 198.533 237.711 198.011 238.361 197.648C239.023 197.275 239.78 197.088 240.633 197.088C241.465 197.088 242.201 197.269 242.841 197.632C243.481 197.995 243.972 198.496 244.313 199.136C244.665 199.765 244.841 200.48 244.841 201.28ZM243.337 200.976C243.337 200.421 243.215 199.947 242.969 199.552C242.724 199.147 242.388 198.843 241.961 198.64C241.545 198.427 241.081 198.32 240.569 198.32C239.833 198.32 239.204 198.555 238.681 199.024C238.169 199.493 237.876 200.144 237.801 200.976H243.337Z" fill="#1E1E1E"/>
<path d="M14 223C21.732 223 28 229.268 28 237C28 244.732 21.732 251 14 251C6.26801 251 0 244.732 0 237C0 229.268 6.26801 223 14 223ZM18.9941 231C18.81 230.998 18.6259 231.014 18.4463 231.049C18.0265 231.127 17.4474 231.31 16.6895 231.711C15.3773 231.448 14.0124 231.448 12.7002 231.711C11.9424 231.311 11.3632 231.127 10.9424 231.049C10.7629 231.014 10.5794 230.998 10.3955 231C10.3118 231.002 10.2284 231.011 10.1465 231.026L10.1357 231.028L10.1309 231.029H10.1279L10.2754 231.475L10.1279 231.03C10.0525 231.049 9.9822 231.082 9.92285 231.126C9.86373 231.17 9.81625 231.225 9.78418 231.286C9.46753 231.897 9.40692 232.584 9.61328 233.229C9.07871 233.787 8.78734 234.489 8.79004 235.212C8.79006 236.648 9.28168 237.614 10.1201 238.234C10.7074 238.669 11.4207 238.9 12.1357 239.032C12.022 239.317 11.9791 239.618 12.0107 239.918V240.472C11.574 240.55 11.2714 240.525 11.0557 240.464C10.7862 240.387 10.5785 240.233 10.3799 240.011C10.2764 239.891 10.1804 239.766 10.0908 239.639L10.0293 239.553C9.95216 239.442 9.87209 239.333 9.78906 239.226C9.58507 238.966 9.28156 238.64 8.79199 238.529L8.27246 238.412L8 239.307L8.51953 239.425C8.60538 239.443 8.71696 239.512 8.90039 239.744C8.97106 239.836 9.03933 239.929 9.10449 240.023L9.17773 240.125C9.27866 240.266 9.39509 240.422 9.5293 240.573C9.8009 240.878 10.1712 241.187 10.7207 241.343C11.0963 241.45 11.5235 241.476 12.0107 241.411V243.138C12.0108 243.26 12.0673 243.378 12.168 243.465C12.2686 243.552 12.4055 243.6 12.5479 243.6H16.8428C16.9849 243.6 17.1211 243.551 17.2217 243.465C17.3223 243.378 17.3789 243.26 17.3789 243.138V239.844C17.3789 239.552 17.3641 239.284 17.2686 239.035C17.9803 238.906 18.6874 238.674 19.2715 238.239C20.1089 237.614 20.5996 236.64 20.5996 235.195V235.194C20.5973 234.477 20.306 233.783 19.7754 233.229C19.9815 232.585 19.9209 231.898 19.6045 231.287C19.5726 231.226 19.5259 231.17 19.4668 231.126C19.4077 231.082 19.3379 231.049 19.2627 231.03L19.1152 231.475C19.2623 231.031 19.2608 231.03 19.2598 231.03L19.2578 231.029L19.2539 231.028L19.2441 231.026L19.1631 231.012C19.1072 231.004 19.0507 231 18.9941 231Z" fill="#B44E9E"/>
<rect x="38.5" y="224" width="133" height="26" stroke="#B44E9E"/>
<rect x="38" y="224" width="130" height="26" fill="#B44E9E"/>
<path d="M189.824 238.52H184.96L184.064 241H182.528L186.56 229.912H188.24L192.256 241H190.72L189.824 238.52ZM189.408 237.336L187.392 231.704L185.376 237.336H189.408ZM197.117 241.144C196.445 241.144 195.843 241.032 195.309 240.808C194.776 240.573 194.355 240.253 194.045 239.848C193.736 239.432 193.565 238.957 193.533 238.424H195.037C195.08 238.861 195.283 239.219 195.645 239.496C196.019 239.773 196.504 239.912 197.101 239.912C197.656 239.912 198.093 239.789 198.413 239.544C198.733 239.299 198.893 238.989 198.893 238.616C198.893 238.232 198.723 237.949 198.381 237.768C198.04 237.576 197.512 237.389 196.797 237.208C196.147 237.037 195.613 236.867 195.197 236.696C194.792 236.515 194.44 236.253 194.141 235.912C193.853 235.56 193.709 235.101 193.709 234.536C193.709 234.088 193.843 233.677 194.109 233.304C194.376 232.931 194.755 232.637 195.245 232.424C195.736 232.2 196.296 232.088 196.925 232.088C197.896 232.088 198.68 232.333 199.277 232.824C199.875 233.315 200.195 233.987 200.237 234.84H198.781C198.749 234.381 198.563 234.013 198.221 233.736C197.891 233.459 197.443 233.32 196.877 233.32C196.355 233.32 195.939 233.432 195.629 233.656C195.32 233.88 195.165 234.173 195.165 234.536C195.165 234.824 195.256 235.064 195.437 235.256C195.629 235.437 195.864 235.587 196.141 235.704C196.429 235.811 196.824 235.933 197.325 236.072C197.955 236.243 198.467 236.413 198.861 236.584C199.256 236.744 199.592 236.989 199.869 237.32C200.157 237.651 200.307 238.083 200.317 238.616C200.317 239.096 200.184 239.528 199.917 239.912C199.651 240.296 199.272 240.6 198.781 240.824C198.301 241.037 197.747 241.144 197.117 241.144ZM204.149 233.432V238.6C204.149 239.027 204.239 239.331 204.421 239.512C204.602 239.683 204.917 239.768 205.365 239.768H206.437V241H205.125C204.314 241 203.706 240.813 203.301 240.44C202.895 240.067 202.693 239.453 202.693 238.6V233.432H201.557V232.232H202.693V230.024H204.149V232.232H206.437V233.432H204.149ZM209.657 233.656C209.913 233.155 210.275 232.765 210.745 232.488C211.225 232.211 211.806 232.072 212.489 232.072V233.576H212.105C210.473 233.576 209.657 234.461 209.657 236.232V241H208.201V232.232H209.657V233.656ZM217.994 241.144C217.172 241.144 216.426 240.957 215.754 240.584C215.092 240.211 214.57 239.683 214.186 239C213.812 238.307 213.626 237.507 213.626 236.6C213.626 235.704 213.818 234.915 214.202 234.232C214.596 233.539 215.13 233.011 215.802 232.648C216.474 232.275 217.226 232.088 218.058 232.088C218.89 232.088 219.642 232.275 220.314 232.648C220.986 233.011 221.514 233.533 221.898 234.216C222.292 234.899 222.49 235.693 222.49 236.6C222.49 237.507 222.287 238.307 221.882 239C221.487 239.683 220.948 240.211 220.266 240.584C219.583 240.957 218.826 241.144 217.994 241.144ZM217.994 239.864C218.516 239.864 219.007 239.741 219.466 239.496C219.924 239.251 220.292 238.883 220.57 238.392C220.858 237.901 221.002 237.304 221.002 236.6C221.002 235.896 220.863 235.299 220.586 234.808C220.308 234.317 219.946 233.955 219.498 233.72C219.05 233.475 218.564 233.352 218.042 233.352C217.508 233.352 217.018 233.475 216.57 233.72C216.132 233.955 215.78 234.317 215.514 234.808C215.247 235.299 215.114 235.896 215.114 236.6C215.114 237.315 215.242 237.917 215.498 238.408C215.764 238.899 216.116 239.267 216.554 239.512C216.991 239.747 217.471 239.864 217.994 239.864ZM225.908 238.984L224.116 243.288H223.14L224.308 238.984H225.908ZM240.289 233.08C239.98 232.429 239.532 231.928 238.945 231.576C238.359 231.213 237.676 231.032 236.897 231.032C236.119 231.032 235.415 231.213 234.785 231.576C234.167 231.928 233.676 232.44 233.313 233.112C232.961 233.773 232.785 234.541 232.785 235.416C232.785 236.291 232.961 237.059 233.313 237.72C233.676 238.381 234.167 238.893 234.785 239.256C235.415 239.608 236.119 239.784 236.897 239.784C237.985 239.784 238.881 239.459 239.585 238.808C240.289 238.157 240.7 237.277 240.817 236.168H236.369V234.984H242.369V236.104C242.284 237.021 241.996 237.864 241.505 238.632C241.015 239.389 240.369 239.992 239.569 240.44C238.769 240.877 237.879 241.096 236.897 241.096C235.863 241.096 234.919 240.856 234.065 240.376C233.212 239.885 232.535 239.208 232.033 238.344C231.543 237.48 231.297 236.504 231.297 235.416C231.297 234.328 231.543 233.352 232.033 232.488C232.535 231.613 233.212 230.936 234.065 230.456C234.919 229.965 235.863 229.72 236.897 229.72C238.081 229.72 239.127 230.013 240.033 230.6C240.951 231.187 241.617 232.013 242.033 233.08H240.289ZM245.047 230.808C244.769 230.808 244.535 230.712 244.343 230.52C244.151 230.328 244.055 230.093 244.055 229.816C244.055 229.539 244.151 229.304 244.343 229.112C244.535 228.92 244.769 228.824 245.047 228.824C245.313 228.824 245.537 228.92 245.719 229.112C245.911 229.304 246.007 229.539 246.007 229.816C246.007 230.093 245.911 230.328 245.719 230.52C245.537 230.712 245.313 230.808 245.047 230.808ZM245.751 232.232V241H244.295V232.232H245.751ZM250.008 233.432V238.6C250.008 239.027 250.099 239.331 250.28 239.512C250.461 239.683 250.776 239.768 251.224 239.768H252.296V241H250.984C250.173 241 249.565 240.813 249.16 240.44C248.755 240.067 248.552 239.453 248.552 238.6V233.432H247.416V232.232H248.552V230.024H250.008V232.232H252.296V233.432H250.008ZM255.564 238.984L253.772 243.288H252.796L253.964 238.984H255.564ZM268.362 229.848V231.032H265.322V241H263.866V231.032H260.81V229.848H268.362ZM269.61 236.584C269.61 235.688 269.791 234.904 270.154 234.232C270.517 233.549 271.013 233.021 271.642 232.648C272.282 232.275 272.991 232.088 273.77 232.088C274.538 232.088 275.205 232.253 275.77 232.584C276.335 232.915 276.757 233.331 277.034 233.832V232.232H278.506V241H277.034V239.368C276.746 239.88 276.314 240.307 275.738 240.648C275.173 240.979 274.511 241.144 273.754 241.144C272.975 241.144 272.271 240.952 271.642 240.568C271.013 240.184 270.517 239.645 270.154 238.952C269.791 238.259 269.61 237.469 269.61 236.584ZM277.034 236.6C277.034 235.939 276.901 235.363 276.634 234.872C276.367 234.381 276.005 234.008 275.546 233.752C275.098 233.485 274.602 233.352 274.058 233.352C273.514 233.352 273.018 233.48 272.57 233.736C272.122 233.992 271.765 234.365 271.498 234.856C271.231 235.347 271.098 235.923 271.098 236.584C271.098 237.256 271.231 237.843 271.498 238.344C271.765 238.835 272.122 239.213 272.57 239.48C273.018 239.736 273.514 239.864 274.058 239.864C274.602 239.864 275.098 239.736 275.546 239.48C276.005 239.213 276.367 238.835 276.634 238.344C276.901 237.843 277.034 237.261 277.034 236.6ZM281.718 230.808C281.441 230.808 281.206 230.712 281.014 230.52C280.822 230.328 280.726 230.093 280.726 229.816C280.726 229.539 280.822 229.304 281.014 229.112C281.206 228.92 281.441 228.824 281.718 228.824C281.985 228.824 282.209 228.92 282.39 229.112C282.582 229.304 282.678 229.539 282.678 229.816C282.678 230.093 282.582 230.328 282.39 230.52C282.209 230.712 281.985 230.808 281.718 230.808ZM282.422 232.232V241H280.966V232.232H282.422ZM286.36 229.16V241H284.904V229.16H286.36ZM300.521 232.232L297.785 241H296.281L294.169 234.04L292.057 241H290.553L287.801 232.232H289.289L291.305 239.592L293.481 232.232H294.969L297.097 239.608L299.081 232.232H300.521ZM302.718 230.808C302.441 230.808 302.206 230.712 302.014 230.52C301.822 230.328 301.726 230.093 301.726 229.816C301.726 229.539 301.822 229.304 302.014 229.112C302.206 228.92 302.441 228.824 302.718 228.824C302.985 228.824 303.209 228.92 303.39 229.112C303.582 229.304 303.678 229.539 303.678 229.816C303.678 230.093 303.582 230.328 303.39 230.52C303.209 230.712 302.985 230.808 302.718 230.808ZM303.422 232.232V241H301.966V232.232H303.422ZM310.176 232.072C311.243 232.072 312.107 232.397 312.768 233.048C313.429 233.688 313.76 234.616 313.76 235.832V241H312.32V236.04C312.32 235.165 312.101 234.499 311.664 234.04C311.227 233.571 310.629 233.336 309.872 233.336C309.104 233.336 308.491 233.576 308.032 234.056C307.584 234.536 307.36 235.235 307.36 236.152V241H305.904V232.232H307.36V233.48C307.648 233.032 308.037 232.685 308.528 232.44C309.029 232.195 309.579 232.072 310.176 232.072ZM315.594 236.584C315.594 235.688 315.776 234.904 316.138 234.232C316.501 233.549 316.997 233.021 317.626 232.648C318.266 232.275 318.981 232.088 319.77 232.088C320.453 232.088 321.088 232.248 321.674 232.568C322.261 232.877 322.709 233.288 323.018 233.8V229.16H324.49V241H323.018V239.352C322.73 239.875 322.304 240.307 321.738 240.648C321.173 240.979 320.512 241.144 319.754 241.144C318.976 241.144 318.266 240.952 317.626 240.568C316.997 240.184 316.501 239.645 316.138 238.952C315.776 238.259 315.594 237.469 315.594 236.584ZM323.018 236.6C323.018 235.939 322.885 235.363 322.618 234.872C322.352 234.381 321.989 234.008 321.53 233.752C321.082 233.485 320.586 233.352 320.042 233.352C319.498 233.352 319.002 233.48 318.554 233.736C318.106 233.992 317.749 234.365 317.482 234.856C317.216 235.347 317.082 235.923 317.082 236.584C317.082 237.256 317.216 237.843 317.482 238.344C317.749 238.835 318.106 239.213 318.554 239.48C319.002 239.736 319.498 239.864 320.042 239.864C320.586 239.864 321.082 239.736 321.53 239.48C321.989 239.213 322.352 238.835 322.618 238.344C322.885 237.843 323.018 237.261 323.018 236.6Z" fill="#1E1E1E"/>
<defs>
<clipPath id="clip0_9_682">
<rect x="38" y="38.5" width="134" height="27" fill="white"/>
</clipPath>
<clipPath id="clip1_9_682">
<rect x="38" y="75.5" width="134" height="27" fill="white"/>
</clipPath>
<clipPath id="clip2_9_682">
<rect x="38" y="112.5" width="134" height="27" fill="white"/>
</clipPath>
<clipPath id="clip3_9_682">
<rect x="38" y="149.5" width="133" height="27" fill="white"/>
</clipPath>
<clipPath id="clip4_9_682">
<rect x="38" y="186.5" width="134" height="27" fill="white"/>
</clipPath>
</defs>
</svg>
