<svg width="36" height="36" viewBox="0 0 36 36" fill="none" xmlns="http://www.w3.org/2000/svg">
<path d="M18.4582 17.5864L34.9798 1.04557C35.0946 0.929638 35.159 0.773101 35.159 0.609974C35.159 0.446847 35.0946 0.290309 34.9798 0.174374C34.8622 0.0622353 34.7059 -0.000222927 34.5434 5.97895e-07C34.3809 0.000224123 34.2247 0.0631127 34.1074 0.175574L17.5882 16.7152L1.06662 0.174374C0.948675 0.0635061 0.792894 0.00178359 0.631021 0.00178359C0.469148 0.00178359 0.313367 0.0635061 0.195421 0.174374C0.0807374 0.290105 0.0163961 0.446444 0.0163961 0.609374C0.0163961 0.772304 0.0807374 0.928642 0.195421 1.04437L16.7182 17.5864L0.196621 34.1272C0.135995 34.1835 0.0873454 34.2515 0.0535802 34.327C0.0198151 34.4025 0.00162736 34.4841 0.000104292 34.5669C-0.00141877 34.6496 0.0137539 34.7318 0.0447157 34.8085C0.0756774 34.8853 0.121792 34.955 0.180305 35.0135C0.238817 35.072 0.308526 35.1181 0.385264 35.1491C0.462003 35.18 0.544195 35.1952 0.62693 35.1937C0.709665 35.1922 0.791244 35.174 0.866791 35.1402C0.942338 35.1064 1.0103 35.0578 1.06662 34.9972L17.5882 18.4576L34.1086 34.9984C34.1657 35.0556 34.2336 35.101 34.3082 35.132C34.3829 35.1629 34.463 35.1789 34.5438 35.179C34.6246 35.179 34.7047 35.1632 34.7794 35.1323C34.8541 35.1014 34.922 35.0561 34.9792 34.999C35.0364 34.9419 35.0818 34.874 35.1128 34.7994C35.1438 34.7247 35.1598 34.6446 35.1598 34.5638C35.1599 34.483 35.144 34.4029 35.1131 34.3282C35.0822 34.2535 35.0369 34.1856 34.9798 34.1284L18.4582 17.5864Z" fill="#161719"/>
</svg>
