<svg width="74" height="74" viewBox="0 0 74 74" fill="none" xmlns="http://www.w3.org/2000/svg">
<path fill-rule="evenodd" clip-rule="evenodd" d="M37 74C57.4345 74 74 57.4345 74 37C74 16.5655 57.4345 0 37 0C16.5655 0 0 16.5655 0 37C0 57.4345 16.5655 74 37 74ZM38.5245 30.9809C39.8361 30.4423 41.2411 30.1675 42.6591 30.1724C44.077 30.1675 45.482 30.4423 46.7936 30.9809C48.1053 31.5196 49.2978 32.3116 50.303 33.3116C51.3083 34.3117 52.1064 35.5001 52.6518 36.8089C53.1973 38.1177 53.4793 39.5212 53.4817 40.9391V51.8169C53.4817 52.2584 53.3063 52.6819 52.994 52.9942C52.6818 53.3064 52.2583 53.4818 51.8167 53.4818H47.9316C47.49 53.4818 47.0665 53.3064 46.7543 52.9942C46.442 52.6819 46.2666 52.2584 46.2666 51.8169V41.0686C46.2737 40.1624 45.948 39.2852 45.3512 38.6032C44.7545 37.9212 43.9282 37.4819 43.0291 37.3687C42.5277 37.3141 42.0205 37.3658 41.5405 37.5204C41.0604 37.6749 40.6184 37.9289 40.2431 38.2658C39.8678 38.6027 39.5677 39.0149 39.3624 39.4755C39.1571 39.9361 39.0512 40.4348 39.0515 40.9391V51.8169C39.0515 52.2584 38.8761 52.6819 38.5639 52.9942C38.2516 53.3064 37.8281 53.4818 37.3865 53.4818H33.5015C33.0599 53.4818 32.6364 53.3064 32.3241 52.9942C32.0119 52.6819 31.8365 52.2584 31.8365 51.8169V40.9391C31.8389 39.5212 32.1209 38.1177 32.6663 36.8089C33.2117 35.5001 34.0099 34.3117 35.0151 33.3116C36.0203 32.3116 37.2129 31.5196 38.5245 30.9809ZM28.5069 33.5011C28.5069 32.5816 27.7615 31.8362 26.8419 31.8362H21.8468C20.9273 31.8362 20.1818 32.5816 20.1818 33.5011V51.8157C20.1818 52.7352 20.9273 53.4807 21.8468 53.4807H26.8419C27.7615 53.4807 28.5069 52.7352 28.5069 51.8157V33.5011ZM28.5069 24.3442C28.5069 26.6431 26.6433 28.5066 24.3444 28.5066C22.0455 28.5066 20.1818 26.6431 20.1818 24.3442C20.1818 22.0454 22.0455 20.1818 24.3444 20.1818C26.6433 20.1818 28.5069 22.0454 28.5069 24.3442Z" fill="#161719"/>
</svg>
