<svg width="74" height="74" viewBox="0 0 74 74" fill="none" xmlns="http://www.w3.org/2000/svg">
<path fill-rule="evenodd" clip-rule="evenodd" d="M74 37C74 57.4345 57.4345 74 37 74C16.5655 74 0 57.4345 0 37C0 16.5655 16.5655 0 37 0C57.4345 0 74 16.5655 74 37ZM20.8547 23.8633C19.7103 23.8633 18.8184 24.7759 18.8184 25.8576V26.7499L35.9798 37.5415C36.2844 37.7292 36.6379 37.8297 37.0002 37.8297C37.3624 37.8297 37.716 37.7292 38.0205 37.5415L38.025 37.5388L55.182 26.7499V25.8576C55.182 24.7759 54.2901 23.8633 53.1456 23.8633H20.8547ZM59.182 27.8204V25.8576C59.182 22.5273 56.4596 19.8633 53.1456 19.8633H20.8547C17.5407 19.8633 14.8184 22.5273 14.8184 25.8576V27.8204C14.818 27.8421 14.818 27.8637 14.8184 27.8853V49.8235C14.8184 53.1538 17.5407 55.8178 20.8547 55.8178H53.1456C56.4596 55.8178 59.182 53.1538 59.182 49.8235V27.8853C59.1823 27.8637 59.1823 27.8421 59.182 27.8204ZM55.182 31.475L40.1436 40.9316L40.1328 40.9384L40.1328 40.9384C39.1922 41.5215 38.1067 41.8297 37.0002 41.8297C35.8937 41.8297 34.8081 41.5215 33.8676 40.9384L33.8568 40.9317L33.8568 40.9316L18.8184 31.475V49.8235C18.8184 50.9052 19.7103 51.8178 20.8547 51.8178H53.1456C54.2901 51.8178 55.182 50.9052 55.182 49.8235V31.475Z" fill="#161719"/>
</svg>
