<svg width="77" height="77" viewBox="0 0 77 77" fill="none" xmlns="http://www.w3.org/2000/svg">
<path fill-rule="evenodd" clip-rule="evenodd" d="M38.5 77C59.763 77 77 59.763 77 38.5C77 17.237 59.763 0 38.5 0C17.237 0 0 17.237 0 38.5C0 59.763 17.237 77 38.5 77ZM50.2563 19C49.154 19 48.0626 19.2171 47.0442 19.6389C46.0258 20.0608 45.1005 20.679 44.3211 21.4585L42.0606 23.719L20.5858 45.1938C20.2107 45.5688 20 46.0775 20 46.608V55.65C20 56.7546 20.8954 57.65 22 57.65H31.042C31.5725 57.65 32.0812 57.4393 32.4562 57.0642L53.9293 35.5912L53.931 35.5894L53.9328 35.5876L56.1915 33.3289C56.971 32.5495 57.5892 31.6242 58.0111 30.6058C58.4329 29.5874 58.65 28.4959 58.65 27.3937C58.65 26.2914 58.4329 25.1999 58.0111 24.1816C57.5892 23.1632 56.971 22.2379 56.1915 21.4585C55.4121 20.679 54.4868 20.0608 53.4684 19.6389C52.4501 19.2171 51.3586 19 50.2563 19ZM24 47.4364L43.4748 27.9616L49.6884 34.1752L30.2136 53.65H24V47.4364ZM46.3032 25.1332L52.5168 31.3468L53.3631 30.5005C53.7711 30.0925 54.0947 29.6081 54.3156 29.0751C54.5364 28.542 54.65 27.9707 54.65 27.3937C54.65 26.8167 54.5364 26.2453 54.3156 25.7123C54.0948 25.1792 53.7711 24.6949 53.3631 24.2869C52.9551 23.8789 52.4708 23.5553 51.9377 23.3344C51.4046 23.1136 50.8333 23 50.2563 23C49.6793 23 49.108 23.1136 48.5749 23.3344C48.0419 23.5553 47.5575 23.8789 47.1495 24.2869L46.3032 25.1332Z" fill="#DBD7E9"/>
</svg>
