<svg width="60" height="57" viewBox="0 0 60 57" fill="none" xmlns="http://www.w3.org/2000/svg">
<path d="M28.9873 1.5C14.0756 1.5 1.9873 13.5883 1.9873 28.5C1.9873 43.4117 14.0756 55.5 28.9873 55.5H31.4747C46.3864 55.5 58.4747 43.4117 58.4747 28.5C58.4747 13.5883 46.3864 1.5 31.4747 1.5H28.9873Z" fill="#F4F3F0"/>
<path d="M28.9873 1.5C14.0756 1.5 1.9873 13.5883 1.9873 28.5C1.9873 43.4117 14.0756 55.5 28.9873 55.5H31.4747C46.3864 55.5 58.4747 43.4117 58.4747 28.5C58.4747 13.5883 46.3864 1.5 31.4747 1.5H28.9873Z" stroke="#755CCE" stroke-width="3"/>
<mask id="path-2-inside-1_109_78" fill="white">
<path d="M34.2287 31.9824L34.7311 31.5172L33.5643 30.4244L33.0641 30.8897L34.2287 31.9824ZM36.4158 31.322L38.5214 32.3892L39.3091 31.0355L37.2047 29.9694L36.4158 31.322ZM38.9257 34.509L37.3611 35.9602L38.5258 37.052L40.0903 35.6018L38.9257 34.509ZM36.407 36.4265C34.8093 36.5662 30.6775 36.4419 26.202 32.2947L25.0362 33.3864C29.9195 37.9127 34.568 38.1345 36.5612 37.9609L36.407 36.4265ZM26.202 32.2947C21.9368 28.3405 21.2295 25.0159 21.1413 23.5729L19.4908 23.6602C19.601 25.4761 20.4769 29.1611 25.0362 33.3864L26.202 32.2947ZM27.717 25.9475L28.0332 25.6537L26.8697 24.562L26.5534 24.8547L27.717 25.9475ZM28.2844 21.9204L26.8961 20.1908L25.5728 21.1152L26.9611 22.8437L28.2844 21.9204ZM22.2233 19.8139L20.4935 21.4161L21.6592 22.5089L23.3879 20.9067L22.2233 19.8139ZM27.1352 25.4011C26.5512 24.8547 26.5512 24.8547 26.5512 24.8567H26.549L26.5457 24.8609C26.4934 24.9101 26.4465 24.9641 26.4058 25.0221C26.3463 25.1043 26.2813 25.2121 26.2262 25.3487C26.0921 25.7013 26.0587 26.0804 26.1292 26.4487C26.2769 27.3371 26.9336 28.511 28.6149 30.0701L29.7807 28.9773C28.2062 27.5189 27.8315 26.6315 27.7621 26.2125C27.7291 26.0132 27.7632 25.9146 27.7731 25.892C27.7798 25.8783 27.7798 25.8763 27.7731 25.8859C27.7633 25.9 27.7523 25.9134 27.7401 25.9259L27.7291 25.9362L27.7181 25.9454L27.1352 25.4011ZM28.6149 30.0701C30.2974 31.6291 31.5634 32.2372 32.5176 32.3727C33.0057 32.4426 33.399 32.3871 33.6976 32.2834C33.8649 32.2263 34.0211 32.1445 34.1604 32.041L34.2155 31.9948L34.2232 31.9886L34.2265 31.9855L34.2276 31.9835C34.2276 31.9835 34.2287 31.9824 33.6458 31.4361C33.0619 30.8897 33.0652 30.8886 33.0652 30.8886L33.0674 30.8866L33.0696 30.8845L33.0762 30.8794L33.0872 30.8691L33.1291 30.8383C33.1394 30.8321 33.1368 30.8328 33.1214 30.8404C33.0938 30.8496 32.9858 30.8814 32.7688 30.8506C32.3126 30.7849 31.354 30.4357 29.7807 28.9773L28.6149 30.0701ZM26.8961 20.1898C25.7722 18.793 23.5642 18.5712 22.2233 19.8139L23.3879 20.9067C23.9741 20.3634 25.0142 20.4199 25.5728 21.1152L26.8961 20.1898ZM21.1424 23.574C21.1204 23.2186 21.2956 22.8468 21.6592 22.5099L20.4924 21.4171C19.9007 21.9656 19.4346 22.742 19.4908 23.6602L21.1424 23.574ZM37.3611 35.9602C37.0592 36.2416 36.7331 36.3998 36.4081 36.4275L36.5612 37.9609C37.3711 37.8901 38.0332 37.51 38.5269 37.053L37.3611 35.9602ZM28.0332 25.6537C29.1185 24.6483 29.1989 23.0594 28.2855 21.9214L26.9622 22.8447C27.4062 23.3983 27.3401 24.1245 26.8686 24.563L28.0332 25.6537ZM38.5225 32.3902C39.4226 32.8462 39.5626 33.9205 38.9268 34.51L40.0925 35.6018C41.569 34.2327 41.1139 31.9496 39.3103 31.0365L38.5225 32.3902ZM34.7311 31.5182C35.1542 31.1259 35.8351 31.0293 36.4169 31.3231L37.2058 29.9704C36.0114 29.3645 34.5306 29.5319 33.5654 30.4254L34.7311 31.5182Z"/>
</mask>
<path d="M34.2287 31.9824L34.7311 31.5172L33.5643 30.4244L33.0641 30.8897L34.2287 31.9824ZM36.4158 31.322L38.5214 32.3892L39.3091 31.0355L37.2047 29.9694L36.4158 31.322ZM38.9257 34.509L37.3611 35.9602L38.5258 37.052L40.0903 35.6018L38.9257 34.509ZM36.407 36.4265C34.8093 36.5662 30.6775 36.4419 26.202 32.2947L25.0362 33.3864C29.9195 37.9127 34.568 38.1345 36.5612 37.9609L36.407 36.4265ZM26.202 32.2947C21.9368 28.3405 21.2295 25.0159 21.1413 23.5729L19.4908 23.6602C19.601 25.4761 20.4769 29.1611 25.0362 33.3864L26.202 32.2947ZM27.717 25.9475L28.0332 25.6537L26.8697 24.562L26.5534 24.8547L27.717 25.9475ZM28.2844 21.9204L26.8961 20.1908L25.5728 21.1152L26.9611 22.8437L28.2844 21.9204ZM22.2233 19.8139L20.4935 21.4161L21.6592 22.5089L23.3879 20.9067L22.2233 19.8139ZM27.1352 25.4011C26.5512 24.8547 26.5512 24.8547 26.5512 24.8567H26.549L26.5457 24.8609C26.4934 24.9101 26.4465 24.9641 26.4058 25.0221C26.3463 25.1043 26.2813 25.2121 26.2262 25.3487C26.0921 25.7013 26.0587 26.0804 26.1292 26.4487C26.2769 27.3371 26.9336 28.511 28.6149 30.0701L29.7807 28.9773C28.2062 27.5189 27.8315 26.6315 27.7621 26.2125C27.7291 26.0132 27.7632 25.9146 27.7731 25.892C27.7798 25.8783 27.7798 25.8763 27.7731 25.8859C27.7633 25.9 27.7523 25.9134 27.7401 25.9259L27.7291 25.9362L27.7181 25.9454L27.1352 25.4011ZM28.6149 30.0701C30.2974 31.6291 31.5634 32.2372 32.5176 32.3727C33.0057 32.4426 33.399 32.3871 33.6976 32.2834C33.8649 32.2263 34.0211 32.1445 34.1604 32.041L34.2155 31.9948L34.2232 31.9886L34.2265 31.9855L34.2276 31.9835C34.2276 31.9835 34.2287 31.9824 33.6458 31.4361C33.0619 30.8897 33.0652 30.8886 33.0652 30.8886L33.0674 30.8866L33.0696 30.8845L33.0762 30.8794L33.0872 30.8691L33.1291 30.8383C33.1394 30.8321 33.1368 30.8328 33.1214 30.8404C33.0938 30.8496 32.9858 30.8814 32.7688 30.8506C32.3126 30.7849 31.354 30.4357 29.7807 28.9773L28.6149 30.0701ZM26.8961 20.1898C25.7722 18.793 23.5642 18.5712 22.2233 19.8139L23.3879 20.9067C23.9741 20.3634 25.0142 20.4199 25.5728 21.1152L26.8961 20.1898ZM21.1424 23.574C21.1204 23.2186 21.2956 22.8468 21.6592 22.5099L20.4924 21.4171C19.9007 21.9656 19.4346 22.742 19.4908 23.6602L21.1424 23.574ZM37.3611 35.9602C37.0592 36.2416 36.7331 36.3998 36.4081 36.4275L36.5612 37.9609C37.3711 37.8901 38.0332 37.51 38.5269 37.053L37.3611 35.9602ZM28.0332 25.6537C29.1185 24.6483 29.1989 23.0594 28.2855 21.9214L26.9622 22.8447C27.4062 23.3983 27.3401 24.1245 26.8686 24.563L28.0332 25.6537ZM38.5225 32.3902C39.4226 32.8462 39.5626 33.9205 38.9268 34.51L40.0925 35.6018C41.569 34.2327 41.1139 31.9496 39.3103 31.0365L38.5225 32.3902ZM34.7311 31.5182C35.1542 31.1259 35.8351 31.0293 36.4169 31.3231L37.2058 29.9704C36.0114 29.3645 34.5306 29.5319 33.5654 30.4254L34.7311 31.5182Z" fill="black"/>
<path d="M26.202 32.2947L26.5443 32.6591L25.8602 31.9297L26.202 32.2947ZM23.3879 20.9067L23.0463 21.2718L23.7301 20.5421L23.3879 20.9067ZM33.9881 31.0716L33.4064 30.5252L32.7218 31.2541L33.3035 31.8005L33.9881 31.0716ZM33.8063 31.3356L34.3891 31.882L35.0731 31.1524L34.4902 30.606L33.8063 31.3356ZM36.3792 30.3937L35.9847 31.0716L36.849 31.5746L37.2435 30.8967L36.3792 30.3937ZM38.4838 31.4606L38.0894 32.1374L38.9533 32.6409L39.3478 31.9641L38.4838 31.4606ZM39.1677 35.4202L39.7506 35.9666L40.4345 35.237L39.8516 34.6906L39.1677 35.4202ZM38.2864 36.1402L37.7024 35.5948L37.0199 36.3256L37.6038 36.871L38.2864 36.1402ZM35.9866 37.2437L36.0637 38.0109L37.0587 37.9109L36.9816 37.1437L35.9866 37.2437ZM25.9625 33.2055L26.5443 32.6591L25.8597 31.9302L25.2779 32.4766L25.9625 33.2055ZM20.29 23.1178L19.4647 23.1609L19.5169 24.1595L20.3422 24.1164L20.29 23.1178ZM27.1076 25.4724L27.6916 26.0188L28.3748 25.2886L27.7908 24.7422L27.1076 25.4724ZM27.9083 22.7916L28.5693 22.3305L27.9972 21.5103L27.3361 21.9715L27.9083 22.7916ZM25.9488 20.243L25.2867 20.7052L25.859 21.5252L26.5212 21.063L25.9488 20.243ZM22.4623 20.7254L23.0463 21.2718L23.7295 20.5416L23.1456 19.9952L22.4623 20.7254ZM21.4161 21.5977L20.8343 21.0524L20.1504 21.7819L20.7321 22.3273L21.4161 21.5977ZM29.5386 29.8885L30.1215 29.3421L29.4376 28.6125L28.8547 29.1589L29.5386 29.8885ZM25.8602 31.9297L24.6945 33.0215L25.378 33.7514L26.5437 32.6596L25.8602 31.9297ZM23.7301 20.5421L22.5654 19.4493L21.8812 20.1785L23.0458 21.2713L23.7301 20.5421ZM28.9569 30.4349L30.1226 29.3421L29.4387 28.6125L28.273 29.7053L28.9569 30.4349ZM33.6458 31.4361L34.3297 30.7065L34.329 30.7058L33.6458 31.4361ZM33.0641 30.8897L32.383 30.1574L31.5992 30.8864L32.3798 31.6189L33.0641 30.8897ZM34.7311 31.5172L35.4106 32.2509L36.1984 31.5213L35.4147 30.7873L34.7311 31.5172ZM36.4169 31.3231L35.9662 32.2157L36.8065 32.64L37.2807 31.8269L36.4169 31.3231ZM38.5214 32.3892L38.0693 33.2811L38.911 33.7077L39.3856 32.8922L38.5214 32.3892ZM40.0925 35.6018L39.409 36.3317L40.0891 36.9687L40.7725 36.335L40.0925 35.6018ZM37.3611 35.9602L36.6811 35.2271L36.6793 35.2287L37.3611 35.9602ZM36.5612 37.9609L36.648 38.9572L36.6484 38.9571L36.5612 37.9609ZM26.202 32.2947L25.5221 33.028L25.5223 33.0282L26.202 32.2947ZM23.3879 20.9067L24.0677 21.6401L24.0677 21.6401L23.3879 20.9067ZM20.4924 21.4171L21.1759 20.6873L20.4959 20.0504L19.8125 20.6838L20.4924 21.4171ZM34.2287 31.9824L33.5444 32.7117L34.2242 33.3495L34.9081 32.7162L34.2287 31.9824ZM33.5643 30.4244L34.2479 29.6945L33.5666 29.0565L32.8832 29.6922L33.5643 30.4244ZM36.4158 31.322L35.552 30.8182L35.0176 31.7345L35.9637 32.214L36.4158 31.322ZM39.3091 31.0355L40.1734 31.5385L40.7066 30.6224L39.7611 30.1434L39.3091 31.0355ZM37.2047 29.9694L37.6566 29.0774L36.8157 28.6514L36.3409 29.4656L37.2047 29.9694ZM38.9257 34.509L39.61 33.7798L38.9297 33.1414L38.2457 33.7758L38.9257 34.509ZM38.5258 37.052L37.8418 37.7815L38.5219 38.4191L39.2055 37.7854L38.5258 37.052ZM40.0903 35.6018L40.7701 36.3352L41.5565 35.6063L40.7746 34.8725L40.0903 35.6018ZM36.407 36.4265L37.402 36.3265L37.3032 35.3443L36.3199 35.4303L36.407 36.4265ZM25.0362 33.3864L25.716 32.653L25.716 32.653L25.0362 33.3864ZM21.1413 23.5729L22.1395 23.512L22.079 22.5219L21.0885 22.5743L21.1413 23.5729ZM27.717 25.9475L27.0323 26.6764L27.7132 27.3158L28.3975 26.6801L27.717 25.9475ZM26.8697 24.562L27.5539 23.8327L26.8743 23.195L26.1904 23.8281L26.8697 24.562ZM26.5534 24.8547L25.8741 24.1208L25.0871 24.8494L25.8688 25.5836L26.5534 24.8547ZM28.2844 21.9204L28.8566 22.7405L29.7337 22.1285L29.0642 21.2944L28.2844 21.9204ZM26.8961 20.1908L27.6759 19.5649L27.0904 18.8353L26.3234 19.371L26.8961 20.1908ZM26.9611 22.8437L26.1814 23.4699L26.7668 24.1987L27.5333 23.6638L26.9611 22.8437ZM22.2233 19.8139L22.9028 20.5476L22.903 20.5474L22.2233 19.8139ZM20.4935 21.4161L19.8139 20.6825L19.0266 21.4117L19.8095 22.1457L20.4935 21.4161ZM21.6592 22.5089L20.9753 23.2385L21.6553 23.8759L22.3389 23.2423L21.6592 22.5089ZM27.1352 25.4011L26.452 26.1313L26.4527 26.1319L27.1352 25.4011ZM26.5512 24.8567V25.8567H27.5512V24.8567H26.5512ZM26.549 24.8567V23.8567H26.0702L25.77 24.2298L26.549 24.8567ZM26.5457 24.8609L27.2306 25.5895L27.2812 25.5419L27.3248 25.4878L26.5457 24.8609ZM26.4058 25.0221L27.2157 25.6086L27.2202 25.6025L27.2245 25.5963L26.4058 25.0221ZM26.2262 25.3487L25.2988 24.9747L25.2951 24.9839L25.2915 24.9932L26.2262 25.3487ZM26.1292 26.4487L27.1157 26.2847L27.1137 26.2726L27.1114 26.2605L26.1292 26.4487ZM28.6149 30.0701L27.935 30.8033L27.9352 30.8036L28.6149 30.0701ZM29.7807 28.9773L30.4605 28.2439L30.4602 28.2437L29.7807 28.9773ZM27.7621 26.2125L28.7487 26.049L28.7486 26.0488L27.7621 26.2125ZM27.7731 25.892L26.8726 25.4573L26.8647 25.4736L26.8574 25.4901L27.7731 25.892ZM27.7731 25.8859L28.595 26.4555L28.5964 26.4536L27.7731 25.8859ZM27.7401 25.9259L28.4219 26.6574L28.4394 26.6412L28.456 26.6241L27.7401 25.9259ZM27.7291 25.9362L28.3718 26.7023L28.3918 26.6855L28.4109 26.6677L27.7291 25.9362ZM27.7181 25.9454L27.0355 26.6763L27.6825 27.2805L28.3608 26.7115L27.7181 25.9454ZM32.5176 32.3727L32.6592 31.3828L32.6582 31.3827L32.5176 32.3727ZM33.6976 32.2834L33.3749 31.3369L33.3694 31.3388L33.6976 32.2834ZM34.1604 32.041L34.757 32.8435L34.7806 32.826L34.8031 32.8071L34.1604 32.041ZM34.2155 31.9948L33.5913 31.2135L33.5819 31.221L33.5728 31.2287L34.2155 31.9948ZM34.2232 31.9886L34.8474 32.7699L34.8771 32.7461L34.905 32.7201L34.2232 31.9886ZM34.2265 31.9855L34.9083 32.717L35.0295 32.604L35.1078 32.458L34.2265 31.9855ZM34.2276 31.9835L33.5458 31.2519L33.4246 31.3649L33.3463 31.511L34.2276 31.9835ZM33.0652 30.8886L33.3619 31.8436L33.58 31.7758L33.747 31.6201L33.0652 30.8886ZM33.0674 30.8866L33.7492 31.6181L33.7494 31.6179L33.0674 30.8866ZM33.0696 30.8845L32.4562 30.0947L32.4206 30.1224L32.3875 30.1532L33.0696 30.8845ZM33.0762 30.8794L33.6895 31.6692L33.7251 31.6416L33.758 31.6109L33.0762 30.8794ZM33.0872 30.8691L32.4945 30.0637L32.4478 30.0981L32.4053 30.1376L33.0872 30.8691ZM33.1291 30.8383L32.6151 29.9805L32.5745 30.0048L32.5364 30.0329L33.1291 30.8383ZM33.1214 30.8404L33.4395 31.7884L33.5014 31.7676L33.5601 31.739L33.1214 30.8404ZM32.7688 30.8506L32.6261 31.8404L32.6282 31.8407L32.7688 30.8506ZM26.8961 20.1898L27.4692 21.0093L28.3458 20.3963L27.6752 19.5629L26.8961 20.1898ZM21.1424 23.574L21.1946 24.5726L22.203 24.5199L22.1405 23.5121L21.1424 23.574ZM21.6592 22.5099L22.3388 23.2435L23.1263 22.5139L22.3427 21.78L21.6592 22.5099ZM36.4081 36.4275L36.3231 35.4312L35.3122 35.5174L35.413 36.5269L36.4081 36.4275ZM38.5269 37.053L39.2063 37.7868L39.9939 37.0575L39.2108 36.3234L38.5269 37.053ZM28.2855 21.9214L29.0653 21.2955L28.4801 20.5663L27.7133 21.1013L28.2855 21.9214ZM26.9622 22.8447L26.39 22.0247L25.5132 22.6364L26.1821 23.4704L26.9622 22.8447ZM26.8686 24.563L26.1876 23.8307L25.4029 24.5604L26.185 25.2929L26.8686 24.563ZM38.5225 32.3902L37.6582 31.8872L37.125 32.8033L38.0706 33.2823L38.5225 32.3902ZM38.9268 34.51L38.2469 33.7768L37.46 34.5064L38.2432 35.2399L38.9268 34.51ZM39.3103 31.0365L39.7619 30.1443L38.9204 29.7183L38.446 30.5335L39.3103 31.0365ZM34.7311 31.5182L34.0472 32.2478L34.7274 32.8854L35.4111 32.2515L34.7311 31.5182ZM37.2058 29.9704L38.0696 30.4743L38.6038 29.5584L37.6582 29.0787L37.2058 29.9704ZM33.5654 30.4254L32.886 29.6916L32.0983 30.4208L32.8815 31.155L33.5654 30.4254ZM34.9081 32.7162L35.4106 32.2509L34.0517 30.7835L33.5492 31.2487L34.9081 32.7162ZM35.4147 30.7873L34.2479 29.6945L32.8807 31.1543L34.0475 32.2471L35.4147 30.7873ZM32.8832 29.6922L32.383 30.1574L33.7451 31.6219L34.2453 31.1566L32.8832 29.6922ZM32.3798 31.6189L33.5444 32.7117L34.9129 31.2532L33.7483 30.1604L32.3798 31.6189ZM35.9637 32.214L38.0693 33.2811L38.9734 31.4972L36.8678 30.4301L35.9637 32.214ZM39.3856 32.8922L40.1734 31.5385L38.4449 30.5325L37.6571 31.8862L39.3856 32.8922ZM39.7611 30.1434L37.6566 29.0774L36.7528 30.8615L38.8572 31.9276L39.7611 30.1434ZM36.3409 29.4656L35.552 30.8182L37.2796 31.8259L38.0685 30.4732L36.3409 29.4656ZM38.2457 33.7758L36.6811 35.2271L38.0412 36.6934L39.6058 35.2422L38.2457 33.7758ZM36.6772 36.6898L37.8418 37.7815L39.2097 36.3224L38.0451 35.2307L36.6772 36.6898ZM39.2055 37.7854L40.7701 36.3352L39.4105 34.8684L37.846 36.3186L39.2055 37.7854ZM40.7746 34.8725L39.61 33.7798L38.2415 35.2382L39.4061 36.331L40.7746 34.8725ZM36.3199 35.4303C34.9404 35.5509 31.1079 35.4774 26.8816 31.5612L25.5223 33.0282C30.2472 37.4065 34.6783 37.5815 36.4941 37.4227L36.3199 35.4303ZM24.3564 34.1198C29.4895 38.8776 34.4376 39.1496 36.648 38.9572L36.4745 36.9647C34.6985 37.1193 30.3495 36.9477 25.716 32.653L24.3564 34.1198ZM37.5562 37.8609L37.402 36.3265L35.412 36.5265L35.5662 38.0609L37.5562 37.8609ZM26.8818 31.5613C22.8006 27.7777 22.2115 24.6919 22.1395 23.512L20.1432 23.6339C20.2474 25.34 21.0731 28.9034 25.5221 33.028L26.8818 31.5613ZM21.0885 22.5743L19.438 22.6616L19.5436 24.6588L21.1941 24.5715L21.0885 22.5743ZM18.4926 23.7208C18.6188 25.8 19.6132 29.7241 24.3565 34.1199L25.716 32.653C21.3406 28.5982 20.5832 25.1521 20.489 23.5997L18.4926 23.7208ZM28.3975 26.6801L28.7138 26.3864L27.3526 24.9211L27.0364 25.2148L28.3975 26.6801ZM28.7174 24.9245L27.5539 23.8327L26.1854 25.2912L27.3489 26.383L28.7174 24.9245ZM26.1904 23.8281L25.8741 24.1208L27.2327 25.5886L27.549 25.2958L26.1904 23.8281ZM25.8688 25.5836L27.0323 26.6764L28.4016 25.2186L27.238 24.1258L25.8688 25.5836ZM29.0642 21.2944L27.6759 19.5649L26.1163 20.8168L27.5045 22.5464L29.0642 21.2944ZM26.3234 19.371L25.0002 20.2954L26.1455 21.935L27.4688 21.0106L26.3234 19.371ZM24.7932 21.7414L26.1814 23.4699L27.7408 22.2175L26.3525 20.489L24.7932 21.7414ZM27.5333 23.6638L28.8566 22.7405L27.7122 21.1003L26.3889 22.0236L27.5333 23.6638ZM21.5438 19.0803L19.8139 20.6825L21.173 22.1498L22.9028 20.5476L21.5438 19.0803ZM19.8095 22.1457L20.9753 23.2385L22.3431 21.7793L21.1774 20.6866L19.8095 22.1457ZM22.3389 23.2423L24.0677 21.6401L22.7082 20.1733L20.9794 21.7755L22.3389 23.2423ZM27.8184 24.6709C27.527 24.3982 27.38 24.2606 27.3061 24.1918C27.2712 24.1592 27.2469 24.1367 27.231 24.1223C27.2265 24.1182 27.2195 24.1119 27.2113 24.1048C27.2066 24.1007 27.1861 24.0828 27.1591 24.0622C27.1469 24.0529 27.1146 24.0286 27.0706 24.0018C27.0587 23.9946 26.9097 23.8979 26.6941 23.8668C26.5664 23.8483 26.3365 23.8414 26.0909 23.9688C25.8296 24.1043 25.6912 24.3179 25.6257 24.478C25.5679 24.6193 25.5573 24.7394 25.5542 24.7801C25.5521 24.8066 25.5516 24.8277 25.5514 24.8388C25.5513 24.8447 25.5513 24.8495 25.5512 24.8523C25.5512 24.8534 25.5512 24.8551 25.5512 24.8556C25.5512 24.8562 25.5512 24.8567 25.5512 24.8567H27.5512C27.5512 24.8478 27.5518 24.8878 27.5483 24.9332C27.5452 24.9739 27.5346 25.0939 27.4768 25.2352C27.4113 25.3952 27.2729 25.6088 27.0117 25.7442C26.7661 25.8716 26.5363 25.8647 26.4086 25.8463C26.1931 25.8152 26.0444 25.7186 26.0328 25.7115C25.9891 25.685 25.9573 25.6609 25.9456 25.652C25.9198 25.6323 25.901 25.6159 25.8989 25.614C25.8958 25.6113 25.8935 25.6092 25.8922 25.6081C25.8908 25.6069 25.89 25.6061 25.8898 25.6059C25.8897 25.6059 25.8929 25.6088 25.9026 25.6178C25.9117 25.6262 25.9244 25.638 25.9424 25.6547C26.0145 25.7219 26.1595 25.8576 26.452 26.1313L27.8184 24.6709ZM26.5512 23.8567H26.549V25.8567H26.5512V23.8567ZM25.77 24.2298L25.7667 24.2339L27.3248 25.4878L27.3281 25.4837L25.77 24.2298ZM25.8609 24.1322C25.7594 24.2275 25.6675 24.3332 25.5871 24.4479L27.2245 25.5963C27.2254 25.595 27.2273 25.5926 27.2306 25.5895L25.8609 24.1322ZM25.5958 24.4356C25.495 24.5749 25.388 24.7534 25.2988 24.9747L27.1536 25.7227C27.1746 25.6708 27.1976 25.6337 27.2157 25.6086L25.5958 24.4356ZM25.2915 24.9932C25.0919 25.518 25.0414 26.0853 25.1471 26.6369L27.1114 26.2605C27.0759 26.0755 27.0923 25.8846 27.1609 25.7042L25.2915 24.9932ZM25.1428 26.6126C25.3441 27.8241 26.1914 29.1866 27.935 30.8033L29.2949 29.3368C27.6757 27.8354 27.2097 26.8501 27.1157 26.2847L25.1428 26.6126ZM30.4602 28.2437C28.9483 26.8432 28.7645 26.1446 28.7487 26.049L26.7756 26.3759C26.8986 27.1183 27.464 28.1945 29.1011 29.7109L30.4602 28.2437ZM28.7486 26.0488C28.7433 26.0167 28.7662 26.1176 28.6888 26.2939L26.8574 25.4901C26.7602 25.7116 26.7148 26.0097 26.7756 26.3761L28.7486 26.0488ZM28.6737 26.3268C28.6781 26.3177 28.6881 26.2968 28.6989 26.271C28.7039 26.2592 28.715 26.2323 28.7266 26.1974C28.7324 26.1801 28.7422 26.1492 28.7514 26.1099C28.758 26.0819 28.7781 25.9944 28.7781 25.8802C28.7781 25.8227 28.7735 25.7131 28.7328 25.5827C28.6915 25.45 28.593 25.2357 28.365 25.0704C27.8669 24.7092 27.3719 24.964 27.3179 24.992C27.1964 25.0549 27.1173 25.1285 27.0956 25.1488C27.0624 25.1796 27.0382 25.2065 27.0253 25.2212C26.9824 25.27 26.9525 25.3144 26.9499 25.3181L28.5964 26.4536C28.5929 26.4585 28.5866 26.4676 28.5781 26.479C28.5716 26.4879 28.5537 26.5117 28.5284 26.5405C28.5159 26.5547 28.4921 26.5812 28.4593 26.6118C28.4378 26.6317 28.359 26.7051 28.2376 26.768C28.1839 26.7958 27.6891 27.0506 27.191 26.6896C26.9631 26.5243 26.8646 26.31 26.8233 26.1774C26.7827 26.047 26.7781 25.9376 26.7781 25.8802C26.7781 25.7663 26.7981 25.6791 26.8047 25.6515C26.8138 25.6127 26.8234 25.5823 26.829 25.5656C26.8402 25.532 26.8507 25.5067 26.8548 25.4969C26.864 25.475 26.8715 25.4595 26.8726 25.4573L28.6737 26.3268ZM26.9513 25.3162C26.9735 25.2841 26.998 25.2546 27.0242 25.2277L28.456 26.6241C28.5066 26.5722 28.5532 26.5159 28.595 26.4555L26.9513 25.3162ZM27.0583 25.1944L27.0472 25.2047L28.4109 26.6677L28.4219 26.6574L27.0583 25.1944ZM27.0863 25.1701L27.0753 25.1793L28.3608 26.7115L28.3718 26.7023L27.0863 25.1701ZM28.4006 25.2146L27.8177 24.6702L26.4527 26.1319L27.0355 26.6763L28.4006 25.2146ZM27.9352 30.8036C29.6891 32.4288 31.1367 33.1866 32.3769 33.3628L32.6582 31.3827C31.9901 31.2877 30.9057 30.8295 29.2946 29.3366L27.9352 30.8036ZM32.3759 33.3626C33.0161 33.4542 33.5709 33.386 34.0258 33.228L33.3694 31.3388C33.2272 31.3882 32.9953 31.4309 32.6592 31.3828L32.3759 33.3626ZM34.0203 33.2299C34.2839 33.14 34.5329 33.0101 34.757 32.8435L33.5638 31.2385C33.5094 31.2789 33.4458 31.3127 33.3749 31.3369L34.0203 33.2299ZM34.8031 32.8071L34.8582 32.7609L33.5728 31.2287L33.5177 31.2749L34.8031 32.8071ZM34.8396 32.776L34.8474 32.7699L33.599 31.2073L33.5913 31.2135L34.8396 32.776ZM34.905 32.7201L34.9083 32.717L33.5446 31.254L33.5413 31.2571L34.905 32.7201ZM35.1078 32.458L35.1089 32.456L33.3463 31.511L33.3452 31.513L35.1078 32.458ZM34.2276 31.9835C34.9094 32.715 35.0671 32.5267 35.1742 32.3057C35.1938 32.2413 35.2238 32.0704 35.2274 31.964C35.2242 31.8027 35.1824 31.6816 35.1638 31.6321C35.1242 31.5265 35.0752 31.4525 35.0633 31.4344C35.0295 31.3828 34.998 31.3459 34.992 31.3387C34.9718 31.3148 34.9547 31.2969 34.9515 31.2936C34.9406 31.2821 34.9315 31.2732 34.9294 31.2711C34.9227 31.2645 34.9161 31.2581 34.9108 31.253C34.8989 31.2416 34.8786 31.2223 34.8419 31.1877C34.7679 31.1178 34.6214 30.9799 34.3297 30.7065L32.9619 32.1656C33.2531 32.4386 33.3975 32.5744 33.4686 32.6416C33.5045 32.6755 33.5203 32.6906 33.5265 32.6966C33.5302 32.7001 33.528 32.698 33.5236 32.6936C33.5225 32.6926 33.514 32.6842 33.5034 32.673C33.5003 32.6699 33.4833 32.6521 33.4631 32.6282C33.4571 32.621 33.4257 32.5841 33.3918 32.5326C33.3799 32.5145 33.331 32.4404 33.2913 32.3348C33.2728 32.2853 33.2309 32.1643 33.2278 32.003C33.2314 31.8966 33.2614 31.7256 33.2809 31.6612C33.388 31.4402 33.5458 31.2519 34.2276 31.9835ZM34.329 30.7058C34.0375 30.433 33.8946 30.2983 33.8252 30.2324C33.7899 30.1989 33.7766 30.186 33.7735 30.1829C33.7706 30.1801 33.7777 30.1869 33.788 30.1976C33.7903 30.2 33.8089 30.2193 33.831 30.2456C33.8359 30.2514 33.8748 30.2968 33.9146 30.3609C33.924 30.3761 33.996 30.4873 34.0358 30.648C34.0545 30.7235 34.0993 30.9351 34.0186 31.1904C33.9739 31.3314 33.8924 31.4792 33.762 31.6059C33.6983 31.6627 33.596 31.7361 33.5612 31.7569C33.4639 31.8057 33.3619 31.8436 33.0652 30.8886C32.7684 29.9337 32.6664 29.9716 32.5691 30.0203C32.5343 30.0412 32.432 30.1146 32.3683 30.1714C32.238 30.298 32.1564 30.4458 32.1118 30.5869C32.031 30.8421 32.0758 31.0537 32.0945 31.1293C32.1344 31.2899 32.2063 31.4012 32.2158 31.4164C32.2556 31.4805 32.2945 31.526 32.2995 31.5319C32.3218 31.5585 32.341 31.5784 32.3444 31.5818C32.3567 31.5948 32.3681 31.6059 32.374 31.6117C32.3885 31.6259 32.4109 31.6474 32.4478 31.6825C32.5228 31.7537 32.6702 31.8927 32.9626 32.1663L34.329 30.7058ZM33.747 31.6201L33.7492 31.6181L32.3855 30.1551L32.3833 30.1571L33.747 31.6201ZM33.7494 31.6179L33.7516 31.6158L32.3875 30.1532L32.3853 30.1553L33.7494 31.6179ZM33.6829 31.6743L33.6895 31.6692L32.4628 30.0896L32.4562 30.0947L33.6829 31.6743ZM33.758 31.6109L33.7691 31.6006L32.4053 30.1376L32.3943 30.1479L33.758 31.6109ZM33.6799 31.6745L33.7218 31.6437L32.5364 30.0329L32.4945 30.0637L33.6799 31.6745ZM33.6431 31.6961C33.6444 31.6953 33.677 31.6762 33.7134 31.6503C33.7239 31.6428 33.748 31.6255 33.7768 31.6014C33.7913 31.5893 33.8159 31.568 33.8444 31.5393C33.8662 31.5174 33.9255 31.4565 33.9829 31.3647C34.0056 31.3284 34.217 31.0074 34.1011 30.5752C33.9492 30.0088 33.4479 29.8741 33.3101 29.8496C33.1514 29.8214 33.0251 29.8396 32.9913 29.8445C32.9394 29.8521 32.8988 29.8622 32.8775 29.8679C32.8069 29.8867 32.7524 29.9102 32.7506 29.9109C32.7345 29.9176 32.7217 29.9233 32.7152 29.9263C32.7014 29.9326 32.6895 29.9384 32.6826 29.9418L33.5601 31.739C33.5599 31.7391 33.5587 31.7396 33.5568 31.7406C33.555 31.7414 33.5511 31.7433 33.5458 31.7457C33.5416 31.7476 33.5306 31.7526 33.516 31.7586C33.5156 31.7588 33.4621 31.7819 33.3922 31.8005C33.3711 31.8061 33.3306 31.8162 33.2788 31.8238C33.2451 31.8287 33.1189 31.8469 32.9603 31.8187C32.8225 31.7943 32.3212 31.6596 32.1694 31.0932C32.0535 30.661 32.2648 30.3401 32.2875 30.3038C32.3449 30.2121 32.4042 30.1513 32.4258 30.1294C32.4543 30.1009 32.4788 30.0797 32.4931 30.0677C32.5216 30.0438 32.5453 30.0268 32.5553 30.0197C32.5772 30.0041 32.5947 29.9931 32.5996 29.99C32.6069 29.9854 32.6125 29.9821 32.6151 29.9805L33.6431 31.6961ZM32.8032 29.8923C32.8237 29.8855 32.8471 29.8786 32.8715 29.8733C32.8945 29.8683 32.9125 29.8658 32.9251 29.8647C32.9504 29.8624 32.9471 29.8659 32.9093 29.8606L32.6282 31.8407C32.9991 31.8934 33.2641 31.8472 33.4395 31.7884L32.8032 29.8923ZM32.9114 29.8609C32.7394 29.8361 31.9616 29.6354 30.4605 28.2439L29.1009 29.7107C30.7465 31.236 31.8858 31.7337 32.6261 31.8404L32.9114 29.8609ZM27.6752 19.5629C26.2049 17.7355 23.3293 17.4255 21.5436 19.0805L22.903 20.5474C23.7992 19.7169 25.3396 19.8506 26.117 20.8167L27.6752 19.5629ZM24.0677 21.6401C24.1304 21.582 24.25 21.53 24.4088 21.5431C24.5618 21.5557 24.7 21.6254 24.7932 21.7415L26.3524 20.4889C25.4412 19.3547 23.7322 19.2241 22.7081 20.1733L24.0677 21.6401ZM26.1459 21.9347L27.4692 21.0093L26.323 19.3703L24.9997 20.2957L26.1459 21.9347ZM22.1405 23.5121C22.1428 23.5494 22.1162 23.4498 22.3388 23.2435L20.9795 21.7764C20.475 22.2438 20.0979 22.8878 20.1443 23.6358L22.1405 23.5121ZM22.3427 21.78L21.1759 20.6873L19.8088 22.147L20.9756 23.2398L22.3427 21.78ZM19.8125 20.6838C19.084 21.3591 18.4122 22.4069 18.4927 23.7213L20.4889 23.5991C20.457 23.0771 20.7174 22.5721 21.1722 22.1505L19.8125 20.6838ZM19.543 24.6589L21.1946 24.5726L21.0903 22.5753L19.4386 22.6616L19.543 24.6589ZM36.6793 35.2287C36.5008 35.3951 36.3758 35.4267 36.3231 35.4312L36.4931 37.4239C37.0904 37.373 37.6177 37.0882 38.043 36.6917L36.6793 35.2287ZM35.413 36.5269L35.5662 38.0603L37.5563 37.8615L37.4031 36.3282L35.413 36.5269ZM36.6484 38.9571C37.7304 38.8624 38.592 38.3556 39.2063 37.7868L37.8475 36.3192C37.4745 36.6645 37.0117 36.9177 36.474 36.9647L36.6484 38.9571ZM39.2108 36.3234L38.0451 35.2307L36.6772 36.6898L37.8429 37.7826L39.2108 36.3234ZM28.7128 26.3873C30.1979 25.0114 30.2945 22.8268 29.0653 21.2955L27.5056 22.5474C28.1033 23.292 28.0391 24.2851 27.3536 24.9202L28.7128 26.3873ZM27.7133 21.1013L26.39 22.0247L27.5344 23.6648L28.8577 22.7415L27.7133 21.1013ZM26.1821 23.4704C26.2516 23.557 26.2641 23.6317 26.2609 23.6818C26.2574 23.7341 26.2355 23.7862 26.1876 23.8307L27.5496 25.2953C28.4148 24.4906 28.5055 23.1706 27.7423 22.2191L26.1821 23.4704ZM26.185 25.2929L27.3496 26.3836L28.7167 24.9239L27.5521 23.8331L26.185 25.2929ZM38.0706 33.2823C38.2452 33.3707 38.3013 33.4889 38.3148 33.568C38.3292 33.6524 38.3042 33.7236 38.2469 33.7768L39.6068 35.2433C40.8028 34.1342 40.4339 32.2375 38.9744 31.4981L38.0706 33.2823ZM38.2432 35.2399L39.409 36.3317L40.7761 34.8719L39.6104 33.7801L38.2432 35.2399ZM40.7725 36.335C42.8257 34.4311 42.1042 31.33 39.7619 30.1443L38.8586 31.9287C40.1237 32.5691 40.3122 34.0343 39.4126 34.8685L40.7725 36.335ZM38.446 30.5335L37.6582 31.8872L39.3867 32.8932L40.1745 31.5395L38.446 30.5335ZM35.4111 32.2515C35.5071 32.1624 35.732 32.0975 35.9662 32.2157L36.8676 30.4304C35.9383 29.9612 34.8013 30.0894 34.0512 30.785L35.4111 32.2515ZM37.2807 31.8269L38.0696 30.4743L36.342 29.4666L35.5531 30.8193L37.2807 31.8269ZM37.6582 29.0787C36.1167 28.2966 34.1792 28.4945 32.886 29.6916L34.2447 31.1593C34.882 30.5693 35.9061 30.4324 36.7533 30.8622L37.6582 29.0787ZM32.8815 31.155L34.0472 32.2478L35.415 30.7887L34.2493 29.6959L32.8815 31.155Z" fill="#755CCE" mask="url(#path-2-inside-1_109_78)"/>
</svg>
