<svg width="44" height="45" viewBox="0 0 44 45" fill="none" xmlns="http://www.w3.org/2000/svg">
<path fill-rule="evenodd" clip-rule="evenodd" d="M22 44.5C34.1503 44.5 44 34.6503 44 22.5C44 10.3497 34.1503 0.5 22 0.5C9.84974 0.5 0 10.3497 0 22.5C0 34.6503 9.84974 44.5 22 44.5ZM12.5268 29.7743C12.9573 30.2048 13.475 30.42 14.08 30.42H29.48C30.0857 30.4207 30.6038 30.2055 31.0343 29.7743C31.4648 29.3431 31.68 28.825 31.68 28.22V12.82C31.6807 12.2157 31.4655 11.698 31.0343 11.2668C30.6031 10.8356 30.085 10.62 29.48 10.62H14.08C13.4757 10.6207 12.958 10.8363 12.5268 11.2668C12.0956 11.6973 11.88 12.215 11.88 12.82V28.22C11.8807 28.8257 12.0963 29.3438 12.5268 29.7743ZM17.655 28.22H14.08V12.82H16.28V22.17C16.2807 22.4809 16.3863 22.742 16.5968 22.9532C16.8073 23.1644 17.0683 23.27 17.38 23.27H17.655V28.22ZM29.48 28.22H25.905V23.27H26.18C26.4909 23.2707 26.752 23.1655 26.9632 22.9543C27.1744 22.7431 27.28 22.4817 27.28 22.17V12.82H29.48V28.22ZM24.255 28.22H19.305V23.27H19.58C19.8909 23.2707 20.152 23.1655 20.3632 22.9543C20.5744 22.7431 20.68 22.4817 20.68 22.17V12.82H22.88V22.17C22.8807 22.4809 22.9863 22.742 23.1968 22.9532C23.4073 23.1644 23.6683 23.27 23.98 23.27H24.255V28.22Z" fill="#DBD7E9"/>
</svg>
