<svg width="433" height="317" viewBox="0 0 433 317" fill="none" xmlns="http://www.w3.org/2000/svg">
<path d="M16.0439 4.63867L9.52344 20H7.32129L0.768555 4.63867H2.86328L8.49219 17.9375L13.9814 4.63867H16.0439ZM21.9629 14.7363C20.237 14.7363 19.374 15.3451 19.374 16.5625C19.374 17.7799 20.0544 18.3887 21.415 18.3887C22.79 18.3887 23.9538 18.0234 24.9062 17.293V14.9512C23.9251 14.8079 22.944 14.7363 21.9629 14.7363ZM26.9258 13.2754H33.0273C32.9844 11.2988 32.0176 10.3105 30.127 10.3105C28.1217 10.3105 27.0547 11.2988 26.9258 13.2754ZM26.2275 18.4102C24.6305 19.4701 23.0264 20 21.415 20C18.7295 20 17.3867 18.8649 17.3867 16.5947C17.3867 14.2816 18.9121 13.125 21.9629 13.125C22.944 13.125 23.9251 13.1966 24.9062 13.3398V12.2764C24.9062 10.9801 23.8929 10.332 21.8662 10.332C20.7061 10.332 19.5173 10.5111 18.2998 10.8691V9.25781C19.5173 8.89974 20.7061 8.7207 21.8662 8.7207C23.986 8.7207 25.4362 9.1862 26.2168 10.1172C27.0833 9.1862 28.3867 8.7207 30.127 8.7207C33.3353 8.7207 34.9395 10.307 34.9395 13.4795C34.9395 13.9307 34.9072 14.4141 34.8428 14.9297H26.9258C26.9258 17.2357 28.2721 18.3887 30.9648 18.3887C32.1751 18.3887 33.3138 18.2454 34.3809 17.959V19.5703C33.3854 19.8568 32.1751 20 30.75 20C28.7448 20 27.2373 19.4701 26.2275 18.4102ZM37.625 20V8.7207H38.9678L39.3223 10.1602C40.3105 9.20052 41.4993 8.7207 42.8887 8.7207V10.375C41.5423 10.375 40.4502 10.8512 39.6123 11.8037V20H37.625ZM44.8867 20V4.63867H46.874V9.60156C47.9697 9.01432 49.2337 8.7207 50.666 8.7207C53.4733 8.7207 54.877 9.80566 54.877 11.9756C54.877 13.5511 53.8027 14.6396 51.6543 15.2412L55.2637 20H52.75L49.1621 15.2197V14.3281C51.6471 14.1061 52.8896 13.3184 52.8896 11.9648C52.8896 10.8763 52.1019 10.332 50.5264 10.332C49.2874 10.332 48.07 10.6686 46.874 11.3418V20H44.8867ZM57.584 6.89453H58.8301L59.2598 8.7207H62.3105V10.332H59.5713V16.8096C59.5713 17.8623 60.026 18.3887 60.9355 18.3887H62.3105V20H60.4199C58.5293 20 57.584 18.9867 57.584 16.96V6.89453ZM71.5166 10.751C71.0225 10.4717 70.4102 10.332 69.6797 10.332C67.4238 10.332 66.2959 11.6605 66.2959 14.3174C66.2959 15.3916 66.4714 16.2546 66.8223 16.9062L71.5166 10.751ZM68.0576 18.0771C68.5088 18.2848 69.0495 18.3887 69.6797 18.3887C71.9355 18.3887 73.0635 17.0316 73.0635 14.3174C73.0635 13.4007 72.9274 12.6416 72.6553 12.04L68.0576 18.0771ZM73.9229 10.375C74.6748 11.3132 75.0508 12.6416 75.0508 14.3604C75.0508 18.113 73.2604 19.9893 69.6797 19.9893C68.6198 19.9893 67.7174 19.8245 66.9727 19.4951L66.5859 20H64.4697L65.5977 18.5176C64.7454 17.5794 64.3158 16.1937 64.3086 14.3604C64.3086 10.6006 66.099 8.7207 69.6797 8.7207C70.847 8.7207 71.8245 8.92122 72.6123 9.32227L73.0635 8.7207H75.1904L73.9229 10.375ZM79.9385 8.7207V19.1406C79.9385 21.418 79.3835 23.1296 78.2734 24.2754L76.6084 23.1475C77.5036 22.1807 77.9512 20.8451 77.9512 19.1406V8.7207H79.9385ZM79.9385 4.63867V6.51855H77.9512V4.63867H79.9385ZM88.0381 8.7207C91.2464 8.7207 92.8506 10.307 92.8506 13.4795C92.8506 13.9307 92.8184 14.4141 92.7539 14.9297H84.8369C84.8369 17.2357 86.1833 18.3887 88.876 18.3887C90.1579 18.3887 91.2965 18.2454 92.292 17.959V19.5703C91.2965 19.8568 90.0863 20 88.6611 20C84.7868 20 82.8496 18.0771 82.8496 14.2314C82.8496 10.5576 84.5791 8.7207 88.0381 8.7207ZM84.8369 13.2754H90.9385C90.8955 11.2988 89.9287 10.3105 88.0381 10.3105C86.0329 10.3105 84.9658 11.2988 84.8369 13.2754ZM95.5254 20V8.7207H96.8682L97.2227 10.1602C98.2109 9.20052 99.3997 8.7207 100.789 8.7207V10.375C99.4427 10.375 98.3506 10.8512 97.5127 11.8037V20H95.5254Z" fill="#161719"/>
<path fill-rule="evenodd" clip-rule="evenodd" d="M28.5 49C28.5 56.732 22.232 63 14.5 63C6.76801 63 0.5 56.732 0.5 49C0.5 41.268 6.76801 35 14.5 35C22.232 35 28.5 41.268 28.5 49ZM17.4871 45.6658C18.2703 45.6437 19.0137 45.3356 19.5594 44.8067C20.1051 44.2778 20.4104 43.5699 20.4104 42.8329C20.4104 42.096 20.1051 41.388 19.5594 40.8591C19.0137 40.3303 18.2703 40.0221 17.4871 40H11.4615C10.6782 40.0221 9.9349 40.3303 9.38917 40.8591C8.84344 41.388 8.53821 42.096 8.53821 42.8329C8.53821 43.5699 8.84344 44.2778 9.38917 44.8067C9.9349 45.3356 10.6782 45.6437 11.4615 45.6658C10.6714 45.6787 9.91824 45.9829 9.36431 46.5129C8.81039 47.043 8.5 47.7564 8.5 48.4996C8.5 49.2427 8.81039 49.9562 9.36431 50.4862C9.91824 51.0162 10.6714 51.3205 11.4615 51.3333C10.6752 51.3514 9.92765 51.6579 9.37837 52.1873C8.82908 52.7167 8.52162 53.427 8.52162 54.1667C8.52162 54.9063 8.82908 55.6167 9.37837 56.146C9.92765 56.6754 10.6752 56.9819 11.4615 57C12.2605 56.9995 13.0267 56.7008 13.5916 56.1693C14.1566 55.6379 14.474 54.9173 14.4743 54.1658V45.6658H17.4871ZM20.4999 48.4993C20.4999 50.0642 19.1511 51.3327 17.4872 51.3327C15.8232 51.3327 14.4744 50.0642 14.4744 48.4993C14.4744 46.9345 15.8232 45.666 17.4872 45.666C19.1511 45.666 20.4999 46.9345 20.4999 48.4993Z" fill="#161719"/>
<g clip-path="url(#clip0_63_649)">
<rect x="38.5" y="35.5" width="213.6" height="27" fill="#161719"/>
<path d="M145.306 51.3945C145.306 50.208 145.921 49.4243 147.151 49.0435C146.116 48.6284 145.599 47.8154 145.599 46.6045C145.599 44.8174 146.771 43.9238 149.114 43.9238C151.458 43.9238 152.63 44.8174 152.63 46.6045C152.63 47.8154 152.1 48.6284 151.041 49.0435C152.295 49.4243 152.923 50.208 152.923 51.3945C152.923 53.5137 151.653 54.5732 149.114 54.5732C146.575 54.5732 145.306 53.5137 145.306 51.3945ZM149.151 48.7139C150.958 48.7139 151.861 48.0596 151.861 46.751C151.861 45.3252 150.926 44.6123 149.056 44.6123C147.264 44.6123 146.368 45.3252 146.368 46.751C146.368 48.0596 147.295 48.7139 149.151 48.7139ZM149.151 53.9141C151.153 53.9141 152.154 53.0889 152.154 51.4385C152.154 50.0615 151.121 49.373 149.056 49.373C147.068 49.373 146.075 50.0615 146.075 51.4385C146.075 53.0889 147.1 53.9141 149.151 53.9141ZM162.151 48.0327C162.151 50.7476 160.545 53.001 157.332 54.793L156.922 54.229C159.114 52.9448 160.467 51.6289 160.979 50.2812C160.096 50.5889 159.227 50.7427 158.372 50.7427C155.813 50.7427 154.534 49.644 154.534 47.4468C154.534 45.103 155.787 43.9312 158.292 43.9312C160.865 43.9312 162.151 45.2983 162.151 48.0327ZM161.456 48.0767C161.456 45.7524 160.379 44.5903 158.226 44.5903C156.258 44.5903 155.274 45.5425 155.274 47.4468C155.274 49.2046 156.304 50.0835 158.365 50.0835C159.41 50.0835 160.347 49.9175 161.177 49.5854C161.363 49.2437 161.456 48.7407 161.456 48.0767ZM164.312 54.5H163.396L170.845 44.0264H171.761L164.312 54.5ZM164.129 45.8428C164.129 46.707 164.563 47.1392 165.433 47.1392C166.282 47.1392 166.707 46.707 166.707 45.8428C166.707 44.9932 166.282 44.5684 165.433 44.5684C164.563 44.5684 164.129 44.9932 164.129 45.8428ZM163.396 45.8574C163.396 44.5879 164.075 43.9531 165.433 43.9531C166.771 43.9531 167.439 44.5879 167.439 45.8574C167.439 47.1221 166.771 47.7544 165.433 47.7544C164.075 47.7544 163.396 47.1221 163.396 45.8574ZM168.45 52.6616C168.45 53.5259 168.885 53.958 169.754 53.958C170.604 53.958 171.028 53.5259 171.028 52.6616C171.028 51.812 170.604 51.3872 169.754 51.3872C168.885 51.3872 168.45 51.812 168.45 52.6616ZM167.718 52.6763C167.718 51.4067 168.396 50.772 169.754 50.772C171.092 50.772 171.761 51.4067 171.761 52.6763C171.761 53.9409 171.092 54.5732 169.754 54.5732C168.396 54.5732 167.718 53.9409 167.718 52.6763Z" fill="#DBD7E9"/>
</g>
<rect x="39" y="36" width="239" height="26" stroke="#161719"/>
<path d="M301.853 41.1387L301.659 42.1055H292.7L291.476 48.2285H300.069L299.876 49.1953H291.282L289.821 56.5H288.693L291.766 41.1387H301.853ZM305.827 41.1387L305.569 42.4277H304.227L304.484 41.1387H305.827ZM304.903 45.2207L302.647 56.5H301.52L303.775 45.2207H304.903ZM315.85 46.4883C314.919 46.3164 313.952 46.2305 312.949 46.2305C310.264 46.2305 308.613 47.7809 307.997 50.8818C307.388 53.9111 308.004 55.4258 309.845 55.4258C311.592 55.4258 313.182 54.5163 314.614 52.6973L315.85 46.4883ZM314.979 56.5C314.435 59.2214 312.505 60.582 309.189 60.582C307.8 60.582 306.604 60.403 305.602 60.0449L305.795 59.0781C306.819 59.4362 308.022 59.6152 309.404 59.6152C311.954 59.6152 313.436 58.5768 313.852 56.5L314.389 53.8145C312.899 55.6048 311.309 56.5 309.619 56.5C307.055 56.5 306.146 54.6344 306.891 50.9033C307.65 47.1149 309.766 45.2207 313.239 45.2207C314.765 45.2207 316.064 45.3747 317.139 45.6826L314.979 56.5ZM318.428 56.5L320.684 45.2207H321.597L321.146 48.5723C322.606 46.3379 324.225 45.2207 326.001 45.2207C328.078 45.2207 328.898 46.3092 328.461 48.4863C329.986 46.3092 331.63 45.2207 333.392 45.2207C335.483 45.2207 336.288 46.4202 335.809 48.8193L334.272 56.5H333.145L334.681 48.8193C335.024 47.0934 334.523 46.2305 333.177 46.2305C331.329 46.2305 329.703 47.4336 328.3 49.8398L326.968 56.5H325.84L327.376 48.8193C327.72 47.0934 327.19 46.2305 325.786 46.2305C324.024 46.2305 322.392 47.4336 320.888 49.8398L319.556 56.5H318.428ZM347.26 46.4883C346.329 46.3164 345.362 46.2305 344.359 46.2305C341.674 46.2305 340.023 47.7809 339.407 50.8818C338.799 53.9111 339.414 55.4258 341.255 55.4258C343.002 55.4258 344.592 54.5163 346.024 52.6973L347.26 46.4883ZM346.39 56.5H345.477L345.799 53.8145C344.309 55.6048 342.719 56.5 341.029 56.5C338.465 56.5 337.556 54.6344 338.301 50.9033C339.06 47.1149 341.176 45.2207 344.649 45.2207C346.175 45.2207 347.475 45.3747 348.549 45.6826L346.39 56.5Z" fill="#161719"/>
<path fill-rule="evenodd" clip-rule="evenodd" d="M14.5 100C22.232 100 28.5 93.732 28.5 86C28.5 78.268 22.232 72 14.5 72C6.76801 72 0.5 78.268 0.5 86C0.5 93.732 6.76801 100 14.5 100ZM9.8082 78.86C9.35487 78.98 9.01487 79.1067 8.7882 79.24C8.69487 79.48 8.56154 79.8267 8.3882 80.28C8.2282 80.7333 8.0482 81.2533 7.8482 81.84C7.6482 82.4133 7.43487 83.0267 7.2082 83.68C6.98154 84.3333 6.7682 84.9733 6.5682 85.6C6.3682 86.2133 6.18154 86.7867 6.0082 87.32C5.8482 87.8533 5.72154 88.3 5.6282 88.66C5.56154 88.9133 5.50154 89.1333 5.4482 89.32C5.39487 89.5067 5.3682 89.6933 5.3682 89.88C5.3682 90.2933 5.5282 90.62 5.8482 90.86C6.18154 91.0867 6.6882 91.2 7.3682 91.2C7.66154 91.2 7.9082 91.1733 8.1082 91.12C8.32154 91.08 8.52154 91.0267 8.7082 90.96C8.81487 90.56 8.92154 90.1467 9.0282 89.72C9.13487 89.2933 9.24154 88.88 9.3482 88.48H12.9682L13.3282 89.86C13.3949 90.0867 13.4682 90.2867 13.5482 90.46C13.6415 90.6333 13.7549 90.7733 13.8882 90.88C14.0349 90.9867 14.2149 91.0667 14.4282 91.12C14.6549 91.1733 14.9282 91.2 15.2482 91.2C15.6882 91.2 16.0682 91.14 16.3882 91.02C16.7082 90.9133 16.9482 90.7667 17.1082 90.58C16.9082 89.8467 16.6749 89.0067 16.4082 88.06C16.1415 87.1 15.8682 86.1333 15.5882 85.16C15.3082 84.1733 15.0282 83.22 14.7482 82.3C14.4682 81.38 14.2082 80.5733 13.9682 79.88C13.8215 79.4667 13.4882 79.1667 12.9682 78.98C12.4615 78.78 11.8749 78.68 11.2082 78.68C10.7415 78.68 10.2749 78.74 9.8082 78.86ZM10.5482 83.7C10.7882 83.0067 11.0015 82.38 11.1882 81.82H11.3082C11.4682 82.3667 11.6415 82.9867 11.8282 83.68C12.0282 84.36 12.2215 85.06 12.4082 85.78H9.9282C10.1149 85.0733 10.3215 84.38 10.5482 83.7ZM18.9073 77.3C18.5739 77.6467 18.4073 78.0733 18.4073 78.58C18.4073 79.0867 18.5739 79.5133 18.9073 79.86C19.2539 80.2067 19.7073 80.38 20.2673 80.38C20.8273 80.38 21.2739 80.2067 21.6073 79.86C21.9539 79.5133 22.1273 79.0867 22.1273 78.58C22.1273 78.0733 21.9539 77.6467 21.6073 77.3C21.2739 76.9533 20.8273 76.78 20.2673 76.78C19.7073 76.78 19.2539 76.9533 18.9073 77.3ZM21.3073 91.08C21.6006 91.04 21.8206 91.0067 21.9673 90.98V82.84C21.9673 82.5067 21.9206 82.24 21.8273 82.04C21.7473 81.8267 21.6273 81.66 21.4673 81.54C21.3073 81.42 21.1073 81.34 20.8673 81.3C20.6406 81.26 20.3806 81.24 20.0873 81.24C19.7939 81.24 19.5006 81.2667 19.2073 81.32C18.9273 81.36 18.7139 81.3933 18.5673 81.42V89.56C18.5673 89.8933 18.6073 90.1667 18.6873 90.38C18.7806 90.58 18.9073 90.74 19.0673 90.86C19.2273 90.98 19.4206 91.06 19.6473 91.1C19.8873 91.14 20.1539 91.16 20.4473 91.16C20.7406 91.16 21.0273 91.1333 21.3073 91.08Z" fill="#161719"/>
<g clip-path="url(#clip1_63_649)">
<rect x="38.5" y="72.5" width="144" height="27" fill="#161719"/>
<path d="M142.306 87.4717C142.306 84.7568 143.912 82.5034 147.125 80.7114L147.462 81.2754C145.318 82.5596 143.99 83.8755 143.478 85.2231C144.361 84.9155 145.23 84.7617 146.085 84.7617C148.644 84.7617 149.923 85.8604 149.923 88.0576C149.923 90.4014 148.67 91.5732 146.166 91.5732C143.592 91.5732 142.306 90.2061 142.306 87.4717ZM143.001 87.4277C143.001 89.752 144.078 90.9141 146.231 90.9141C148.199 90.9141 149.183 89.9619 149.183 88.0576C149.183 86.2998 148.153 85.4209 146.092 85.4209C145.047 85.4209 144.11 85.5869 143.28 85.9189C143.094 86.2607 143.001 86.7637 143.001 87.4277ZM152.303 86.2339C152.303 89.354 153.531 90.9141 155.987 90.9141C158.39 90.9141 159.591 89.354 159.591 86.2339C159.591 83.1528 158.39 81.6123 155.987 81.6123C153.531 81.6123 152.303 83.1528 152.303 86.2339ZM151.461 86.2778C151.461 82.728 152.97 80.9531 155.987 80.9531C158.951 80.9531 160.433 82.728 160.433 86.2778C160.433 89.8081 158.951 91.5732 155.987 91.5732C153.126 91.5732 151.617 89.8081 151.461 86.2778ZM166.629 91.5H165.714L173.163 81.0264H174.078L166.629 91.5ZM166.446 82.8428C166.446 83.707 166.881 84.1392 167.75 84.1392C168.6 84.1392 169.024 83.707 169.024 82.8428C169.024 81.9932 168.6 81.5684 167.75 81.5684C166.881 81.5684 166.446 81.9932 166.446 82.8428ZM165.714 82.8574C165.714 81.5879 166.393 80.9531 167.75 80.9531C169.088 80.9531 169.757 81.5879 169.757 82.8574C169.757 84.1221 169.088 84.7544 167.75 84.7544C166.393 84.7544 165.714 84.1221 165.714 82.8574ZM170.768 89.6616C170.768 90.5259 171.202 90.958 172.071 90.958C172.921 90.958 173.346 90.5259 173.346 89.6616C173.346 88.812 172.921 88.3872 172.071 88.3872C171.202 88.3872 170.768 88.812 170.768 89.6616ZM170.035 89.6763C170.035 88.4067 170.714 87.772 172.071 87.772C173.409 87.772 174.078 88.4067 174.078 89.6763C174.078 90.9409 173.409 91.5732 172.071 91.5732C170.714 91.5732 170.035 90.9409 170.035 89.6763Z" fill="#DBD7E9"/>
</g>
<rect x="39" y="73" width="239" height="26" stroke="#161719"/>
<path d="M293.431 78.1387L290.358 93.5H289.23L292.303 78.1387H293.431ZM298.759 78.1387L295.687 93.5H294.559L297.631 78.1387H298.759ZM303.765 78.1387L300.692 93.5H299.564L302.637 78.1387H303.765ZM315.688 82.2207L313.433 93.5H312.52L312.981 90.127C311.213 92.3757 309.315 93.5 307.288 93.5C305.333 93.5 304.574 92.4079 305.011 90.2236L306.611 82.2207H307.739L306.139 90.2236C305.838 91.7347 306.307 92.4902 307.546 92.4902C309.544 92.4902 311.435 91.2979 313.218 88.9131L314.561 82.2207H315.688ZM316.773 92.9629L316.988 91.8887C318.156 92.3184 319.344 92.5332 320.555 92.5332C322.925 92.5332 324.261 91.7812 324.562 90.2773C324.805 89.0599 324.049 88.4512 322.295 88.4512H320.898C318.535 88.4512 317.554 87.4486 317.955 85.4434C318.385 83.2949 320.164 82.2207 323.294 82.2207C324.497 82.2207 325.689 82.3997 326.871 82.7578L326.656 83.832C325.489 83.4023 324.304 83.1875 323.101 83.1875C320.723 83.1875 319.384 83.9395 319.083 85.4434C318.825 86.7324 319.502 87.377 321.113 87.377H322.51C325.016 87.377 326.076 88.3438 325.689 90.2773C325.26 92.4258 323.484 93.5 320.361 93.5C319.151 93.5 317.955 93.321 316.773 92.9629ZM330.523 80.3945H331.211L331.05 82.2207H334.326L334.133 83.1875H331.061L329.632 90.3096C329.338 91.792 329.736 92.5332 330.824 92.5332H332.264L332.07 93.5H330.652C328.819 93.5 328.106 92.4867 328.515 90.46L330.523 80.3945ZM334.691 93.5L336.947 82.2207H337.86L337.27 86.2383C338.816 83.5599 340.464 82.2207 342.211 82.2207L341.985 83.3379C340.281 83.3379 338.645 84.6377 337.076 87.2373L335.819 93.5H334.691ZM351.6 83.4883C350.669 83.3164 349.702 83.2305 348.699 83.2305C346.014 83.2305 344.363 84.7809 343.747 87.8818C343.138 90.9111 343.754 92.4258 345.595 92.4258C347.342 92.4258 348.932 91.5163 350.364 89.6973L351.6 83.4883ZM350.729 93.5H349.816L350.139 90.8145C348.649 92.6048 347.059 93.5 345.369 93.5C342.805 93.5 341.896 91.6344 342.641 87.9033C343.4 84.1149 345.516 82.2207 348.989 82.2207C350.515 82.2207 351.814 82.3747 352.889 82.6826L350.729 93.5ZM356.756 80.3945H357.443L357.282 82.2207H360.559L360.365 83.1875H357.293L355.864 90.3096C355.571 91.792 355.968 92.5332 357.057 92.5332H358.496L358.303 93.5H356.885C355.051 93.5 354.339 92.4867 354.747 90.46L356.756 80.3945ZM362.653 87.8174C362.009 91.0329 362.993 92.6406 365.607 92.6406C368.221 92.6406 369.851 91.0329 370.495 87.8174C371.125 84.6592 370.133 83.0801 367.52 83.0801C364.906 83.0801 363.284 84.6592 362.653 87.8174ZM361.515 87.8604C362.281 84.029 364.347 82.1133 367.713 82.1133C371.079 82.1133 372.379 84.029 371.612 87.8604C370.846 91.6846 368.78 93.5967 365.414 93.5967C362.062 93.5967 360.763 91.6846 361.515 87.8604ZM373.385 93.5L375.641 82.2207H376.554L375.963 86.2383C377.51 83.5599 379.157 82.2207 380.904 82.2207L380.679 83.3379C378.974 83.3379 377.338 84.6377 375.77 87.2373L374.513 93.5H373.385Z" fill="#161719"/>
<path fill-rule="evenodd" clip-rule="evenodd" d="M14.5 137C22.232 137 28.5 130.732 28.5 123C28.5 115.268 22.232 109 14.5 109C6.76801 109 0.5 115.268 0.5 123C0.5 130.732 6.76801 137 14.5 137ZM10.9364 122.12C10.6431 122.373 10.2164 122.5 9.65641 122.5H8.59641V119.4C8.74307 119.373 8.88307 119.36 9.01641 119.36C9.16307 119.347 9.34307 119.34 9.55641 119.34C10.1564 119.34 10.6097 119.48 10.9164 119.76C11.2364 120.027 11.3964 120.413 11.3964 120.92C11.3964 121.453 11.2431 121.853 10.9364 122.12ZM7.91641 129.04C8.23641 129 8.46974 128.96 8.61641 128.92V125.24H10.0364C10.8497 125.24 11.5631 125.14 12.1764 124.94C12.8031 124.727 13.3164 124.433 13.7164 124.06C14.1297 123.673 14.4364 123.22 14.6364 122.7C14.8497 122.167 14.9564 121.573 14.9564 120.92C14.9564 119.573 14.4697 118.507 13.4964 117.72C12.5231 116.933 11.1164 116.54 9.27641 116.54C8.68974 116.54 8.10307 116.58 7.51641 116.66C6.94307 116.727 6.42974 116.84 5.97641 117C5.70974 117.093 5.49641 117.22 5.33641 117.38C5.18974 117.527 5.11641 117.74 5.11641 118.02V127.44C5.11641 127.787 5.15641 128.067 5.23641 128.28C5.31641 128.493 5.43641 128.66 5.59641 128.78C5.75641 128.9 5.94974 128.98 6.17641 129.02C6.41641 129.073 6.68974 129.1 6.99641 129.1C7.30307 129.1 7.60974 129.08 7.91641 129.04ZM23.4398 128.48C24.1998 127.907 24.5798 127.113 24.5798 126.1C24.5798 125.287 24.3065 124.627 23.7598 124.12C23.2265 123.6 22.3198 123.193 21.0398 122.9L20.4198 122.76C20.0465 122.68 19.7932 122.593 19.6598 122.5C19.5265 122.407 19.4598 122.287 19.4598 122.14C19.4598 121.927 19.5798 121.773 19.8198 121.68C20.0598 121.573 20.3998 121.52 20.8398 121.52C21.0532 121.52 21.2865 121.54 21.5398 121.58C21.8065 121.62 22.0665 121.673 22.3198 121.74C22.5732 121.793 22.8065 121.86 23.0198 121.94C23.2332 122.007 23.3932 122.073 23.4998 122.14C23.6732 121.993 23.8132 121.813 23.9198 121.6C24.0398 121.373 24.0998 121.107 24.0998 120.8C24.0998 120.48 24.0065 120.207 23.8198 119.98C23.6332 119.74 23.3798 119.547 23.0598 119.4C22.7398 119.253 22.3598 119.147 21.9198 119.08C21.4932 119 21.0332 118.96 20.5398 118.96C19.8865 118.96 19.2865 119.033 18.7398 119.18C18.2065 119.327 17.7465 119.533 17.3598 119.8C16.9732 120.067 16.6732 120.4 16.4598 120.8C16.2465 121.2 16.1398 121.647 16.1398 122.14C16.1398 123.047 16.4198 123.747 16.9798 124.24C17.5532 124.72 18.4198 125.073 19.5798 125.3L20.1798 125.42C20.5532 125.487 20.8198 125.573 20.9798 125.68C21.1398 125.787 21.2198 125.933 21.2198 126.12C21.2198 126.32 21.1065 126.48 20.8798 126.6C20.6665 126.72 20.3532 126.78 19.9398 126.78C19.2865 126.78 18.7065 126.7 18.1998 126.54C17.7065 126.367 17.2665 126.173 16.8798 125.96C16.6932 126.107 16.5332 126.293 16.3998 126.52C16.2665 126.733 16.1998 127 16.1998 127.32C16.1998 127.667 16.2932 127.967 16.4798 128.22C16.6798 128.473 16.9465 128.687 17.2798 128.86C17.6265 129.02 18.0398 129.14 18.5198 129.22C18.9998 129.3 19.5198 129.34 20.0798 129.34C21.5598 129.34 22.6798 129.053 23.4398 128.48Z" fill="#161719"/>
<g clip-path="url(#clip2_63_649)">
<rect x="38.5" y="109.5" width="144" height="27" fill="#161719"/>
<path d="M142.306 124.472C142.306 121.757 143.912 119.503 147.125 117.711L147.462 118.275C145.318 119.56 143.99 120.875 143.478 122.223C144.361 121.916 145.23 121.762 146.085 121.762C148.644 121.762 149.923 122.86 149.923 125.058C149.923 127.401 148.67 128.573 146.166 128.573C143.592 128.573 142.306 127.206 142.306 124.472ZM143.001 124.428C143.001 126.752 144.078 127.914 146.231 127.914C148.199 127.914 149.183 126.962 149.183 125.058C149.183 123.3 148.153 122.421 146.092 122.421C145.047 122.421 144.11 122.587 143.28 122.919C143.094 123.261 143.001 123.764 143.001 124.428ZM152.303 123.234C152.303 126.354 153.531 127.914 155.987 127.914C158.39 127.914 159.591 126.354 159.591 123.234C159.591 120.153 158.39 118.612 155.987 118.612C153.531 118.612 152.303 120.153 152.303 123.234ZM151.461 123.278C151.461 119.728 152.97 117.953 155.987 117.953C158.951 117.953 160.433 119.728 160.433 123.278C160.433 126.808 158.951 128.573 155.987 128.573C153.126 128.573 151.617 126.808 151.461 123.278ZM166.629 128.5H165.714L173.163 118.026H174.078L166.629 128.5ZM166.446 119.843C166.446 120.707 166.881 121.139 167.75 121.139C168.6 121.139 169.024 120.707 169.024 119.843C169.024 118.993 168.6 118.568 167.75 118.568C166.881 118.568 166.446 118.993 166.446 119.843ZM165.714 119.857C165.714 118.588 166.393 117.953 167.75 117.953C169.088 117.953 169.757 118.588 169.757 119.857C169.757 121.122 169.088 121.754 167.75 121.754C166.393 121.754 165.714 121.122 165.714 119.857ZM170.768 126.662C170.768 127.526 171.202 127.958 172.071 127.958C172.921 127.958 173.346 127.526 173.346 126.662C173.346 125.812 172.921 125.387 172.071 125.387C171.202 125.387 170.768 125.812 170.768 126.662ZM170.035 126.676C170.035 125.407 170.714 124.772 172.071 124.772C173.409 124.772 174.078 125.407 174.078 126.676C174.078 127.941 173.409 128.573 172.071 128.573C170.714 128.573 170.035 127.941 170.035 126.676Z" fill="#DBD7E9"/>
</g>
<rect x="39" y="110" width="239" height="26" stroke="#161719"/>
<path d="M288.693 130.5L291.766 115.139H298.211C301.204 115.139 302.418 116.546 301.853 119.36C301.301 122.132 298.555 123.897 293.613 124.656L293.624 123.625C297.821 123.059 300.141 121.666 300.585 119.446C301.022 117.241 300.102 116.138 297.824 116.138H292.689L289.821 130.5H288.693ZM302.271 130.5L305.344 115.139H306.472L304.979 122.594C306.747 120.345 308.574 119.221 310.457 119.221C312.555 119.221 313.386 120.313 312.949 122.497L311.349 130.5H310.221L311.821 122.497C312.122 120.986 311.581 120.23 310.199 120.23C308.344 120.23 306.525 121.423 304.742 123.808L303.399 130.5H302.271ZM316.526 124.817C315.882 128.033 316.867 129.641 319.48 129.641C322.094 129.641 323.724 128.033 324.368 124.817C324.998 121.659 324.007 120.08 321.393 120.08C318.779 120.08 317.157 121.659 316.526 124.817ZM315.388 124.86C316.154 121.029 318.22 119.113 321.586 119.113C324.952 119.113 326.252 121.029 325.485 124.86C324.719 128.685 322.653 130.597 319.287 130.597C315.936 130.597 314.636 128.685 315.388 124.86ZM329.836 117.395H330.523L330.362 119.221H333.639L333.445 120.188H330.373L328.944 127.31C328.651 128.792 329.048 129.533 330.137 129.533H331.576L331.383 130.5H329.965C328.132 130.5 327.419 129.487 327.827 127.46L329.836 117.395ZM335.733 124.817C335.089 128.033 336.074 129.641 338.688 129.641C341.301 129.641 342.931 128.033 343.575 124.817C344.205 121.659 343.214 120.08 340.6 120.08C337.986 120.08 336.364 121.659 335.733 124.817ZM334.595 124.86C335.361 121.029 337.427 119.113 340.793 119.113C344.159 119.113 345.459 121.029 344.692 124.86C343.926 128.685 341.86 130.597 338.494 130.597C335.143 130.597 333.843 128.685 334.595 124.86ZM346.357 129.963L346.572 128.889C347.74 129.318 348.928 129.533 350.139 129.533C352.509 129.533 353.845 128.781 354.146 127.277C354.389 126.06 353.633 125.451 351.879 125.451H350.482C348.119 125.451 347.138 124.449 347.539 122.443C347.969 120.295 349.748 119.221 352.878 119.221C354.081 119.221 355.273 119.4 356.455 119.758L356.24 120.832C355.073 120.402 353.888 120.188 352.685 120.188C350.307 120.188 348.968 120.939 348.667 122.443C348.409 123.732 349.086 124.377 350.697 124.377H352.094C354.6 124.377 355.66 125.344 355.273 127.277C354.844 129.426 353.068 130.5 349.945 130.5C348.735 130.5 347.539 130.321 346.357 129.963ZM357.529 130.5L360.602 115.139H361.729L360.236 122.594C362.005 120.345 363.831 119.221 365.715 119.221C367.813 119.221 368.644 120.313 368.207 122.497L366.606 130.5H365.479L367.079 122.497C367.38 120.986 366.839 120.23 365.457 120.23C363.602 120.23 361.783 121.423 360 123.808L358.657 130.5H357.529ZM371.784 124.817C371.14 128.033 372.124 129.641 374.738 129.641C377.352 129.641 378.981 128.033 379.626 124.817C380.256 121.659 379.264 120.08 376.65 120.08C374.036 120.08 372.414 121.659 371.784 124.817ZM370.646 124.86C371.412 121.029 373.478 119.113 376.844 119.113C380.21 119.113 381.509 121.029 380.743 124.86C379.977 128.685 377.911 130.597 374.545 130.597C371.193 130.597 369.894 128.685 370.646 124.86ZM383.912 129.179C385.094 129.386 386.15 129.49 387.081 129.49C389.588 129.49 391.177 127.811 391.851 124.452C392.402 121.681 391.793 120.295 390.024 120.295C388.492 120.295 386.863 121.204 385.137 123.023L383.912 129.179ZM384.771 119.231H385.685L385.362 121.906C387.146 120.116 388.811 119.221 390.357 119.221C392.778 119.221 393.634 120.99 392.925 124.527C392.13 128.509 390.146 130.5 386.974 130.5C385.792 130.5 384.7 130.418 383.697 130.253L382.827 134.582H381.699L384.771 119.231Z" fill="#161719"/>
<path fill-rule="evenodd" clip-rule="evenodd" d="M14.5 174C22.232 174 28.5 167.732 28.5 160C28.5 152.268 22.232 146 14.5 146C6.76801 146 0.5 152.268 0.5 160C0.5 167.732 6.76801 174 14.5 174ZM11.8934 158.12C11.6001 158.373 11.1734 158.5 10.6134 158.5H9.55344V155.4C9.7001 155.373 9.8401 155.36 9.97344 155.36C10.1201 155.347 10.3001 155.34 10.5134 155.34C11.1134 155.34 11.5668 155.48 11.8734 155.76C12.1934 156.027 12.3534 156.413 12.3534 156.92C12.3534 157.453 12.2001 157.853 11.8934 158.12ZM8.87344 165.04C9.19344 165 9.42677 164.96 9.57344 164.92V161.24H10.9934C11.8068 161.24 12.5201 161.14 13.1334 160.94C13.7601 160.727 14.2734 160.433 14.6734 160.06C15.0868 159.673 15.3934 159.22 15.5934 158.7C15.8068 158.167 15.9134 157.573 15.9134 156.92C15.9134 155.573 15.4268 154.507 14.4534 153.72C13.4801 152.933 12.0734 152.54 10.2334 152.54C9.64677 152.54 9.0601 152.58 8.47344 152.66C7.9001 152.727 7.38677 152.84 6.93344 153C6.66677 153.093 6.45344 153.22 6.29344 153.38C6.14677 153.527 6.07344 153.74 6.07344 154.02V163.44C6.07344 163.787 6.11344 164.067 6.19344 164.28C6.27344 164.493 6.39344 164.66 6.55344 164.78C6.71344 164.9 6.90677 164.98 7.13344 165.02C7.37344 165.073 7.64677 165.1 7.95344 165.1C8.2601 165.1 8.56677 165.08 8.87344 165.04ZM19.8039 165.1C20.0972 165.06 20.3106 165.02 20.4439 164.98V158.16C20.6172 158.08 20.8239 158.013 21.0639 157.96C21.3172 157.893 21.5839 157.833 21.8639 157.78C22.1439 157.727 22.4306 157.687 22.7239 157.66C23.0172 157.633 23.3039 157.62 23.5839 157.62C23.6639 157.473 23.7306 157.313 23.7839 157.14C23.8372 156.953 23.8639 156.767 23.8639 156.58C23.8639 156.02 23.6772 155.62 23.3039 155.38C22.9306 155.127 22.4239 155 21.7839 155C21.3972 155 21.0106 155.033 20.6239 155.1C20.2372 155.153 19.8639 155.233 19.5039 155.34C19.1439 155.447 18.8039 155.573 18.4839 155.72C18.1772 155.853 17.9172 156.007 17.7039 156.18C17.4906 156.353 17.3239 156.553 17.2039 156.78C17.0972 156.993 17.0439 157.253 17.0439 157.56V163.56C17.0439 163.893 17.0839 164.167 17.1639 164.38C17.2572 164.58 17.3839 164.74 17.5439 164.86C17.7039 164.98 17.8972 165.06 18.1239 165.1C18.3639 165.14 18.6306 165.16 18.9239 165.16C19.2306 165.16 19.5239 165.14 19.8039 165.1Z" fill="#161719"/>
<g clip-path="url(#clip3_63_649)">
<rect x="38.5" y="146.5" width="153.6" height="27" fill="#161719"/>
<path d="M143.306 161.472C143.306 158.757 144.912 156.503 148.125 154.711L148.462 155.275C146.318 156.56 144.99 157.875 144.478 159.223C145.361 158.916 146.23 158.762 147.085 158.762C149.644 158.762 150.923 159.86 150.923 162.058C150.923 164.401 149.67 165.573 147.166 165.573C144.592 165.573 143.306 164.206 143.306 161.472ZM144.001 161.428C144.001 163.752 145.078 164.914 147.231 164.914C149.199 164.914 150.183 163.962 150.183 162.058C150.183 160.3 149.153 159.421 147.092 159.421C146.047 159.421 145.11 159.587 144.28 159.919C144.094 160.261 144.001 160.764 144.001 161.428ZM158.884 165.5H158.115V163.01H152.095V162.351L156.672 155.026H157.507L152.922 162.351H158.115V158.19H158.884V162.351L160.042 162.614V163.01H158.884V165.5ZM165.974 165.5H165.059L172.507 155.026H173.423L165.974 165.5ZM165.791 156.843C165.791 157.707 166.226 158.139 167.095 158.139C167.944 158.139 168.369 157.707 168.369 156.843C168.369 155.993 167.944 155.568 167.095 155.568C166.226 155.568 165.791 155.993 165.791 156.843ZM165.059 156.857C165.059 155.588 165.737 154.953 167.095 154.953C168.433 154.953 169.102 155.588 169.102 156.857C169.102 158.122 168.433 158.754 167.095 158.754C165.737 158.754 165.059 158.122 165.059 156.857ZM170.112 163.662C170.112 164.526 170.547 164.958 171.416 164.958C172.266 164.958 172.69 164.526 172.69 163.662C172.69 162.812 172.266 162.387 171.416 162.387C170.547 162.387 170.112 162.812 170.112 163.662ZM169.38 163.676C169.38 162.407 170.059 161.772 171.416 161.772C172.754 161.772 173.423 162.407 173.423 163.676C173.423 164.941 172.754 165.573 171.416 165.573C170.059 165.573 169.38 164.941 169.38 163.676Z" fill="#DBD7E9"/>
</g>
<rect x="39" y="147" width="239" height="26" stroke="#161719"/>
<path d="M288.693 167.5L291.766 152.139H298.211C301.204 152.139 302.418 153.546 301.853 156.36C301.301 159.132 298.555 160.897 293.613 161.656L293.624 160.625C297.821 160.059 300.141 158.666 300.585 156.446C301.022 154.241 300.102 153.138 297.824 153.138H292.689L289.821 167.5H288.693ZM302.271 167.5L304.527 156.221H305.44L304.85 160.238C306.396 157.56 308.044 156.221 309.791 156.221L309.565 157.338C307.861 157.338 306.225 158.638 304.656 161.237L303.399 167.5H302.271ZM316.44 156.221C319.176 156.221 320.347 157.202 319.953 159.164C319.545 161.198 318.016 162.215 315.366 162.215H311.284C310.711 165.094 311.771 166.533 314.464 166.533C315.961 166.533 317.307 166.032 318.503 165.029L318.288 166.104C317.106 167.035 315.767 167.5 314.271 167.5C310.826 167.5 309.487 165.577 310.253 161.731C310.991 158.058 313.053 156.221 316.44 156.221ZM311.488 161.205H315.549C317.461 161.205 318.557 160.514 318.836 159.132C319.094 157.821 318.231 157.166 316.247 157.166C313.741 157.166 312.154 158.512 311.488 161.205ZM321.199 167.5L323.455 156.221H324.368L323.917 159.572C325.378 157.338 326.996 156.221 328.772 156.221C330.849 156.221 331.669 157.309 331.232 159.486C332.758 157.309 334.401 156.221 336.163 156.221C338.254 156.221 339.06 157.42 338.58 159.819L337.044 167.5H335.916L337.452 159.819C337.796 158.093 337.295 157.23 335.948 157.23C334.101 157.23 332.475 158.434 331.071 160.84L329.739 167.5H328.611L330.147 159.819C330.491 158.093 329.961 157.23 328.558 157.23C326.796 157.23 325.163 158.434 323.659 160.84L322.327 167.5H321.199ZM345.015 152.139L344.757 153.428H343.414L343.672 152.139H345.015ZM344.091 156.221L341.835 167.5H340.707L342.963 156.221H344.091ZM352.298 156.221C355.034 156.221 356.204 157.202 355.811 159.164C355.402 161.198 353.873 162.215 351.224 162.215H347.142C346.569 165.094 347.629 166.533 350.321 166.533C351.818 166.533 353.164 166.032 354.36 165.029L354.146 166.104C352.964 167.035 351.625 167.5 350.128 167.5C346.683 167.5 345.344 165.577 346.11 161.731C346.848 158.058 348.91 156.221 352.298 156.221ZM347.346 161.205H351.406C353.318 161.205 354.414 160.514 354.693 159.132C354.951 157.821 354.088 157.166 352.104 157.166C349.598 157.166 348.012 158.512 347.346 161.205ZM357.057 167.5L359.312 156.221H360.226L359.635 160.238C361.182 157.56 362.829 156.221 364.576 156.221L364.351 157.338C362.646 157.338 361.01 158.638 359.441 161.237L358.185 167.5H357.057ZM371.226 156.221C373.961 156.221 375.132 157.202 374.738 159.164C374.33 161.198 372.801 162.215 370.151 162.215H366.069C365.496 165.094 366.556 166.533 369.249 166.533C370.746 166.533 372.092 166.032 373.288 165.029L373.073 166.104C371.892 167.035 370.552 167.5 369.056 167.5C365.611 167.5 364.272 165.577 365.038 161.731C365.776 158.058 367.838 156.221 371.226 156.221ZM366.273 161.205H370.334C372.246 161.205 373.342 160.514 373.621 159.132C373.879 157.821 373.016 157.166 371.032 157.166C368.526 157.166 366.939 158.512 366.273 161.205ZM381.355 167.5L384.428 152.139H390.873C393.867 152.139 395.08 153.546 394.515 156.36C393.963 159.132 391.217 160.897 386.275 161.656L386.286 160.625C390.483 160.059 392.803 158.666 393.247 156.446C393.684 154.241 392.764 153.138 390.486 153.138H385.352L382.483 167.5H381.355ZM394.934 167.5L397.189 156.221H398.103L397.512 160.238C399.059 157.56 400.706 156.221 402.453 156.221L402.228 157.338C400.523 157.338 398.887 158.638 397.318 161.237L396.062 167.5H394.934ZM404.032 161.817C403.388 165.033 404.372 166.641 406.986 166.641C409.6 166.641 411.229 165.033 411.874 161.817C412.504 158.659 411.512 157.08 408.898 157.08C406.285 157.08 404.662 158.659 404.032 161.817ZM402.894 161.86C403.66 158.029 405.726 156.113 409.092 156.113C412.458 156.113 413.757 158.029 412.991 161.86C412.225 165.685 410.159 167.597 406.793 167.597C403.441 167.597 402.142 165.685 402.894 161.86Z" fill="#161719"/>
<path fill-rule="evenodd" clip-rule="evenodd" d="M14.5 211C22.232 211 28.5 204.732 28.5 197C28.5 189.268 22.232 183 14.5 183C6.76801 183 0.5 189.268 0.5 197C0.5 204.732 6.76801 211 14.5 211ZM17.5874 203.589C17.7478 203.616 17.9129 203.593 18.0594 203.522L20.6541 202.267C20.9265 202.135 21.1 201.858 21.1 201.553V197.783V193.045C21.1 192.741 20.9265 192.463 20.6541 192.331L18.0594 191.077C17.9128 191.007 17.748 190.984 17.5877 191.011C17.4275 191.039 17.2797 191.115 17.1648 191.23L12.1983 195.784L10.0349 194.134C9.93752 194.059 9.81715 194.022 9.69477 194.027C9.57239 194.032 9.45574 194.08 9.36515 194.163L8.67116 194.798C8.6172 194.847 8.57413 194.908 8.54467 194.975C8.51521 195.042 8.5 195.114 8.5 195.188C8.5 195.261 8.51521 195.334 8.54467 195.401C8.57413 195.468 8.6172 195.528 8.67116 195.578L10.5467 197.299L8.67116 199.019C8.6172 199.069 8.57413 199.129 8.54467 199.197C8.51521 199.264 8.5 199.336 8.5 199.41C8.5 199.483 8.51521 199.555 8.54467 199.623C8.57413 199.69 8.6172 199.75 8.67116 199.8L9.36515 200.435C9.45563 200.517 9.57221 200.566 9.69459 200.571C9.81698 200.577 9.93741 200.539 10.0349 200.465L12.1983 198.814L17.1648 203.368C17.2792 203.484 17.427 203.561 17.5874 203.589ZM17.9518 194.423V197.783V200.174L14.1834 197.299L17.9518 194.423Z" fill="#161719"/>
<g clip-path="url(#clip4_63_649)">
<rect x="38.5" y="183.5" width="216" height="27" fill="#161719"/>
<path d="M149.923 196.033C149.923 198.748 148.316 201.001 145.104 202.793L144.693 202.229C146.886 200.945 148.238 199.629 148.751 198.281C147.867 198.589 146.998 198.743 146.144 198.743C143.585 198.743 142.306 197.644 142.306 195.447C142.306 193.103 143.558 191.931 146.063 191.931C148.636 191.931 149.923 193.298 149.923 196.033ZM149.227 196.077C149.227 193.752 148.15 192.59 145.997 192.59C144.029 192.59 143.045 193.542 143.045 195.447C143.045 197.205 144.076 198.083 146.136 198.083C147.181 198.083 148.119 197.917 148.949 197.585C149.134 197.244 149.227 196.741 149.227 196.077ZM152.01 197.234C152.01 200.354 153.238 201.914 155.694 201.914C158.097 201.914 159.298 200.354 159.298 197.234C159.298 194.153 158.097 192.612 155.694 192.612C153.238 192.612 152.01 194.153 152.01 197.234ZM151.168 197.278C151.168 193.728 152.677 191.953 155.694 191.953C158.658 191.953 160.14 193.728 160.14 197.278C160.14 200.808 158.658 202.573 155.694 202.573C152.833 202.573 151.324 200.808 151.168 197.278ZM166.336 202.5H165.421L172.87 192.026H173.785L166.336 202.5ZM166.153 193.843C166.153 194.707 166.588 195.139 167.457 195.139C168.307 195.139 168.731 194.707 168.731 193.843C168.731 192.993 168.307 192.568 167.457 192.568C166.588 192.568 166.153 192.993 166.153 193.843ZM165.421 193.857C165.421 192.588 166.1 191.953 167.457 191.953C168.795 191.953 169.464 192.588 169.464 193.857C169.464 195.122 168.795 195.754 167.457 195.754C166.1 195.754 165.421 195.122 165.421 193.857ZM170.475 200.662C170.475 201.526 170.909 201.958 171.778 201.958C172.628 201.958 173.053 201.526 173.053 200.662C173.053 199.812 172.628 199.387 171.778 199.387C170.909 199.387 170.475 199.812 170.475 200.662ZM169.742 200.676C169.742 199.407 170.421 198.772 171.778 198.772C173.116 198.772 173.785 199.407 173.785 200.676C173.785 201.941 173.116 202.573 171.778 202.573C170.421 202.573 169.742 201.941 169.742 200.676Z" fill="#DBD7E9"/>
</g>
<rect x="39" y="184" width="239" height="26" stroke="#161719"/>
<path d="M305.698 189.139L295.891 204.5H294.118L290.423 189.139H291.583L295.139 203.63L304.42 189.139H305.698ZM304.721 203.963L304.957 202.781C306.454 203.354 308.173 203.641 310.113 203.641C313.329 203.641 315.18 202.423 315.667 199.988C316.025 198.198 315.159 197.303 313.067 197.303H309.909C307.052 197.303 305.881 196.014 306.396 193.436C306.984 190.499 309.372 189.031 313.562 189.031C315.28 189.031 316.902 189.246 318.428 189.676L318.213 190.75C316.702 190.249 315.087 189.998 313.368 189.998C309.931 189.998 307.983 191.144 307.524 193.436C307.152 195.298 308.019 196.229 310.124 196.229H313.282C316.125 196.229 317.296 197.482 316.795 199.988C316.179 203.068 313.887 204.607 309.92 204.607C307.979 204.607 306.246 204.393 304.721 203.963ZM330.717 203.963C329.234 204.393 327.759 204.607 326.291 204.607C320.92 204.607 318.768 201.94 319.835 196.604C320.845 191.556 324.035 189.031 329.406 189.031C330.874 189.031 332.264 189.246 333.574 189.676L333.381 190.643C332.07 190.213 330.753 189.998 329.428 189.998C324.665 189.998 321.844 192.2 320.963 196.604C320.025 201.295 321.937 203.641 326.699 203.641C328.024 203.641 329.428 203.426 330.91 202.996L330.717 203.963ZM335.626 198.817C334.981 202.033 335.966 203.641 338.58 203.641C341.194 203.641 342.823 202.033 343.468 198.817C344.098 195.659 343.106 194.08 340.492 194.08C337.878 194.08 336.256 195.659 335.626 198.817ZM334.487 198.86C335.254 195.029 337.32 193.113 340.686 193.113C344.051 193.113 345.351 195.029 344.585 198.86C343.819 202.685 341.753 204.597 338.387 204.597C335.035 204.597 333.735 202.685 334.487 198.86ZM355.026 204.5H354.113L354.436 201.814C352.946 203.605 351.356 204.5 349.666 204.5C347.102 204.5 346.193 202.634 346.938 198.903C347.697 195.115 349.813 193.221 353.286 193.221C354.332 193.221 355.273 193.292 356.111 193.436L356.971 189.139H358.099L355.026 204.5ZM355.896 194.488C354.965 194.316 353.999 194.23 352.996 194.23C350.311 194.23 348.66 195.781 348.044 198.882C347.435 201.911 348.051 203.426 349.892 203.426C351.639 203.426 353.229 202.516 354.661 200.697L355.896 194.488ZM365.274 193.221C368.01 193.221 369.181 194.202 368.787 196.164C368.379 198.198 366.85 199.215 364.2 199.215H360.118C359.545 202.094 360.605 203.533 363.298 203.533C364.795 203.533 366.141 203.032 367.337 202.029L367.122 203.104C365.94 204.035 364.601 204.5 363.104 204.5C359.66 204.5 358.321 202.577 359.087 198.731C359.825 195.058 361.887 193.221 365.274 193.221ZM360.322 198.205H364.383C366.295 198.205 367.391 197.514 367.67 196.132C367.928 194.821 367.065 194.166 365.081 194.166C362.575 194.166 360.988 195.512 360.322 198.205Z" fill="#161719"/>
<path fill-rule="evenodd" clip-rule="evenodd" d="M14.5 248C22.232 248 28.5 241.732 28.5 234C28.5 226.268 22.232 220 14.5 220C6.76801 220 0.5 226.268 0.5 234C0.5 241.732 6.76801 248 14.5 248ZM13.2003 228.711C14.5126 228.448 15.8775 228.448 17.1899 228.711C17.9479 228.311 18.5265 228.127 18.9463 228.049C19.126 228.015 19.3098 227.998 19.4939 228C19.5507 228 19.6074 228.004 19.6635 228.012L19.744 228.026L19.7537 228.028L19.758 228.03L19.7601 228.031C19.7612 228.031 19.7623 228.031 19.616 228.472L19.7623 228.031C19.8376 228.049 19.9073 228.082 19.9665 228.126C20.0256 228.17 20.0728 228.225 20.1048 228.287C20.4212 228.898 20.4816 229.584 20.2755 230.229C20.8062 230.782 21.0977 231.477 21.1 232.194V232.195C21.1 233.64 20.6094 234.615 19.7719 235.24C19.1879 235.674 18.4804 235.906 17.7686 236.035C17.8641 236.284 17.8791 236.551 17.8791 236.843V240.138C17.8791 240.26 17.8226 240.378 17.7219 240.465C17.6212 240.551 17.4847 240.6 17.3423 240.6H13.0479C12.9055 240.6 12.7689 240.551 12.6683 240.465C12.5676 240.378 12.511 240.26 12.511 240.138V238.411C12.0236 238.476 11.5963 238.45 11.2206 238.343C10.6709 238.186 10.3005 237.878 10.0288 237.573C9.89463 237.421 9.77868 237.266 9.67776 237.125L9.60475 237.024C9.53953 236.929 9.47151 236.836 9.40077 236.744C9.21718 236.512 9.10552 236.443 9.01963 236.424L8.5 236.307L8.7727 235.412L9.29233 235.529C9.7819 235.64 10.0847 235.966 10.2887 236.226C10.3718 236.333 10.4519 236.442 10.5291 236.553L10.5903 236.639C10.6799 236.767 10.7767 236.891 10.8802 237.011C11.0788 237.233 11.286 237.387 11.5555 237.464C11.7713 237.525 12.0741 237.55 12.511 237.471V236.918C12.4794 236.619 12.5218 236.317 12.6356 236.032C11.9206 235.9 11.2077 235.669 10.6204 235.234C9.7819 234.614 9.29018 233.648 9.29018 232.212C9.28749 231.488 9.57881 230.787 10.1137 230.229C9.90726 229.584 9.96761 228.897 10.2844 228.286C10.3165 228.224 10.3639 228.17 10.4233 228.126C10.4826 228.081 10.5525 228.049 10.6279 228.031L10.775 228.475L10.6279 228.03H10.6311L10.6354 228.028L10.6462 228.026C10.7281 228.011 10.8115 228.002 10.8952 228C11.0794 227.998 11.2631 228.015 11.4428 228.049C11.8637 228.127 12.4423 228.311 13.2003 228.711Z" fill="#161719"/>
<g clip-path="url(#clip5_63_649)">
<rect x="38.5" y="220.5" width="235.2" height="27" fill="#161719"/>
<path d="M150.923 233.033C150.923 235.748 149.316 238.001 146.104 239.793L145.693 239.229C147.886 237.945 149.238 236.629 149.751 235.281C148.867 235.589 147.998 235.743 147.144 235.743C144.585 235.743 143.306 234.644 143.306 232.447C143.306 230.103 144.558 228.931 147.063 228.931C149.636 228.931 150.923 230.298 150.923 233.033ZM150.227 233.077C150.227 230.752 149.15 229.59 146.997 229.59C145.029 229.59 144.045 230.542 144.045 232.447C144.045 234.205 145.076 235.083 147.136 235.083C148.181 235.083 149.119 234.917 149.949 234.585C150.134 234.244 150.227 233.741 150.227 233.077ZM152.168 236.395C152.168 235.208 152.783 234.424 154.014 234.043C152.979 233.628 152.461 232.815 152.461 231.604C152.461 229.817 153.633 228.924 155.977 228.924C158.32 228.924 159.492 229.817 159.492 231.604C159.492 232.815 158.962 233.628 157.903 234.043C159.158 234.424 159.785 235.208 159.785 236.395C159.785 238.514 158.516 239.573 155.977 239.573C153.438 239.573 152.168 238.514 152.168 236.395ZM156.013 233.714C157.82 233.714 158.723 233.06 158.723 231.751C158.723 230.325 157.788 229.612 155.918 229.612C154.126 229.612 153.23 230.325 153.23 231.751C153.23 233.06 154.158 233.714 156.013 233.714ZM156.013 238.914C158.015 238.914 159.016 238.089 159.016 236.438C159.016 235.062 157.983 234.373 155.918 234.373C153.931 234.373 152.937 235.062 152.937 236.438C152.937 238.089 153.962 238.914 156.013 238.914ZM165.974 239.5H165.059L172.507 229.026H173.423L165.974 239.5ZM165.791 230.843C165.791 231.707 166.226 232.139 167.095 232.139C167.944 232.139 168.369 231.707 168.369 230.843C168.369 229.993 167.944 229.568 167.095 229.568C166.226 229.568 165.791 229.993 165.791 230.843ZM165.059 230.857C165.059 229.588 165.737 228.953 167.095 228.953C168.433 228.953 169.102 229.588 169.102 230.857C169.102 232.122 168.433 232.754 167.095 232.754C165.737 232.754 165.059 232.122 165.059 230.857ZM170.112 237.662C170.112 238.526 170.547 238.958 171.416 238.958C172.266 238.958 172.69 238.526 172.69 237.662C172.69 236.812 172.266 236.387 171.416 236.387C170.547 236.387 170.112 236.812 170.112 237.662ZM169.38 237.676C169.38 236.407 170.059 235.772 171.416 235.772C172.754 235.772 173.423 236.407 173.423 237.676C173.423 238.941 172.754 239.573 171.416 239.573C170.059 239.573 169.38 238.941 169.38 237.676Z" fill="#DBD7E9"/>
</g>
<rect x="39" y="221" width="239" height="26" stroke="#161719"/>
<path d="M288.629 241.5H287.351L297.373 226.139H298.716L302.626 241.5H301.358L300.112 236.344H293.656L294.183 235.377H299.887L297.878 227.02L288.629 241.5ZM304.613 240.963L304.828 239.889C305.995 240.318 307.184 240.533 308.395 240.533C310.765 240.533 312.101 239.781 312.401 238.277C312.645 237.06 311.889 236.451 310.135 236.451H308.738C306.375 236.451 305.394 235.449 305.795 233.443C306.225 231.295 308.004 230.221 311.134 230.221C312.337 230.221 313.529 230.4 314.711 230.758L314.496 231.832C313.329 231.402 312.144 231.188 310.94 231.188C308.563 231.188 307.224 231.939 306.923 233.443C306.665 234.732 307.342 235.377 308.953 235.377H310.35C312.856 235.377 313.916 236.344 313.529 238.277C313.1 240.426 311.324 241.5 308.201 241.5C306.991 241.5 305.795 241.321 304.613 240.963ZM318.363 228.395H319.051L318.89 230.221H322.166L321.973 231.188H318.9L317.472 238.31C317.178 239.792 317.576 240.533 318.664 240.533H320.104L319.91 241.5H318.492C316.659 241.5 315.946 240.487 316.354 238.46L318.363 228.395ZM322.531 241.5L324.787 230.221H325.7L325.109 234.238C326.656 231.56 328.303 230.221 330.051 230.221L329.825 231.338C328.121 231.338 326.484 232.638 324.916 235.237L323.659 241.5H322.531ZM331.63 235.817C330.985 239.033 331.97 240.641 334.584 240.641C337.198 240.641 338.827 239.033 339.472 235.817C340.102 232.659 339.11 231.08 336.496 231.08C333.882 231.08 332.26 232.659 331.63 235.817ZM330.491 235.86C331.257 232.029 333.324 230.113 336.689 230.113C340.055 230.113 341.355 232.029 340.589 235.86C339.823 239.685 337.757 241.597 334.391 241.597C331.039 241.597 329.739 239.685 330.491 235.86ZM344.048 239.513L341.502 244.186H340.374L342.92 239.513H344.048ZM362.954 240.898C361.55 241.371 360.132 241.607 358.7 241.607C353.207 241.607 350.994 238.94 352.062 233.604C353.071 228.556 356.262 226.031 361.633 226.031C363.101 226.031 364.49 226.246 365.801 226.676L365.607 227.643C364.297 227.213 362.979 226.998 361.654 226.998C356.892 226.998 354.07 229.2 353.189 233.604C352.251 238.295 354.095 240.641 358.722 240.641C359.667 240.641 360.752 240.483 361.977 240.168L363.104 234.518H364.232L362.954 240.898ZM370.646 226.139L370.388 227.428H369.045L369.303 226.139H370.646ZM369.722 230.221L367.466 241.5H366.338L368.594 230.221H369.722ZM373.707 228.395H374.395L374.233 230.221H377.51L377.316 231.188H374.244L372.815 238.31C372.522 239.792 372.919 240.533 374.008 240.533H375.447L375.254 241.5H373.836C372.003 241.5 371.29 240.487 371.698 238.46L373.707 228.395ZM379.562 239.513L377.016 244.186H375.888L378.434 239.513H379.562ZM301.702 251.139L301.509 252.105H296.245L293.366 266.5H292.238L295.117 252.105H289.961L290.154 251.139H301.702ZM310.006 256.488C309.075 256.316 308.108 256.23 307.105 256.23C304.42 256.23 302.769 257.781 302.153 260.882C301.545 263.911 302.16 265.426 304.001 265.426C305.748 265.426 307.338 264.516 308.771 262.697L310.006 256.488ZM309.136 266.5H308.223L308.545 263.814C307.055 265.605 305.465 266.5 303.775 266.5C301.212 266.5 300.302 264.634 301.047 260.903C301.806 257.115 303.922 255.221 307.396 255.221C308.921 255.221 310.221 255.375 311.295 255.683L309.136 266.5ZM317.106 251.139L316.849 252.428H315.506L315.764 251.139H317.106ZM316.183 255.221L313.927 266.5H312.799L315.055 255.221H316.183ZM322.005 251.139L318.933 266.5H317.805L320.877 251.139H322.005ZM325.496 255.221H326.624C325.586 256.832 324.848 258.73 324.411 260.914C323.795 263.993 324.4 265.533 326.227 265.533C328.411 265.533 329.832 263.886 330.491 260.592L331.565 255.221H332.693L331.619 260.592C330.96 263.886 331.723 265.533 333.907 265.533C335.733 265.533 336.954 263.993 337.57 260.914C338.007 258.73 338.029 256.832 337.635 255.221H338.763C339.157 256.832 339.135 258.73 338.698 260.914C337.953 264.638 336.292 266.5 333.714 266.5C331.53 266.5 330.484 265.286 330.577 262.858C329.732 265.286 328.217 266.5 326.033 266.5C323.455 266.5 322.538 264.638 323.283 260.914C323.72 258.73 324.458 256.832 325.496 255.221ZM345.122 251.139L344.864 252.428H343.521L343.779 251.139H345.122ZM344.198 255.221L341.942 266.5H340.814L343.07 255.221H344.198ZM345.605 266.5L347.861 255.221H348.774L348.312 258.594C350.081 256.345 351.908 255.221 353.791 255.221C355.889 255.221 356.72 256.313 356.283 258.497L354.683 266.5H353.555L355.155 258.497C355.456 256.986 354.915 256.23 353.533 256.23C351.678 256.23 349.859 257.423 348.076 259.808L346.733 266.5H345.605ZM366.8 266.5H365.887L366.209 263.814C364.719 265.605 363.13 266.5 361.439 266.5C358.876 266.5 357.966 264.634 358.711 260.903C359.47 257.115 361.586 255.221 365.06 255.221C366.105 255.221 367.047 255.292 367.885 255.436L368.744 251.139H369.872L366.8 266.5ZM367.67 256.488C366.739 256.316 365.772 256.23 364.77 256.23C362.084 256.23 360.433 257.781 359.817 260.882C359.209 263.911 359.825 265.426 361.665 265.426C363.412 265.426 365.002 264.516 366.435 262.697L367.67 256.488ZM371.935 264.513L369.389 269.186H368.261L370.807 264.513H371.935ZM288.693 290.963L288.93 289.781C290.426 290.354 292.145 290.641 294.086 290.641C297.301 290.641 299.153 289.423 299.64 286.988C299.998 285.198 299.131 284.303 297.04 284.303H293.882C291.024 284.303 289.854 283.014 290.369 280.436C290.956 277.499 293.345 276.031 297.534 276.031C299.253 276.031 300.875 276.246 302.4 276.676L302.186 277.75C300.674 277.249 299.06 276.998 297.341 276.998C293.903 276.998 291.955 278.144 291.497 280.436C291.125 282.298 291.991 283.229 294.097 283.229H297.255C300.098 283.229 301.269 284.482 300.768 286.988C300.152 290.068 297.86 291.607 293.893 291.607C291.952 291.607 290.219 291.393 288.693 290.963ZM314.099 280.221L311.843 291.5H310.93L311.392 288.127C309.623 290.376 307.725 291.5 305.698 291.5C303.743 291.5 302.984 290.408 303.421 288.224L305.021 280.221H306.149L304.549 288.224C304.248 289.735 304.717 290.49 305.956 290.49C307.954 290.49 309.845 289.298 311.628 286.913L312.971 280.221H314.099ZM316.688 290.179C317.869 290.386 318.925 290.49 319.856 290.49C322.363 290.49 323.953 288.811 324.626 285.452C325.177 282.681 324.569 281.295 322.8 281.295C321.267 281.295 319.638 282.204 317.912 284.023L316.688 290.179ZM317.547 280.231H318.46L318.138 282.906C319.921 281.116 321.586 280.221 323.133 280.221C325.553 280.221 326.409 281.99 325.7 285.527C324.905 289.509 322.922 291.5 319.749 291.5C318.567 291.5 317.475 291.418 316.473 291.253L315.603 295.582H314.475L317.547 280.231ZM336.947 281.488C336.016 281.316 335.049 281.23 334.047 281.23C331.361 281.23 329.711 282.781 329.095 285.882C328.486 288.911 329.102 290.426 330.942 290.426C332.69 290.426 334.28 289.516 335.712 287.697L336.947 281.488ZM336.077 291.5H335.164L335.486 288.814C333.997 290.605 332.407 291.5 330.717 291.5C328.153 291.5 327.243 289.634 327.988 285.903C328.747 282.115 330.864 280.221 334.337 280.221C335.862 280.221 337.162 280.375 338.236 280.683L336.077 291.5ZM340.922 290.179C342.104 290.386 343.16 290.49 344.091 290.49C346.597 290.49 348.187 288.811 348.86 285.452C349.412 282.681 348.803 281.295 347.034 281.295C345.502 281.295 343.876 282.204 342.157 284.023L340.922 290.179ZM342.598 276.139H343.726L342.372 282.906C344.155 281.116 345.82 280.221 347.367 280.221C349.788 280.221 350.647 281.99 349.945 285.527C349.143 289.509 347.156 291.5 343.983 291.5C342.365 291.5 340.911 291.346 339.622 291.038L342.598 276.139ZM361.182 281.488C360.251 281.316 359.284 281.23 358.281 281.23C355.596 281.23 353.945 282.781 353.329 285.882C352.72 288.911 353.336 290.426 355.177 290.426C356.924 290.426 358.514 289.516 359.946 287.697L361.182 281.488ZM360.312 291.5H359.398L359.721 288.814C358.231 290.605 356.641 291.5 354.951 291.5C352.387 291.5 351.478 289.634 352.223 285.903C352.982 282.115 355.098 280.221 358.571 280.221C360.097 280.221 361.396 280.375 362.471 280.683L360.312 291.5ZM363.652 290.963L363.867 289.889C365.035 290.318 366.223 290.533 367.434 290.533C369.804 290.533 371.14 289.781 371.44 288.277C371.684 287.06 370.928 286.451 369.174 286.451H367.777C365.414 286.451 364.433 285.449 364.834 283.443C365.264 281.295 367.043 280.221 370.173 280.221C371.376 280.221 372.568 280.4 373.75 280.758L373.535 281.832C372.368 281.402 371.183 281.188 369.979 281.188C367.602 281.188 366.263 281.939 365.962 283.443C365.704 284.732 366.381 285.377 367.992 285.377H369.389C371.895 285.377 372.955 286.344 372.568 288.277C372.139 290.426 370.363 291.5 367.24 291.5C366.03 291.5 364.834 291.321 363.652 290.963ZM381.624 280.221C384.36 280.221 385.531 281.202 385.137 283.164C384.729 285.198 383.2 286.215 380.55 286.215H376.468C375.895 289.094 376.955 290.533 379.647 290.533C381.144 290.533 382.491 290.032 383.687 289.029L383.472 290.104C382.29 291.035 380.951 291.5 379.454 291.5C376.009 291.5 374.67 289.577 375.437 285.731C376.174 282.058 378.237 280.221 381.624 280.221ZM376.672 285.205H380.732C382.645 285.205 383.74 284.514 384.02 283.132C384.277 281.821 383.414 281.166 381.431 281.166C378.924 281.166 377.338 282.512 376.672 285.205ZM295.493 305.221C298.229 305.221 299.4 306.202 299.006 308.164C298.598 310.198 297.069 311.215 294.419 311.215H290.337C289.764 314.094 290.824 315.533 293.517 315.533C295.013 315.533 296.36 315.032 297.556 314.029L297.341 315.104C296.159 316.035 294.82 316.5 293.323 316.5C289.879 316.5 288.539 314.577 289.306 310.731C290.043 307.058 292.106 305.221 295.493 305.221ZM290.541 310.205H294.602C296.514 310.205 297.609 309.514 297.889 308.132C298.146 306.821 297.284 306.166 295.3 306.166C292.793 306.166 291.207 307.512 290.541 310.205ZM302.83 303.395H303.518L303.356 305.221H306.633L306.439 306.188H303.367L301.938 313.31C301.645 314.792 302.042 315.533 303.131 315.533H304.57L304.377 316.5H302.959C301.126 316.5 300.413 315.487 300.821 313.46L302.83 303.395ZM315.012 315.104C313.895 316.035 312.62 316.5 311.188 316.5C308.036 316.5 306.844 314.584 307.61 310.753C308.348 307.065 310.471 305.221 313.98 305.221C315.055 305.221 316.036 305.328 316.924 305.543L316.73 306.51C315.771 306.295 314.826 306.188 313.895 306.188C311.137 306.188 309.454 307.709 308.846 310.753C308.208 313.94 309.089 315.533 311.488 315.533C312.777 315.533 314.023 315.032 315.227 314.029L315.012 315.104Z" fill="#161719"/>
<defs>
<clipPath id="clip0_63_649">
<rect x="38.5" y="35.5" width="240" height="27" fill="white"/>
</clipPath>
<clipPath id="clip1_63_649">
<rect x="38.5" y="72.5" width="240" height="27" fill="white"/>
</clipPath>
<clipPath id="clip2_63_649">
<rect x="38.5" y="109.5" width="240" height="27" fill="white"/>
</clipPath>
<clipPath id="clip3_63_649">
<rect x="38.5" y="146.5" width="240" height="27" fill="white"/>
</clipPath>
<clipPath id="clip4_63_649">
<rect x="38.5" y="183.5" width="240" height="27" fill="white"/>
</clipPath>
<clipPath id="clip5_63_649">
<rect x="38.5" y="220.5" width="240" height="27" fill="white"/>
</clipPath>
</defs>
</svg>
