<svg width="74" height="74" viewBox="0 0 74 74" fill="none" xmlns="http://www.w3.org/2000/svg">
<path fill-rule="evenodd" clip-rule="evenodd" d="M74 37C74 57.4345 57.4345 74 37 74C16.5655 74 0 57.4345 0 37C0 16.5655 16.5655 0 37 0C57.4345 0 74 16.5655 74 37ZM38.3821 56.1452L38.3617 56.1489L38.2301 56.2141L38.1931 56.2216L38.1671 56.2141L38.0356 56.1489C38.0158 56.1427 38.001 56.1458 37.9911 56.1582L37.9837 56.1768L37.9522 56.9749L37.9614 57.0121L37.98 57.0364L38.1727 57.1744L38.2005 57.1818L38.2227 57.1744L38.4155 57.0364L38.4377 57.0066L38.4451 56.9749L38.4136 56.1787C38.4087 56.1588 38.3982 56.1476 38.3821 56.1452ZM38.8732 55.9345L38.8491 55.9382L38.5063 56.1116L38.4877 56.1302L38.4822 56.1507L38.5155 56.9525L38.5248 56.9749L38.5396 56.9879L38.9121 57.1613C38.9356 57.1675 38.9535 57.1626 38.9658 57.1464L38.9732 57.1203L38.9102 55.9755C38.9041 55.9531 38.8917 55.9394 38.8732 55.9345ZM37.5482 55.9382C37.54 55.9332 37.5303 55.9316 37.5209 55.9337C37.5116 55.9358 37.5035 55.9414 37.4982 55.9494L37.487 55.9755L37.424 57.1203C37.4253 57.1427 37.4358 57.1576 37.4555 57.165L37.4833 57.1613L37.8558 56.9879L37.8743 56.973L37.8818 56.9525L37.9133 56.1507L37.9077 56.1284L37.8892 56.1097L37.5482 55.9382ZM27.5669 44.9302C35.4872 52.8972 43.0498 53.9488 45.7183 54.0476C49.8008 54.1987 53.7257 51.098 55.2768 47.4566C55.4703 47.0058 55.5398 46.5111 55.4782 46.024C55.4166 45.5369 55.2261 45.0755 54.9265 44.6878C52.8399 41.9998 50.0378 40.0546 47.5484 38.3265C47.3804 38.2098 47.2138 38.0941 47.0489 37.9793C46.4573 37.5674 45.7302 37.4019 45.02 37.5173C44.3098 37.6326 43.6715 38.02 43.2388 38.5983L40.8854 42.2024C40.7625 42.3967 40.5704 42.5364 40.3484 42.5925C40.1265 42.6487 39.8915 42.6172 39.6919 42.5045C38.1001 41.5871 35.7781 40.0247 34.1103 38.3466C32.4425 36.6686 30.9859 34.4386 30.1668 32.9414C30.065 32.7504 30.0356 32.5286 30.084 32.3174C30.1324 32.1062 30.2553 31.9198 30.43 31.7929L34.0455 29.0912C34.5626 28.6402 34.8967 28.0136 34.9842 27.3307C35.0717 26.6479 34.9064 25.9565 34.5199 25.3883C34.3458 25.1321 34.169 24.8691 33.9887 24.6009C32.3488 22.1616 30.4235 19.2979 27.7522 17.3392C27.3697 17.0605 26.9217 16.8866 26.4523 16.8346C25.9828 16.7827 25.508 16.8544 25.0744 17.0428C21.4738 18.5959 18.3568 22.5729 18.5051 26.6673C18.6052 29.3541 19.6485 36.9613 27.5669 44.9302Z" fill="#161719"/>
</svg>
