<svg width="77" height="77" viewBox="0 0 77 77" fill="none" xmlns="http://www.w3.org/2000/svg">
<path fill-rule="evenodd" clip-rule="evenodd" d="M38.5 77C59.763 77 77 59.763 77 38.5C77 17.237 59.763 0 38.5 0C17.237 0 0 17.237 0 38.5C0 59.763 17.237 77 38.5 77ZM34.86 47.4495V55.65H39.48V45.6207C40.635 45.8902 41.79 46.025 42.945 46.025C44.6134 46.025 46.2656 45.7511 47.807 45.2191C49.3484 44.687 50.749 43.9071 51.9288 42.924C53.1086 41.9409 54.0444 40.7737 54.6829 39.4892C55.3214 38.2046 55.65 36.8279 55.65 35.4375C55.65 34.0471 55.3214 32.6704 54.6829 31.3858C54.0444 30.1013 53.1086 28.9341 51.9288 27.951C50.749 26.9679 49.3484 26.188 47.807 25.6559C46.2656 25.1239 44.6134 24.85 42.945 24.85H42.3675C40.4964 22.54 37.3086 21 33.705 21C27.93 21 23.31 24.85 23.31 29.6625C23.31 30.8752 23.6103 32.0303 24.1416 33.0698C22.155 34.6483 21 36.8428 21 39.2875C21 44.1 25.62 47.95 31.395 47.95C32.6193 47.95 33.7743 47.7767 34.86 47.4495Z" fill="#DBD7E9"/>
</svg>
